STARTFONT 2.1
COMMENT
COMMENT Converted from OpenType font "Q:\font stuff\winfont\ZapfinoExtraLT-Two.otf" by "otf2bdf 3.0".
COMMENT
FONT -FreeType-Zapfino Extra LT Two-Medium-R-Normal--84-840-72-72-P-416-ISO10646-1
SIZE 84 72 72
FONTBOUNDINGBOX 154 117 -50 -47
STARTPROPERTIES 19
FOUNDRY "FreeType"
FAMILY_NAME "Zapfino Extra LT Two"
WEIGHT_NAME "Medium"
SLANT "R"
SETWIDTH_NAME "Normal"
ADD_STYLE_NAME ""
PIXEL_SIZE 84
POINT_SIZE 840
RESOLUTION_X 72
RESOLUTION_Y 72
SPACING "P"
AVERAGE_WIDTH 416
CHARSET_REGISTRY "ISO10646"
CHARSET_ENCODING "1"
FONT_ASCENT 57
FONT_DESCENT 43
COPYRIGHT "Copyright (c) 2003 Linotype Library GmbH, www.linotype.com. All rights reserved. This software may not be reproduced, used, displayed, modified, disclosed or transferred without the express written approval of Linotype Library GmbH. Zapfino is a trademark of Heidelberger Druckmaschinen AG, exclusively licensed through Linotype Library GmbH, and may be registered in certain jurisdictions. The typeface is original artwork of Hermann Zapf. The design may be protected in certain jurisdictions."
_OTF_FONTFILE "Q:\font stuff\winfont\ZapfinoExtraLT-Two.otf"
_OTF_PSNAME "ZapfinoExtraLT-Two"
ENDPROPERTIES
CHARS 371
STARTCHAR 000D
ENCODING 13
SWIDTH 0 0
DWIDTH 0 0
BBX 0 0 0 0
BITMAP
ENDCHAR
STARTCHAR 0020
ENCODING 32
SWIDTH 202 0
DWIDTH 17 0
BBX 0 0 0 0
BITMAP
ENDCHAR
STARTCHAR 0021
ENCODING 33
SWIDTH 214 0
DWIDTH 18 0
BBX 19 34 8 0
BITMAP
0001E0
0007C0
000780
000F00
000E00
001C00
001800
003800
003000
006000
006000
00C000
00C000
008000
018000
010000
030000
020000
020000
040000
040000
040000
080000
080000
100000
100000
000000
000000
000000
600000
F00000
F00000
F00000
E00000
ENDCHAR
STARTCHAR 0022
ENCODING 34
SWIDTH 321 0
DWIDTH 27 0
BBX 21 22 14 18
BITMAP
000638
000E38
001C70
0018F0
0038E0
0031C0
006180
00E380
00C700
018600
018E00
030C00
021800
061000
0C3000
082000
184000
10C000
208000
410000
410000
820000
ENDCHAR
STARTCHAR 0023
ENCODING 35
SWIDTH 333 0
DWIDTH 28 0
BBX 27 33 6 2
BITMAP
00000020
00000860
00001040
00003080
00002080
00004100
00004200
00008200
00010400
001FFFE0
003FFFC0
003FFF80
00041000
00082000
00082000
00104000
00208000
00208000
00410000
00820000
00FFE000
1FFFE000
7FFFC000
02080000
04100000
08100000
08200000
10400000
30C00000
20800000
61800000
C1000000
C0000000
ENDCHAR
STARTCHAR 0024
ENCODING 36
SWIDTH 369 0
DWIDTH 31 0
BBX 32 59 3 -17
BITMAP
00000001
00000002
00000006
00000004
0000000C
000007F8
00001FF8
000063F0
000181F0
000200F0
000200F0
000401B0
00040190
00080100
00080300
00180200
00180600
001C0400
003C0C00
003F0800
003FD000
000FF800
0003FF00
00007FC0
00004FE0
000043E0
000081F0
000101F0
000100F0
000200F0
000200F0
000400E0
000400E0
000800E0
001001C0
00100180
00200100
80200300
80400400
C0400800
C0801000
F0806000
79038000
3FFC0000
0FE00000
04000000
04000000
0C000000
08000000
18000000
10000000
30000000
20000000
60000000
40000000
C0000000
C0000000
80000000
80000000
ENDCHAR
STARTCHAR 0025
ENCODING 37
SWIDTH 619 0
DWIDTH 52 0
BBX 45 44 7 -8
BITMAP
00003FFF8000
00003FFFC000
00004001C000
000086004000
000307004000
000607004000
000C07008000
000C06008000
001806010000
00380E010000
00380C020000
00300C040000
007018040000
007030080000
007020100000
007040200000
007180400000
003E00400000
000000800000
000001000000
000002006000
000004007FF8
00000800FE00
000008037E00
0000100E7E00
0000203C7E00
000040587E00
000081987C00
000102307C00
00020C707800
00041060F800
00086060F000
001080E0E000
003300E1C000
006400E38000
00D800F70000
01A0007C0000
03C000000000
070000000000
0E0000000000
1C0000000000
780000000000
F00000000000
400000000000
ENDCHAR
STARTCHAR 0026
ENCODING 38
SWIDTH 607 0
DWIDTH 51 0
BBX 41 39 7 0
BITMAP
000007F00000
00001DF80000
000020380000
000040380000
000080180000
000100100000
000100000000
000300000000
000300000000
000200000000
000600000000
000300000000
0003F8000000
001F02000000
006382000000
0180FC000000
020000000000
0C0000000000
1C0000000000
380004000F80
30003F801080
7000C3E02080
700180F84080
E001007C8100
E003003F0200
E001800FCC00
E0018003F000
E00000040000
E00000080000
F00000080000
F00000100000
F00000200000
780000400000
7C0000800000
3E0003000000
1F000C000000
0FE030000000
03FFC0000000
007C00000000
ENDCHAR
STARTCHAR 0027
ENCODING 39
SWIDTH 214 0
DWIDTH 18 0
BBX 12 19 15 20
BITMAP
0020
0070
00E0
00E0
01C0
01C0
0380
0300
0600
0E00
0C00
1800
1800
3000
2000
6000
4000
8000
8000
ENDCHAR
STARTCHAR 0028
ENCODING 40
SWIDTH 404 0
DWIDTH 34 0
BBX 35 55 17 -5
BITMAP
0000000020
00000000C0
0000000300
0000000400
0000000800
0000003000
0000006000
0000008000
0000030000
0000060000
00000C0000
00001C0000
0000380000
0000700000
0000E00000
0001C00000
0001800000
0003800000
0007000000
000E000000
001C000000
001C000000
0038000000
0070000000
0070000000
00E0000000
01E0000000
01C0000000
0380000000
0380000000
0700000000
0700000000
0E00000000
0E00000000
1C00000000
1C00000000
3C00000000
3800000000
3800000000
7800000000
7000000000
7000000000
7000000000
E000000000
E000000000
E000000000
E000000000
E000000000
6000000000
6000000000
6000000000
3000000000
3000000000
1800000000
0800000000
ENDCHAR
STARTCHAR 0029
ENCODING 41
SWIDTH 404 0
DWIDTH 34 0
BBX 35 55 3 -5
BITMAP
0000000200
0000000300
0000000180
0000000180
00000000C0
00000000C0
00000000E0
00000000E0
00000000E0
00000000E0
00000000E0
00000000E0
00000001E0
00000001C0
00000001C0
00000001C0
0000000380
0000000380
0000000380
0000000700
0000000700
0000000E00
0000000E00
0000001C00
0000001C00
0000003800
0000003800
0000007000
0000007000
000000E000
000001C000
000001C000
0000038000
0000070000
0000070000
00000E0000
00001C0000
0000180000
0000380000
0000700000
0000E00000
0001C00000
0003800000
0003000000
0006000000
000C000000
0018000000
0020000000
00C0000000
0180000000
0300000000
0400000000
1800000000
6000000000
8000000000
ENDCHAR
STARTCHAR 002A
ENCODING 42
SWIDTH 250 0
DWIDTH 21 0
BBX 15 14 14 20
BITMAP
0030
0830
1860
0C40
0480
0280
037E
FF80
C280
04C0
0460
0C20
1830
1800
ENDCHAR
STARTCHAR 002B
ENCODING 43
SWIDTH 404 0
DWIDTH 34 0
BBX 18 18 11 2
BITMAP
000E00
001C00
001800
003000
003000
006000
006000
FFFF00
FFFFC0
018040
010000
030000
060000
060000
0E0000
0C0000
1C0000
080000
ENDCHAR
STARTCHAR 002C
ENCODING 44
SWIDTH 214 0
DWIDTH 18 0
BBX 15 19 -1 -11
BITMAP
0006
0006
000E
001E
003C
0038
0070
00E0
01C0
0180
0300
0600
0C00
1800
1000
2000
6000
C000
8000
ENDCHAR
STARTCHAR 002D
ENCODING 45
SWIDTH 321 0
DWIDTH 27 0
BBX 14 1 12 10
BITMAP
FFFC
ENDCHAR
STARTCHAR 002E
ENCODING 46
SWIDTH 226 0
DWIDTH 19 0
BBX 5 5 8 0
BITMAP
38
F8
F0
F0
E0
ENDCHAR
STARTCHAR 002F
ENCODING 47
SWIDTH 369 0
DWIDTH 31 0
BBX 28 60 8 -14
BITMAP
00000010
00000030
00000020
00000060
00000040
000000C0
00000080
00000180
00000100
00000300
00000300
00000200
00000600
00000400
00000C00
00000800
00001800
00001000
00003000
00003000
00006000
00006000
0000C000
0000C000
00008000
00018000
00010000
00030000
00020000
00060000
00060000
000C0000
000C0000
00180000
00180000
00300000
00300000
00200000
00600000
00400000
00C00000
00C00000
01800000
01800000
03000000
03000000
06000000
06000000
04000000
0C000000
08000000
18000000
18000000
30000000
30000000
60000000
60000000
40000000
C0000000
80000000
ENDCHAR
STARTCHAR 0030
ENCODING 48
SWIDTH 440 0
DWIDTH 37 0
BBX 42 38 8 -1
BITMAP
000000180040
0000007C0080
000001FE0100
00001FFE0600
00003CFF0800
0000DE0F3000
00038F87C000
000703FF0000
000C00070000
001800070000
003800070000
007000060000
00E000060000
00C000060000
01C000060000
0380000C0000
0700000C0000
0700000C0000
0E0000080000
0E0000180000
1C0000100000
1C0000100000
380000200000
380000200000
780000400000
780000800000
700000800000
F00001000000
F00002000000
F00004000000
F00004000000
F00008000000
F00010000000
F80060000000
780080000000
7C0100000000
3F0E00000000
07F000000000
ENDCHAR
STARTCHAR 0031
ENCODING 49
SWIDTH 273 0
DWIDTH 23 0
BBX 21 39 9 -2
BITMAP
000018
000078
0001F0
0002E0
000DE0
0011C0
006380
008780
030700
040E00
181E00
601C00
C03C00
003800
007000
00F000
00E000
01E000
01C000
03C000
078000
078000
0F0000
0F0000
1E0000
1C0000
3C0000
3C0000
780000
780000
F00000
F00000
E00000
E00000
E00000
600000
600000
200000
200000
ENDCHAR
STARTCHAR 0032
ENCODING 50
SWIDTH 416 0
DWIDTH 35 0
BBX 38 37 0 0
BITMAP
00000007E0
0000003FF8
000000FFF8
00000181FC
000002007C
000004007C
000008003C
000010003C
0000200038
0000000038
0000000030
0000000070
0000000060
00000000C0
0000000080
0000000180
0000000300
0000000200
0000000400
0000000800
0000001000
0000002000
0000004000
0000008000
0000010000
0000020000
00000C0000
0000100000
0000200000
0000400000
01FFFFC000
0FFFFFFF00
30047FFF00
C01801FF00
8060001F00
FF80000300
7C00000000
ENDCHAR
STARTCHAR 0033
ENCODING 51
SWIDTH 321 0
DWIDTH 27 0
BBX 33 45 -2 -8
BITMAP
0000003F00
000000FF00
0000030F80
0000040780
0000000780
0000000780
0000000700
0000000700
0000000600
0000000C00
0000001800
0000003000
0000006000
0000018000
0000070000
00000C0000
00003F8000
0000FFC000
000107E000
000003E000
000001E000
000001E000
000001F000
000001F000
000001E000
000001E000
000001E000
000001E000
000001C000
000003C000
0000038000
0000038000
0000070000
0000060000
00000E0000
00000C0000
0000180000
0000300000
0000600000
0000C00000
0001800000
0006000000
8018000000
6060000000
3F80000000
ENDCHAR
STARTCHAR 0034
ENCODING 52
SWIDTH 452 0
DWIDTH 38 0
BBX 40 38 4 -2
BITMAP
0000000400
0000001E00
0000003E00
0000003E00
0000001C02
0000001C0C
0000003818
0000003860
00000070C0
0000006180
0000018300
0000030700
0000060E00
0000080C00
0000301800
0000603800
0001807000
0003006000
000C00E000
003001C000
0060018000
0180038000
7FFFFFFFFE
FFFFFFFFFF
F8000E001F
00000E0002
00001C0002
00001C0000
0000380000
0000380000
0000700000
0000F00000
0000E00000
0000E00000
0000E00000
0000C00000
0000400000
0000400000
ENDCHAR
STARTCHAR 0035
ENCODING 53
SWIDTH 297 0
DWIDTH 25 0
BBX 40 49 -2 -5
BITMAP
0000000001
0000000001
0000000001
0000000001
0000000003
0000000006
000000000E
000000007C
000003FFF8
000003FFE0
000007FFC0
00000FFE00
0000180000
0000100000
0000300000
0000200000
0000600000
0000C00000
0000C00000
0000C00000
0001E00000
0001F00000
0000FC0000
00007E0000
00003F0000
00000F8000
000007C000
000007C000
000003C000
000003C000
000003C000
0000038000
0000038000
0000038000
0000070000
0000060000
00000E0000
00000C0000
0000180000
0000300000
0000200000
0000400000
0001800000
0003000000
0004000000
8018000000
C0E0000000
7F80000000
3E00000000
ENDCHAR
STARTCHAR 0036
ENCODING 54
SWIDTH 345 0
DWIDTH 29 0
BBX 38 40 7 0
BITMAP
00000001F0
0000000FF8
000000300C
000000C004
0000030004
0000040000
0000180000
0000200000
0000400000
0000800000
0001000000
0002000000
0004000000
000C000000
0018000000
0030000000
0060000000
00E0000000
01C0000000
0180000000
0380000000
0703E00000
071C700000
0E60380000
1E80380000
1D00380000
3E00380000
3C00380000
7C00300000
7800700000
7800600000
F000E00000
F000C00000
F001800000
F003000000
F006000000
F00C000000
7818000000
7C60000000
1F80000000
ENDCHAR
STARTCHAR 0037
ENCODING 55
SWIDTH 345 0
DWIDTH 29 0
BBX 31 37 9 0
BITMAP
007C0006
01FFC00C
03FFFC18
07FFFFE0
0E000040
18000080
10000100
30000200
20000600
60000C00
40001800
C0003000
80006000
0000C000
00018000
00030000
00060000
000C0000
00180000
00300000
00600000
00C00000
01800000
03800000
07000000
06000000
0C000000
1C000000
38000000
78000000
70000000
F0000000
F0000000
F0000000
F0000000
F0000000
80000000
ENDCHAR
STARTCHAR 0038
ENCODING 56
SWIDTH 333 0
DWIDTH 28 0
BBX 30 37 5 0
BITMAP
000001F8
0000063C
0000081C
0000301C
0000601C
0000C01C
0000C018
00018030
00018060
00038040
00038080
00038300
0003C400
0003E800
0003F000
0005F000
0018F800
00207C00
00403C00
01803E00
02001E00
04001E00
0C000E00
18000E00
10000C00
30000C00
60000800
60001800
60001000
E0002000
E0004000
F0008000
F0010000
78020000
7E1C0000
3FF00000
0F800000
ENDCHAR
STARTCHAR 0039
ENCODING 57
SWIDTH 345 0
DWIDTH 29 0
BBX 36 38 -2 -2
BITMAP
0000000F80
00000030E0
0000008070
0000030070
0000060070
00000C0070
0000180070
0000300070
00006000F0
0000C000E0
0000C001E0
00018001E0
00018003C0
00030007C0
0003000F80
0003001B80
0003003700
0001006700
0001C18E00
00007E0C00
0000001C00
0000001800
0000003000
0000007000
0000006000
000000C000
0000018000
0000030000
0000060000
00000C0000
0000180000
0000300000
0000400000
0000800000
0003000000
800C000000
6070000000
3F80000000
ENDCHAR
STARTCHAR 003A
ENCODING 58
SWIDTH 238 0
DWIDTH 20 0
BBX 12 19 7 0
BITMAP
0070
00F0
01F0
01E0
01E0
01C0
0000
0000
0000
0000
0000
0000
0000
1000
7800
7800
F000
F000
E000
ENDCHAR
STARTCHAR 003B
ENCODING 59
SWIDTH 226 0
DWIDTH 19 0
BBX 21 30 -2 -12
BITMAP
000038
000078
0000F8
0000F0
0000F0
0000E0
000000
000000
000000
000000
000000
000200
000600
000E00
000E00
001C00
003800
007800
007000
00E000
01C000
038000
030000
060000
0C0000
180000
300000
200000
400000
800000
ENDCHAR
STARTCHAR 003C
ENCODING 60
SWIDTH 404 0
DWIDTH 34 0
BBX 24 17 10 4
BITMAP
000001
00000F
00007F
0003F0
001F80
00FC00
07E000
3E0000
F00000
7C0000
0F0000
03E000
00F800
003E00
000F80
0003C0
000080
ENDCHAR
STARTCHAR 003D
ENCODING 61
SWIDTH 404 0
DWIDTH 34 0
BBX 21 7 11 8
BITMAP
0FFFF8
1FFFF0
000000
000000
000000
7FFFE0
FFFFC0
ENDCHAR
STARTCHAR 003E
ENCODING 62
SWIDTH 404 0
DWIDTH 34 0
BBX 24 15 9 5
BITMAP
018000
03E000
00FC00
001F00
0003E0
00007C
00000F
00007C
0003E0
003F00
01F800
0FC000
FE0000
F00000
800000
ENDCHAR
STARTCHAR 003F
ENCODING 63
SWIDTH 261 0
DWIDTH 22 0
BBX 25 37 7 0
BITMAP
0003E000
00181C00
00600200
00800100
01000100
02000080
00000080
00000080
00000080
00000180
00000300
00000700
00001E00
00003C00
0000F800
0003F000
000FE000
003FC000
00FF0000
03FE0000
0FF80000
1FE00000
3FC00000
7F000000
7E000000
FC000000
FC000000
F8000000
F8000000
F8000000
00000000
00000000
00000000
38000000
F8000000
F8000000
C0000000
ENDCHAR
STARTCHAR 0040
ENCODING 64
SWIDTH 583 0
DWIDTH 49 0
BBX 48 44 7 -5
BITMAP
00000007FE00
0000007807C0
0000018000F0
000006000038
00001800001C
00006000001E
00008000000E
00010000000E
000400000007
000800000007
0010000FC007
00200071C007
004000C18007
00C003830007
018007070006
03000E060006
02001C0E000E
06003C1C000C
0C00381C000C
0C00703C0018
1800F0580018
1800E0B80030
3001C1300020
3001C1300040
700382700080
700384700100
600708700200
E00730700C00
E00740781000
E003801FE000
E00000001000
E00000001000
E00000002000
E00000004000
F00000004000
700000008000
700000010000
380000020000
3C00000C0000
1E0000100000
0F0000600000
03C001800000
01F81E000000
003FE0000000
ENDCHAR
STARTCHAR 0041
ENCODING 65
SWIDTH 726 0
DWIDTH 61 0
BBX 69 47 -4 0
BITMAP
0000000007F8000038
000000001FFF800078
000000007FFFF000F8
00000000FFFFFF01F8
00000001FFFFFFFF80
00000003FFFFFFF300
00000007C000000600
000000070000000600
0000000E0000000C00
0000000C0000001C00
000000080000003C00
00000018000000F800
00000010000000F800
000000100000017800
000000100000027000
00000000000004F000
00000000000008F000
00000000000009F000
00000000000011E000
00000000000021E000
00000000000043E000
00000000000083C000
00000000000103C000
00000000000207C000
00000000000407C000
000000000004078000
060000000008078000
0400000000100F8000
0800000000200F8000
1000000000400F8000
3000000007FFFF0000
3000000001001F0000
6000000002001F0000
600000000C001F0000
6000000010001F0000
E000000020001E0000
E000000040001E0000
E000000180001E0000
F000000200001E0000
F000000C00001E0000
7000001000001E0000
7800006000001E0000
7C00018000001E0000
3F00060000001E0000
1FF9F80000001FFC00
0FFFC00000001FE000
01FE000000000F0000
ENDCHAR
STARTCHAR 0042
ENCODING 66
SWIDTH 761 0
DWIDTH 64 0
BBX 52 57 9 -2
BITMAP
000000000003E0
00000000000C70
00000000001030
00000000002000
00000000004000
00000000008000
00000000010000
00000000020000
00000000040000
00000003FFF800
0000007E087F80
00000380100FC0
00001C002003E0
000060002001F0
000180004001F0
000600008000F0
000800008000F0
003000010000F0
004000020000F0
008000020000E0
010000040001E0
020000080001C0
04000008000380
0C000010000700
18000020000E00
18000020001800
30000040003000
3000004000C000
600000800FFC00
600001001FFF00
60000100003F80
E0000200000FC0
E00004000003E0
E00004000001E0
E00008000001F0
E00008000000F0
E00010000000F0
F00020000000F0
F00020000000F0
700040000000F0
700040000000E0
780080000000E0
780100000001E0
3C0100000001C0
3C020000000180
3C040000000380
1E040000000300
1E080000000600
0F180000000C00
0F910000001800
07E08000002000
07E0C000004000
03C0E000018000
0380F800060000
01807F00380000
01003FFFC00000
010007FE000000
ENDCHAR
STARTCHAR 0043
ENCODING 67
SWIDTH 666 0
DWIDTH 56 0
BBX 48 53 7 -7
BITMAP
000000001FC0
00000003FFF8
0000000FFFFC
0000007803FE
000001C0007F
00000600001F
00000800000F
000030000007
000040000007
000180000007
000200000007
000400000006
000800000000
001000000000
002000000000
004000000000
008000000000
008000000000
010000000000
030000000000
060000000000
060000000000
0C0000000000
0C0000000000
180000000000
180000000000
380000000000
380000000000
700000000000
700000000000
700000000006
700000000006
F00000000007
F00000000007
F00000000007
F0000000000F
F0000000000E
F0000000001E
F8000000001C
F80000000038
780000000070
780000000070
7C00000000E0
3C00000001C0
3E0000000380
1F0000000E00
1F8000001C00
0FC000003800
07E00000E000
03F800038000
00FF001E0000
003FFFF00000
0007FF000000
ENDCHAR
STARTCHAR 0044
ENCODING 68
SWIDTH 726 0
DWIDTH 61 0
BBX 74 56 -6 1
BITMAP
00000000000000001FC0
0000000000000000FFC0
00000000000000038000
00000000000000040000
00000000000000180000
00000000000000200000
00000000000000400000
00000000000000800000
00000000FFFFFF800000
0000007F0000FFF00000
00000780000003FC0000
000038000000047F0000
0001C0000000041F8000
000600000000080FE000
0018000000001007F000
0060000000001003F000
0080000000002001F800
0100000000006000F800
0200000000004000FC00
040000000000C0007C00
08000000000080007E00
18000000000180007E00
30000000000300003E00
30000000000300003E00
70000000000600003E00
60000000000600003E00
60000000000C00003E00
E0000000000C00003E00
E0000000001800003E00
E0000000001800003E00
E0000000003000003C00
E0000000003000003C00
E0000000006000007C00
60000000006000007800
0000000000C000007800
0000000000C00000F000
0000000001800000F000
0000000003800000E000
0000000003000001E000
0000000007000001C000
00000000060000038000
000000000E0000070000
000000000C0000060000
000000001C00000C0000
00000000180000180000
00000000300000300000
00000000600000600000
00000000E00000C00000
00000000C00001000000
00000001000006000000
00000002000008000000
00000004000030000000
000000180000C0000000
00000020000700000000
000000C0003800000000
003FFFFFFFC000000000
ENDCHAR
STARTCHAR 0045
ENCODING 69
SWIDTH 642 0
DWIDTH 54 0
BBX 53 57 2 -11
BITMAP
0000000003FC00
000000003FFF00
00000000C03F80
00000003000F80
0000000C000380
00000018000380
00000070000300
00000060000200
000000E0000000
000001E0000000
000001E0000000
000001E0000000
000001F0000000
000000F0000000
000000F8000000
00000078000000
0000007C000000
0000003C000000
0000003C000000
0000003C000000
00000038000000
00000070000000
000001C0000000
00000E00000000
000070000003F0
0001C000000FF8
00060000003078
0018000000C038
00600000030038
01C00000040038
03800000080038
07000000200030
1E000000400030
1C000000800060
38000001000060
780000020000C0
78000004000080
F0000008000180
F0000010000300
F0000020000600
F0000040000C00
F0000080001000
F0000100002000
F000020000C000
78000200010000
78000400060000
3C000800180000
1E000800600000
0F001001800000
0780200E000000
01F020F0000000
001FFF00000000
00008000000000
00008000000000
00010000000000
00010000000000
00010000000000
ENDCHAR
STARTCHAR 0046
ENCODING 70
SWIDTH 583 0
DWIDTH 49 0
BBX 71 49 2 -3
BITMAP
000000003FC000001C
00000001FFF800003C
00000003FFFE00001E
0000000E01FF80000E
00000010001FE00006
000000600007F80004
000000800000FE0004
0000010000017F0004
0000020000011FC008
0000020000020FF810
00000200000203FFE0
00000400000400FFC0
000004000004001E00
00000C000008000000
00000C000008000000
00001C000010000000
00001C000020000000
00001C000020000000
00001C000040000000
00001C000040000000
00000C000080000000
000000000080000000
000000000100000000
000000000100000000
000000000200000000
000000000400000000
000000000400000000
00000007FFFF800000
2000003FFFFF800000
200000001001800000
400000001000800000
400000002000000000
400000002000000000
800000004000000000
800000004000000000
800000008000000000
800000010000000000
800000010000000000
C00000020000000000
C00000040000000000
E000000C0000000000
E00000380000000000
F00000700000000000
7C0000E00000000000
7F0003C00000000000
3FE03F000000000000
1FFFFE000000000000
0FFFF8000000000000
03FFC0000000000000
ENDCHAR
STARTCHAR 0047
ENCODING 71
SWIDTH 642 0
DWIDTH 54 0
BBX 70 73 -4 -26
BITMAP
0000000000001FFC00
000000000003E00700
00000000001F000180
0000000000F800009C
0000000003E0000024
000000000F80000044
000000003E0000008C
000000007C00000108
00000001F000000218
00000003E000000630
000000078000000C20
0000001F0000001840
0000003E00000030C0
0000007C0000003180
000000F80000006300
000001F0000000C600
000003E0000001C400
000003C00000018800
000007800000031000
00000F800000072000
00001F000000064000
00001E0000000F0000
00003E0000001E0000
00007C0000001C0000
000078000000380000
0000F8000000700000
0000F0000000700000
0000F0000001E00000
0001F0000003E00000
0001E000000DC00000
0001E0000013C00000
0001E0000063800000
0001E0000187800008
0001E000060F0000F0
0000E000180F000F00
00007000E01E00F000
00003C07001E0F0000
000007F8003CF00000
00000000003F000000
000000000078000000
0000000001F0000000
000000000EF0000000
0000000071E0000000
0000000381E0000000
0000001C03C0000000
0000006003C0000000
000003800780000000
00000C000700000000
000030000F00000000
0000C0000E00000000
000300001C00000000
000C00003C00000000
001800003800000000
006000007000000000
00C000007000000000
03800000E000000000
07000001C000000000
0E0000018000000000
1C0000030000000000
3C0000070000000000
380000060000000000
7800000C0000000000
700000180000000000
F00000300000000000
F00000600000000000
F00000C00000000000
F00001800000000000
F00003000000000000
F80004000000000000
780018000000000000
3C0060000000000000
1F0180000000000000
03FE00000000000000
ENDCHAR
STARTCHAR 0048
ENCODING 72
SWIDTH 738 0
DWIDTH 62 0
BBX 90 66 -7 -16
BITMAP
000000000000004000001F80
00000000000000C000006FC0
0000000000000180000183C0
000000000003FF80000603C0
00000000007FFF00000803C0
0000000003FFFF00001003C0
0000000007FFFE0000200380
000000001FF8060000400780
000000003F80040000C00700
000000007C000C0001800E00
00000000F000080003001C00
00000001E000180006001800
00000001C00010000E003000
00000003000030000C00E000
000000070000200018018000
000000060000600038030000
0000000C00004000700C0000
000000080000C00060300000
0000001000008000E1C00000
0000001000018001C6000000
0000002000010001F8000000
0000002000030003C0000000
000000400002000780000000
000000400004003F00000000
00000040000401CE00000000
000000800008060E00000000
000000800008381C00000000
000000800011C01C00000000
000000800026003800000000
000000800038003800000000
000000000060007800000000
0000000001C0007000000000
00000000068000F000000000
00000000190000E000000000
00000000210001E000000000
00000000C20001E000000000
00000001040003E000000000
00000002080003C000000000
0000000C100003C000000000
80000018200003C000000000
80000030400007C000000000
80000060800007C000000000
80000041000007C000000000
C0000082000007C000000000
E000010C000007E000000000
70000310000007E000000000
7C000220000003F000000000
3F8004C0000003FC00000000
0FFFFF00000001FFFF000000
01FFFC000000007FC0000000
000078000000000000000000
000008000000000000000000
000008000000000000000000
000008000000000000000000
000008000000000000000000
000008000000000000000000
00000C000000000000000000
00000C000000000000000000
00000C000000000000000000
000006000000000000000000
000006000000000000000000
000007000000000000000000
000003800000000000000000
000001C00000000000000000
000000F00000000000000000
0000001F8000000000000000
ENDCHAR
STARTCHAR 0049
ENCODING 73
SWIDTH 357 0
DWIDTH 30 0
BBX 47 48 1 -1
BITMAP
00000000FFFE
0000001F000C
000000600010
000001800020
000006000040
000008000080
000018000180
000030000300
000030000600
000060000E00
000060000C00
0000E0001800
0000E0003800
0000E0007000
0000E0007000
0000E000E000
0000F001E000
00007001C000
00007803C000
00003E078000
00000C070000
0000000F0000
0000000E0000
0000001E0000
0000003C0000
0000003C0000
000000780000
000000780000
000000F00000
000001F00000
000001E00000
000003E00000
000003C00000
000007800000
00000F800000
00000F000000
00001E000000
00003E000000
00003C000000
000078000000
0000F0000000
0001F0000000
0003E0000000
000780000000
800F00000000
801E00000000
607800000000
1FC000000000
ENDCHAR
STARTCHAR 004A
ENCODING 74
SWIDTH 392 0
DWIDTH 33 0
BBX 68 69 -17 -17
BITMAP
0000000000000000F0
0000000000000001E0
0000000000000003C0
000000000000000780
000000000000000F80
000000000000001F00
000000000000007F00
000000000000039E00
0000000000000E1C00
000000000000701C00
000000000001803800
000000000006003800
000000000018007000
000000000060007000
00000000008000E000
00000000010000E000
00000000020001C000
00000000040001C000
000000000800038000
000000001000078000
000000003000070000
0000000020000F0000
0000000060000E0000
0000000060001E0000
0000000060001C0000
00000000E0003C0000
00000000E000380000
00000000E000780000
00000000E000700000
00000000E000F00000
00000000F000E00000
00000000F001E00000
000000007803C00000
000000007803C00000
000000007C07800000
000000003C07800000
000000001E0F000000
000000001F0F000000
000000000F9E000000
0000000007FE000000
0000000003FC000000
0000000001FC000000
00000000007E000000
0000000000FF800000
0000000000FF000000
0000000001E0000000
0000000003E0000000
0000000003C0000000
000000000780000000
000000000700000000
000000000F00000000
000000001E00000000
000000001C00000000
000000003800000000
200000007000000000
60000000E000000000
60000000E000000000
E0000001C000000000
E00000038000000000
E00000060000000000
F000000C0000000000
F00000180000000000
700000300000000000
780000600000000000
780001800000000000
7C0002000000000000
3F000C000000000000
3FC070000000000000
1FFF80000000000000
ENDCHAR
STARTCHAR 004B
ENCODING 75
SWIDTH 750 0
DWIDTH 63 0
BBX 86 53 1 -6
BITMAP
000003FE0002000003FC00
00000FFFE00600001FFE00
00001FFFFE040000FFFF00
00003FFFFFF80003FFFF80
00007C03FFF8000FF801C0
0000F0000FF0003F000040
0000C000001000F8000000
0001C000002001E0000000
0001800000200780000000
0001000000400E00000000
0003000000803800000000
0003000000806000000000
000300000100C000000000
0002000001030000000000
0002000002060000000000
0002000002080000000000
0002000004300000000000
0002000004400000000000
0001000008800000000000
000100000B000000000000
0001000014000000000000
0001000028000000000000
0000000030000000000000
0000000070000000000000
00000000F0000000000000
00000001B8000000000000
00000002BC000000000000
000000011E000000000000
000000010F000000000000
0000000207800000000000
0000000407C00000000000
0000000403C00000000000
0000000801E00000000000
0000000800F00000000000
0000001000F80000000000
00000020007C0000000000
00000060003E0000000000
000000C0001F0000000000
00000180000F8000000000
000003000007E000000000
000006000003F000000000
80000C000001F800000000
400038000000FC00000000
2000F00000007F00000000
1C07C00000003F80000000
07FF000000001FE0000004
00000000000007F0000008
00000000000003FC000008
00000000000001FF000030
000000000000007FC00040
000000000000001FF80380
0000000000000003FFFE00
00000000000000003FF000
ENDCHAR
STARTCHAR 004C
ENCODING 76
SWIDTH 928 0
DWIDTH 78 0
BBX 77 50 0 -3
BITMAP
000000000000003F8000
00000000000000FFC000
000000000000030FE000
0000000000000C03C000
00000000000010018000
00000000000020018000
00000000000040000000
00000000000180000000
00000000000300000000
00000000000200000000
00000000000400000000
00000000000C00000000
00000000001800000000
00000000003000000000
00000000006000000000
00000000006000000000
0000000000C000000000
00000000018000000000
00000000018000000000
00000000030000000040
00000000060000000020
00000000060000000020
000000000C0000000010
00000000180000000010
00000000180000000010
00000000300000000008
00000000200000000008
00000000600000000008
00000000400000000008
00000000C00000000008
70000001800000000008
7C000001000000000008
7F000002000000000018
F1C00006000000000018
E0300004000000000018
E00C0008000000000030
E0030018000000000030
E000E010000000000070
E0001820000000000070
E00007400000000000E0
E00000C00000000001E0
F00001380000000003C0
7000030F000000000FC0
78000E01E00000003F80
7C001C007E000000FF00
3F80F8000FF8000FFE00
3FFFF00001FFFFFFFC00
1FFFE000003FFFFFF000
07FF80000003FFFFC000
01FE000000003FFC0000
ENDCHAR
STARTCHAR 004D
ENCODING 77
SWIDTH 916 0
DWIDTH 77 0
BBX 87 47 -4 0
BITMAP
00000000000FC00000001E
0000000007FFC000000078
00000000FFFF80000000E0
0000000FE00000000001C0
0000003000060000000300
000000C0000E0000000400
00000300000E0000001800
00000600001E0000007000
00000400001E0000009000
00000C00001E0000032000
00001C00002E0000044000
00001C00002E0000184000
00001C00004E0000208000
00001C00004E0000408000
00001C00008E0001810000
00000C00008E0002020000
00000000010E0004020000
00000000010E0018040000
00000000020E0020040000
00000000040E00400C0000
00000000040E0080080000
00000000080E0100180000
00000000080E0200100000
00000000100E0C00300000
00000000200E1000300000
00000000200E2000600000
00000000400E4000600020
00000000800E8000E00020
00000000800D0000C00020
00000001000E0000C00020
00000002000C0001C00020
00000002000C0001C00020
00000004001C0001800040
00000008002C0003800040
8000001000480003800040
8000002000880003800080
8000006000980003800080
800000C001100007800100
8000018002100007800300
C000030002300007800200
E0000E0004200007800400
F000380004600007C01800
7800F00004400007E03000
7F9FE0000FC00007FBE000
3FFF80000F800003FFC000
1FFE00000F000001FF0000
07F800000E000000FC0000
ENDCHAR
STARTCHAR 004E
ENCODING 78
SWIDTH 666 0
DWIDTH 56 0
BBX 77 60 -4 -14
BITMAP
000000000000FE0003F0
00000000000301C03FF8
0000000000010023FFF8
000000000000801FFFF8
000000000000FFE80018
0000000000003E040008
00000000E00000020008
00000003F00000030008
00000007F00000030010
0000000FF00000038000
00000018F00000038000
00000030F00000038000
00000020700000038000
00000040700000038000
00000080700000038000
00000100700000038000
00000200700000078000
00000200700000070000
00000400700000070000
00000800700000070000
000010007000000E0000
000010007000000E0000
000020007000000E0000
000040007000001C0000
000040007000001C0000
00008000700000180000
00010000700000380000
00010000700000300000
00020000700000700000
00060000700000600000
00040000700000E00000
00080000700000C00000
00180000700001800000
00100000700001800000
00300000700003000000
00600000700006000000
00400000700006000000
00C0000070000C000000
00800000780018000000
01800000780010000000
03000000780030000000
03000000780060000000
060000007800C0000000
06000000780180000000
0C0000007C0300000000
0C0000003C0600000000
180000003E1800000000
180000003FF000000000
300000001FC000000000
300000000F0000000000
70000000000000000000
60000000000000000000
E0000000000000000000
E0000000000000000000
E0000000000000000000
C0000000000000000000
C0000000000000000000
40000000000000000000
40000000000000000000
40000000000000000000
ENDCHAR
STARTCHAR 004F
ENCODING 79
SWIDTH 619 0
DWIDTH 52 0
BBX 54 49 8 0
BITMAP
00000000FFFC00
00000003000F80
000000000003E0
000000000001F0
000000000000F8
00000000000078
00000007C00078
0000003800007C
000001C000003C
0000060000003C
0000080000003C
0000300000003C
0000400000003C
0001800000003C
0003000000003C
00060000000038
000C0000000078
00180000000078
00380000000070
00700000000070
00E000000000E0
01C000000000E0
03C000000000C0
078000000001C0
07800000000180
0F000000000380
0F000000000300
1E000000000600
1E000000000C00
3E000000000C00
3C000000001800
7C000000003000
7C000000002000
78000000004000
F8000000008000
F8000000010000
F8000000020000
F8000000040000
F8000000080000
F8000000100000
F8000000400000
FC000000800000
7C000003000000
7E000004000000
3F000018000000
3F8000E0000000
0FE00700000000
07FFF800000000
00FF8000000000
ENDCHAR
STARTCHAR 0050
ENCODING 80
SWIDTH 500 0
DWIDTH 42 0
BBX 54 52 2 1
BITMAP
01000000000000
0100000001C000
03000000030000
03000000040000
07000000080000
07800000100000
07C00001EFE000
07F8007E23F800
03FFFFE0400600
01FFFE008001C0
007F80008000E0
00000001000070
00000001000078
0000000200003C
0000000200003C
0000000400003C
0000000400003C
0000000800003C
0000000800003C
0000001000003C
00000020000038
00000020000078
00000040000070
00000040000070
000000800000E0
000000800000C0
000001000001C0
00000300000380
00000200000300
00000600000400
000005C0000800
00000FE0003000
00000FF000C000
000013FC030000
000030FFF80000
0000201FC00000
00006000000000
00004000000000
0000C000000000
00008000000000
00010000000000
00030000000000
00020000000000
00040000000000
00040000000000
00080000000000
00100008000000
00600030000000
0180FFE0000000
7FFFFF80000000
7FFFFE00000000
FFFFC000000000
ENDCHAR
STARTCHAR 0051
ENCODING 81
SWIDTH 690 0
DWIDTH 58 0
BBX 81 63 -3 -16
BITMAP
00000000003FE000000000
0000000003FFFC00000000
000000001C00FF00000000
00000000E0003F80000000
0000000300000FC0000000
00000004000007E0000000
00000010000003F0000000
00000020000001F0000000
000000C0000000F0000000
00000100000000F8000000
00000200000000F8000000
0000040000000078000000
0000080000000078000000
0000180000000078000000
0000300000000078000000
0000600000000078000000
0000600000000078000000
0000C00000000078000000
0001C00000000078000000
0001800000000070000000
0003800000000070000000
00030000000000F0000000
00070000000000E0000000
00070000000000E0000000
00070000000001E0000000
000E0000000001C0000000
000E0000000001C0000000
000E000000000380000000
001E000000000380000000
001E000000000700000000
001E000000000600000000
001E000000000E00000000
001E000000001C00000000
001E000000001800000000
001E000000003000000000
001F000000006000000000
000F00000000C000000000
000F000000018000000000
000F000000030000000000
0007800000060000000000
00038000000C0000000000
0001C00000380000000000
0000E00000E00000000000
0000700001C00000000000
00001C0007000000000000
000000003C000000000000
00000001F0000000000000
0000003F80000000000000
007FFFFE00000000000000
03FFFFE000000000000000
0600FC0000000000000000
180007F000000000000000
2000003F00000000000000
40000007F8000000000080
800000007F800000000080
000000000FF80000000100
0000000001FF8000000200
00000000003FF800000400
000000000003FF80000800
0000000000007FFC003000
0000000000000FFFFFE000
00000000000001FFFF8000
000000000000000FFC0000
ENDCHAR
STARTCHAR 0052
ENCODING 82
SWIDTH 654 0
DWIDTH 55 0
BBX 78 68 -2 -12
BITMAP
00000000000300000000
000000000007C0000000
00000000000C00000000
00000000001000000000
00000000002000000000
00000000004000000000
00000000004000000000
00000000008000000000
00000000010000000000
00000000FFFFE0000000
0000000F0200FC000000
000000F002001F800000
0000078004000FC00000
00001E00080007E00000
00007800080003E00000
0000E000100001F00000
0003C000100001F00000
00078000200001F00000
000F0000200001F00000
000F0000400001F00000
001E0000400001F00000
001E0000800003E00000
001E0001800003E00000
001E0001000003C00000
000E0003000007800000
0006000200000F000000
0000000400001E000000
0000000C000078000000
000000080000E0000000
00000018000380000000
00000010003C00000000
0000003007C000000000
000000603C0000000000
000000603C0000000000
000000C03E0000000000
000000801E0000000000
000001801E0000000000
000003001E0000000000
000003001F0000000000
000006000F0000000000
00000E000F0000000000
00000C000F8000000000
00001C00078000000000
00003800078000000000
0000300007C000000000
0000700003C000000000
0000E00003C000000000
0001C00003E000000000
0001C00001E000000000
0003800001F000000000
0007000000F000000000
001C008000F800000000
00300300007800000000
01FFFE00007C00000000
1FFFFC00003E00000000
FFFFF800003E00000000
00000000001F00000000
00000000001F80000000
00000000000FC0000000
000000000007C0000000
000000000003E0000000
000000000001F8000000
000000000000FC000000
0000000000007E00000C
0000000000003F800030
0000000000001FF003C0
00000000000007FFFC00
000000000000007F8000
ENDCHAR
STARTCHAR 0053
ENCODING 83
SWIDTH 583 0
DWIDTH 49 0
BBX 63 76 -9 -29
BITMAP
000000000000007E
00000000000003FE
0000000000000E0E
000000000000100C
0000000000002018
0000000000004010
0000000000004020
00000000000080C0
0000000000018100
0000000000010200
0000000000030400
0000000000031800
0000000000032000
0000000000074000
0000000000078000
0000000000070000
0000000000070000
00000000000F8000
0000000000178000
0000000000678000
0000000000878000
0000000001078000
0000000002078000
000000000407C000
000000001807C000
000000002007C000
000000004007C000
000000008007C000
000000030007C000
000080040007C000
000080080007C000
000080100007C000
000080200007C000
000180400007C000
000181800007C000
000182000007C000
0003840000078000
0003880000078000
0003900000078000
0003A00000070000
0003C000000F0000
00038000000E0000
0003C000000C0000
0007E000001C0000
000E700000380000
000C380000700000
00181C0000C00000
00300F0001800000
006001E00E000000
00E0003FF0000000
01C0000000000000
0380000000000000
0380000000000000
0700000000000000
0E00000000000000
0E00000000000000
1C00000000000000
1C00000000000000
3800000000000000
3800000000000000
7000000000000000
7000000000000000
6000000000000000
E000000000000000
E000000000000000
E000000000000000
C000000000000000
C000000000000000
C000000000000000
C000000000000000
4000000000000000
4000000000000000
2000000000000000
2000000000000000
1000000000000000
0C00000000000000
ENDCHAR
STARTCHAR 0054
ENCODING 84
SWIDTH 773 0
DWIDTH 65 0
BBX 78 53 5 -2
BITMAP
00000000000000000FF0
0000000000000000F0F8
0000000000000007003C
0000000000000018001C
00000000000000600018
00000000000001800070
000001FFFFFFFFFFFFC0
00000F00003FFFFFFF80
000030000003FFFFFF00
0000C00000003FFFF800
000100000000C0000000
00060000000100000000
00080000000600000000
00100000001800000000
00200000003000000000
0040000000C000000000
00800000018000000000
00800000030000000000
010000000E0000000000
030000001C0000000000
06000000380000000000
06000000700000000000
0C000001E00000000000
1C000003C00000000000
18000007800000000000
3800000F000000000000
3000001E000000000000
7000003C000000000000
7000007C000000000000
E0000078000000000000
E00000F0000000000000
600001F0000000020000
400003E0000000020000
400003C0000000020000
400007C0000000020000
00000780000000060000
00000F80000000040000
00000F000000000C0000
00000F00000000080000
00001F00000000180000
00001F00000000300000
00001E00000000600000
00001E00000000C00000
00001E00000001800000
00001E00000003000000
00000E0000000C000000
00000E00000018000000
00000700000060000000
00000700000180000000
00000380000600000000
000000C0003800000000
0000003803C000000000
00000007FC0000000000
ENDCHAR
STARTCHAR 0055
ENCODING 85
SWIDTH 714 0
DWIDTH 60 0
BBX 73 58 5 -3
BITMAP
00000000000000000600
00000000000000003F80
0000000000000000FF00
00000000000000010000
10000000000000060000
30000000000000080000
30000000000000100000
70000000000000200000
70000000800000200000
F0000003800000400000
F0000006000000800000
F8000008000001000000
F8000030000003000000
FE0001E0000002000000
FF801E80000004000000
7FFFF100000008000000
3FFF8200000008000000
0FE00400000010000000
00000800000010000000
00001000000020000000
00006000000040000000
00008000000040000000
00010000000080000000
00010000000080000000
00020000000100000000
00040000000100000000
00080000000200000000
00100000000600000000
00200000000400000000
00400000000C00000000
00C00000000800000000
00800000001800000000
01000000001800000000
03000000003000000000
06000000007000000000
06000000006000000000
0C00000000E000000000
1C00000000E000000000
1800000001C000000000
3800000003C000000000
3800000007C000000000
700000000F8000000000
700000003F8000000000
700000004F8000010000
F00000018F8000020000
F00000020F0000020000
F00000040F0000040000
F00000180F0000080000
F80000200F0000100000
F80000C00F0000600000
FC0003000F0000800000
7E000C000F0001000000
7FC0F0000F0002000000
3FFF80000F000C000000
0FF800000F8030000000
0000000007C0C0000000
0000000007FF00000000
0000000001F800000000
ENDCHAR
STARTCHAR 0056
ENCODING 86
SWIDTH 690 0
DWIDTH 58 0
BBX 74 65 2 -18
BITMAP
000000003FC000003F00
00000003FFF000000780
0000000FFFF8000003C0
0000003FFFFC000003C0
000000FE01FE000003C0
000001E0007E000003C0
00000780003E000003C0
00000E00001E000003C0
00001800001E00000780
00003000000E00000780
0000C000000E00000700
00018000000C00000F00
00010000000C00000E00
00020000000C00001C00
00040000000800003800
00080000000800003000
00180000000800006000
0030000000100000E000
0020000000100001C000
00400000001000030000
00C00000002000060000
008000000020000C0000
01000000004000180000
01000000004000300000
02000000008000600000
02000000008000800000
04000000010001000000
04000000010002000000
0C00000002000C000000
08000000020010000000
18000000040020000000
180000000400C0000000
10000000080100000000
30000000081600000000
30000000100800000000
30000000103800000000
60000000204C00000000
60000000618C00000000
60000000460E00000000
60000000C80E00000000
E0000001B00E00000000
E0000001E00E00000000
E0000003C00E00000000
E0000007800E00000000
E0000007000C00000000
E000000F000C00000000
F000001E000C00000000
F000001E001800000000
F000000C001800000000
70000004001000000000
70000000003000000000
78000000002000000000
78000000006000000000
3C00000000C000000000
3C000000008000000000
3E000000010000000000
1E000000020000000000
0F000000040000000000
0F800000180000000000
07C00000200000000000
03F00000C00000000000
01FC0003000000000000
007F803C000000000000
001FFFE0000000000000
0001FE00000000000000
ENDCHAR
STARTCHAR 0057
ENCODING 87
SWIDTH 988 0
DWIDTH 83 0
BBX 104 60 0 -6
BITMAP
0000000000000003FFFFF00000
0000000000000007FFFFFFE000
00000000000000000100001E00
000000000000000000E00001C0
00000000000000000018000030
0000000000000000000C000008
0000000000000000000E000004
00000007FC0000000007000002
000000FFFC0000000007000002
00000FFFF80000000007800001
00003FFFF00000000007800001
0001FFE0200000000003800001
0007FC00200000000003C00001
000FC000400000000003C00001
003E0000800000000003C00001
00780000800000000003C00001
00E00001000000000003C00001
01800002000000000003C00003
03000002000000000003C00002
04000004000000000003C00002
08000008000000000003C00006
10000008000000000003C00004
10000010000000000003C0000C
20000020000000000007800008
20000020000000000007800018
60000040000000000007800010
40000080000000000007800020
40000080000000000007000060
C000010000000000000F000040
C000030000000000000F000080
C000060000700000000E000180
C000040001F00000000E000300
C0000C0003F00000001E000200
C000180007F00000001C000400
C000180008F00000001C000800
4000300010F000000038001000
40007000207000000038002000
00006000407000000070004000
0000C000807000000070010000
0001C0010078000000E0020000
000180020078000000E00C0000
000380040078000000C0100000
000380080078000001C0000000
00070010007800000380000000
00070020007800000300000000
000E0040003800000700000000
000E0080003800000600000000
000E0100003800000C00000000
001C0200003800001800000000
001C0400003800001000000000
001C0800003C00003000000000
001C3000003C00006000000000
001C4000003C0000C000000000
000F8000003E00018000000000
00000000003E00020000000000
00000000001F00040000000000
00000000001F80180000000000
00000000000FC0600000000000
000000000007FF800000000000
000000000001FC000000000000
ENDCHAR
STARTCHAR 0058
ENCODING 88
SWIDTH 654 0
DWIDTH 55 0
BBX 63 46 0 0
BITMAP
000000003800003C
00000001F80000FE
00000007F80001FC
00000008F8000700
0000003078000C00
000000C078001000
0000010078002000
0000020078004000
00000C0078008000
0000100078010000
0000200078020000
0000400038040000
0001800038080000
0000000038100000
0000000038200000
0000000038400000
0000000038800000
0000000039000000
000000003A000000
000000003C000000
0000000038000000
0000000038000000
0000000038000000
0000000078000000
00000000B8000000
0000000138000000
0000000238000000
0000000238000000
0000000438000000
0000000838000000
0000001038000000
0000002038000000
0000004038000000
0000008038000000
0000010038000000
000002003C000000
000004003C000000
000018003C000000
000030003C000000
800060001E000000
800180001E000000
600700001F000000
783E00001FC00000
7FF800001FFFF800
3FE000000FFF8000
1F80000007F80000
ENDCHAR
STARTCHAR 0059
ENCODING 89
SWIDTH 357 0
DWIDTH 30 0
BBX 48 62 2 -15
BITMAP
0007E000000C
001FF800000E
0060FC00000F
01803E00000F
02001E00000F
04000F00000F
08000F00000F
10000700000F
30000780000E
30000780000E
60000780000E
60000380000C
E00003800018
E00003800018
600003800030
000003800020
000003800060
0000038000C0
000003800180
000003800300
000003800600
000003800C00
000003801800
000003803000
000003006000
00000300C000
000007038000
000007060000
0000070C0000
000007380000
000007600000
00000FC00000
00000F800000
00000F800000
00001F000000
000020000000
0000C0000000
000100000000
000200000000
000400000000
000800000000
003000000000
006000000000
00C000000000
018000000000
030000000000
060000000000
060000000000
0C0000000000
180000000000
180000000000
300000000000
700000000000
700000000000
600000000000
E00000000000
E00000000000
E00000000000
E00000000000
200000000000
200000000000
200000000000
ENDCHAR
STARTCHAR 005A
ENCODING 90
SWIDTH 547 0
DWIDTH 46 0
BBX 65 60 11 -7
BITMAP
0000000000000C0000
0000000000001C0000
0000000000001C0000
000000000000180000
000000000000100000
00001FE00000200000
00003FFFE000400000
00007FFFFFFF800000
0000FFFFFFFF000000
000080000002000000
000100000004000000
000200000008000000
000200000010000000
000400000020000000
000800000040000000
000800000080000000
001000000100000000
001000000200000000
000000000400000000
000000000800000000
000000001000000000
000000002000000000
000000004000000000
000000008000000000
000000010000000000
000000020000000000
000000040000000000
000000080000000000
00007FFFFFFE000000
000000600000000000
000000800000000000
000001000000000000
000002000000000000
000004000000000000
000008000000000000
000030000000000000
000040000000000000
000080000000000000
000100000000000000
000600000000000000
030800000000000000
039000000000000000
03E000000000000000
07F000000000000000
03F800000000000000
03FE00000000000000
0C7F80000000000000
183FC0000000000000
200FF0000000000000
C003FC000000000000
0001FF000000000000
00007FC00000000000
00001FF00000000080
000007FC0000000080
000000FF8000000100
0000003FE000000200
00000007FC00000400
00000000FFC0001800
000000000FFC00E000
00000000007FFF0000
ENDCHAR
STARTCHAR 005B
ENCODING 91
SWIDTH 404 0
DWIDTH 34 0
BBX 43 54 7 -4
BITMAP
00000007FFE0
0000000F8000
0000000F0000
0000000E0000
0000001E0000
0000001C0000
0000003C0000
000000380000
000000780000
000000700000
000000F00000
000000E00000
000001C00000
000003C00000
000003800000
000007800000
000007000000
00000F000000
00000E000000
00001E000000
00001C000000
00003C000000
000038000000
000078000000
000070000000
0000E0000000
0000E0000000
0001C0000000
0001C0000000
000380000000
000380000000
000700000000
000F00000000
000E00000000
001E00000000
001C00000000
003800000000
003800000000
007000000000
00F000000000
00E000000000
01E000000000
01C000000000
03C000000000
038000000000
078000000000
0F0000000000
0E0000000000
1E0000000000
1C0000000000
3C0000000000
380000000000
780000000000
FFFF00000000
ENDCHAR
STARTCHAR 005C
ENCODING 92
SWIDTH 369 0
DWIDTH 31 0
BBX 19 60 15 -14
BITMAP
800000
C00000
C00000
400000
600000
600000
200000
300000
300000
100000
180000
180000
180000
080000
0C0000
0C0000
040000
060000
060000
020000
030000
030000
030000
018000
018000
018000
008000
00C000
00C000
004000
006000
006000
006000
003000
003000
003000
001000
001800
001800
000800
000C00
000C00
000C00
000600
000600
000600
000200
000300
000300
000100
000180
000180
000180
0000C0
0000C0
0000C0
000040
000060
000060
000020
ENDCHAR
STARTCHAR 005D
ENCODING 93
SWIDTH 404 0
DWIDTH 34 0
BBX 44 54 1 -4
BITMAP
0000000FFFF0
0000000001E0
0000000001C0
0000000003C0
000000000380
000000000780
000000000700
000000000F00
000000001E00
000000001C00
000000003C00
000000003800
000000007800
000000007000
00000000F000
00000000E000
00000001C000
00000001C000
000000038000
000000078000
000000070000
0000000F0000
0000000E0000
0000001E0000
0000001C0000
000000380000
000000380000
000000700000
000000F00000
000000E00000
000001E00000
000001C00000
000003C00000
000003800000
000007800000
000007000000
00000F000000
00000E000000
00001C000000
00003C000000
000038000000
000078000000
000070000000
0000F0000000
0000E0000000
0001E0000000
0001C0000000
0003C0000000
000380000000
000780000000
000F00000000
000F00000000
001E00000000
FFFE00000000
ENDCHAR
STARTCHAR 005E
ENCODING 94
SWIDTH 404 0
DWIDTH 34 0
BBX 15 14 17 18
BITMAP
0002
0006
000A
0012
0022
0046
0086
0106
0606
0C06
1806
3006
6006
C006
ENDCHAR
STARTCHAR 005F
ENCODING 95
SWIDTH 500 0
DWIDTH 42 0
BBX 41 1 0 -5
BITMAP
FFFFFFFFFF80
ENDCHAR
STARTCHAR 0060
ENCODING 96
SWIDTH 226 0
DWIDTH 19 0
BBX 5 10 8 23
BITMAP
80
C0
C0
60
20
30
10
10
08
08
ENDCHAR
STARTCHAR 0061
ENCODING 97
SWIDTH 238 0
DWIDTH 20 0
BBX 26 19 2 -1
BITMAP
00002000
000FC000
0037C000
00418000
00818000
01030000
03020000
06060000
040C0000
0C0C0040
181C0080
18380100
30580300
30B80200
71380400
71381800
E2382000
FC38C000
F01F0000
ENDCHAR
STARTCHAR 0062
ENCODING 98
SWIDTH 261 0
DWIDTH 22 0
BBX 48 57 4 0
BITMAP
000000000078
0000000003FE
000000000C1F
00000000100F
000000006007
000000008007
000000030007
000000040006
000000080006
00000010000C
000000200008
000000400018
000000400030
000000800060
000001000040
0000020000C0
000002000180
000004000300
000008000600
000010000C00
000010001800
000020007000
00004000E000
0000C001C000
000080038000
000180060000
0003000C0000
000200380000
000600700000
000400E00000
000C03C00000
001807800000
00180E000000
00303C000000
003078000000
0060F0000000
00E3C0000000
00C780000000
01DF00000000
01BE00000000
03FF80000000
03FFFFF00000
078E00000000
070600000000
0E0400000000
1E0400000000
1C0400000000
380800000000
380800000000
701000000000
702000000000
604000000000
E04000000000
E10000000000
E20000000000
FC0000000000
700000000000
ENDCHAR
STARTCHAR 0063
ENCODING 99
SWIDTH 214 0
DWIDTH 18 0
BBX 20 18 4 0
BITMAP
001F00
006700
018300
030000
060000
0C0000
1C0000
180000
380010
300020
700040
700080
E00300
E00400
E00800
E03000
70C000
7F0000
ENDCHAR
STARTCHAR 0064
ENCODING 100
SWIDTH 226 0
DWIDTH 19 0
BBX 15 56 3 0
BITMAP
2000
7000
7000
3800
3800
1C00
1C00
0E00
0E00
0700
0700
0380
0380
0180
01C0
00C0
00E0
0060
0060
0070
0030
0030
0038
0018
0018
0008
000C
000C
000C
0004
0006
0006
0002
0002
0002
0002
0002
0002
000E
0032
0062
00C2
0182
0702
0602
0C06
1C04
3804
3808
7008
7010
6030
E020
E040
E180
7E00
ENDCHAR
STARTCHAR 0065
ENCODING 101
SWIDTH 214 0
DWIDTH 18 0
BBX 22 18 3 0
BITMAP
003F00
00C700
010600
030600
060C00
0C1800
182000
18C000
310000
7E000C
700010
E00020
E00040
E00080
E00300
E00C00
F83000
7FC000
ENDCHAR
STARTCHAR 0066
ENCODING 102
SWIDTH 178 0
DWIDTH 15 0
BBX 74 76 -31 -29
BITMAP
00000000000000001F00
0000000000000000FFC0
000000000000000107C0
00000000000000060180
00000000000000080180
00000000000000100100
00000000000000200000
00000000000000400000
00000000000000800000
00000000000001000000
00000000000003000000
00000000000006000000
0000000000000C000000
0000000000000C000000
00000000000018000000
00000000000038000000
00000000000070000000
00000000000060000000
000000000000E0000000
000000000000C0000000
000000000001C0000000
00000000000380000000
00000000000380000000
00000000000700000000
00000000000700000000
00000000000E00000000
00000000000E00000000
00000000001C00000000
00000000003C00000000
000000003FFFFF800000
00000000007800000000
00000000007000000000
0000000000F000000000
0000000000E000000000
0000000001E000000000
0000000001C000000000
0000000003C000000000
00000000038000000000
00000000070000000000
000000000F0000000000
000000000E0000000000
000000001E0000000000
000000001C0000000000
000000003C0000000000
00000000380000000000
00000000780000000000
00000000700000000000
00000000E00000000000
00000000E00000000000
00000001C00000000000
00000001C00000000000
00000003800000000000
00000003800000000000
00000007000000000000
00000006000000000000
0000000E000000000000
0000001C000000000000
00000018000000000000
00000038000000000000
00000030000000000000
00000060000000000000
00000060000000000000
000000C0000000000000
00000180000000000000
00000100000000000000
00000300000000000000
00000600000000000000
00000C00000000000000
00001800000000000000
00001000000000000000
80002000000000000000
80008000000000000000
C0010000000000000000
60060000000000000000
38180000000000000000
07E00000000000000000
ENDCHAR
STARTCHAR 0067
ENCODING 103
SWIDTH 273 0
DWIDTH 23 0
BBX 62 54 -33 -32
BITMAP
0000000000000180
0000000000000380
0000000000000380
000000000000FF00
0000000000010600
0000000000040E00
0000000000080C00
0000000000101C00
0000000000203800
0000000000603800
0000000000C07000
000000000180E000
000000000300E004
000000000701C008
000000000602C010
000000000E058020
000000000C0900C0
000000001C130100
000000001C660600
000000001F861800
000000001E0CE000
00000000000F0000
0000000000380000
0000000001D00000
000000001E300000
00000000E0600000
0000000F00600000
000000F000C00000
0000070000800000
0000780001800000
0001800003000000
000E000003000000
0030000006000000
00C000000C000000
038000001C000000
0600000018000000
1C00000030000000
3800000070000000
30000000E0000000
70000000C0000000
6000000180000000
E000000380000000
C000000700000000
C000000E00000000
C000001C00000000
C000003800000000
C000007000000000
400000E000000000
600003C000000000
2000078000000000
10001E0000000000
0800780000000000
0603E00000000000
01FF000000000000
ENDCHAR
STARTCHAR 0068
ENCODING 104
SWIDTH 273 0
DWIDTH 23 0
BBX 93 98 -38 -41
BITMAP
000000000000000000000F80
000000000000000000003FE0
00000000000000000000FFF0
00000000000000000003C070
000000000000000000060010
0000000000000000000C0008
000000000000000000100008
000000000000000000200000
000000000000000000400000
000000000000000001800000
000000000000000003000000
000000000000000006000000
000000000000000004000000
000000000000000008000000
000000000000000010000000
000000000000000020000000
000000000000000040000000
0000000000000000C0000000
000000000000000180000000
000000000000000100000000
000000000000000300000000
000000000000000600000000
000000000000000C00000000
000000000000000C00000000
000000000000001800000000
000000000000003000000000
000000000000007000000000
000000000000006000000000
00000000000000C000000000
00000000000001C000000000
000000000000018000000000
000000000000030000000000
000000000000070000000000
000000000000060000000000
0000000000000E0000000000
0000000000001C0000000000
000000000000180000000000
000000000000380000000000
00000000000030C000000000
00000000000071C000000000
000000000000E7C000000000
000000000000C9C000000000
000000000001D18000000000
000000000001A18000000000
000000000003C38000000000
000000000007830010000000
000000000007070020000000
00000000000E070040000000
00000000000C060080000000
00000000001C0E0300000000
0000000000180C0400000000
0000000000381C1800000000
000000000070186000000000
000000000070198000000000
0000000000E0360000000000
0000000000C0380000000000
000000000180E00000000000
000000000003600000000000
00000000001CC00000000000
000000000060C00000000000
000000000381800000000000
000000000C01800000000000
000000007003000000000000
000000038003000000000000
0000000C0006000000000000
000000700004000000000000
00000180000C000000000000
000006000008000000000000
000018000018000000000000
000060000010000000000000
000180000020000000000000
000300000060000000000000
000C00000040000000000000
001000000080000000000000
006000000100000000000000
00C000000100000000000000
018000000200000000000000
030000000400000000000000
060000000400000000000000
0C0000000800000000000000
180000001000000000000000
380000002000000000000000
300000004000000000000000
700000008000000000000000
600000010000000000000000
600000020000000000000000
E00000020000000000000000
E00000040000000000000000
E00000180000000000000000
E00000200000000000000000
E00000400000000000000000
F00000800000000000000000
700001000000000000000000
780006000000000000000000
3C0018000000000000000000
1F00E0000000000000000000
0FFF80000000000000000000
03F800000000000000000000
ENDCHAR
STARTCHAR 0069
ENCODING 105
SWIDTH 178 0
DWIDTH 15 0
BBX 19 30 3 0
BITMAP
000380
000380
000300
000000
000000
000000
000000
000000
000000
000000
000000
00C000
00C000
01C000
038000
030000
060000
060020
0C0040
1C0080
180080
380100
300600
700800
601000
E02000
E0C000
F30000
FC0000
200000
ENDCHAR
STARTCHAR 006A
ENCODING 106
SWIDTH 202 0
DWIDTH 17 0
BBX 56 63 -29 -32
BITMAP
00000000000700
00000000000700
00000000000F00
00000000000C00
00000000000000
00000000000000
00000000000000
00000000000000
00000000000000
00000000000000
00000000000000
00000000000000
00000000000000
00000000078000
000000003F8000
00000000478000
00000001838001
00000002030002
0000000003000C
00000000030010
00000000020060
00000000060180
00000000060200
00000000040C00
00000000041000
000000000C6000
00000000098000
000000001F0000
000000001C0000
00000000380000
00000000F00000
00000001E00000
00000000C00000
00000000800000
00000000800000
00000001000000
00000001000000
00000002000000
00000002000000
00000004000000
00000008000000
00000008000000
00000010000000
00000010000000
00000020000000
00000040000000
00000040000000
00000080000000
00000100000000
00000100000000
00000200000000
00000400000000
80000800000000
80001000000000
80001000000000
80006000000000
C000C000000000
C0018000000000
E0060000000000
F01C0000000000
7FF80000000000
3FE00000000000
0F000000000000
ENDCHAR
STARTCHAR 006B
ENCODING 107
SWIDTH 214 0
DWIDTH 18 0
BBX 55 81 1 -24
BITMAP
000000000007E0
00000000003FF0
0000000000E038
0000000001000C
00000000060004
00000000080000
00000000100000
00000000600000
00000000800000
00000001000000
00000002000000
00000002000000
00000004000000
00000008000000
00000010000000
00000020000000
00000020000000
00000040000000
00000080000000
00000180000000
00000100000000
00000200000000
00000600000000
00000C00000000
00000800000000
00001800000000
00003000000000
00003000000000
00006000000000
0000C000000000
0000C000000000
00018000000000
00038000000000
00030000000000
00070000000000
000E0000000000
000C0000000000
001C0000000000
00180000000000
00387000000000
0071F000000000
00767000000000
00E86000000000
00F06000000000
01E0C000000000
03C18000000000
03820000000000
070C0000000000
0F300000000000
0FC00000000000
1FE00000000000
1CE00000000000
38F00000000000
70700000000000
70780000000000
E03C0000000000
801C0000000000
001E0000000000
000F0000000000
00070000000000
00078000000000
0003C000000000
0001C000000000
0000E000000000
0000F000000000
00007800000000
00003800000000
00001C00000000
00000E00000000
00000700000000
00000780000000
000003C0000000
000001E0000000
00000070000000
00000038000000
0000001E000000
0000000F000002
00000003C00004
00000000F00018
000000003E00E0
0000000007FF00
ENDCHAR
STARTCHAR 006C
ENCODING 108
SWIDTH 214 0
DWIDTH 18 0
BBX 40 55 3 -4
BITMAP
000000000C
000000003E
00000000DE
000000030F
000000040F
000000080F
0000001007
0000002007
0000002007
0000004007
0000008007
0000010007
0000020006
0000020006
000004000E
000008000C
0000180018
0000300018
0000200030
0000600060
0000C000C0
0001800180
0001800300
0003000600
0007000800
0006001000
000C006000
001C008000
0018030000
0038040000
0070100000
0070600000
00E3800000
00CC000000
01F0000000
0380000000
1F80000000
0F00000000
0F00000000
0E00000000
0C00000000
1C00000000
1800000000
3800040000
3000080000
7000100000
7000200000
6000800000
E001000000
E002000000
E00C000000
E010000000
F0E0000000
7F80000000
3C00000000
ENDCHAR
STARTCHAR 006D
ENCODING 109
SWIDTH 345 0
DWIDTH 29 0
BBX 35 21 2 -4
BITMAP
0060000000
0060000000
00E1C1C000
01C3C7C000
018F9B8000
0393A38000
0323430000
07C7870000
0707060020
0E0E0C0040
1E0C0C0040
1C18180080
3838180100
3030380200
6070300400
60E0700800
C0C0E01000
C000E06000
0000E08000
0000F30000
0000FC0000
ENDCHAR
STARTCHAR 006E
ENCODING 110
SWIDTH 273 0
DWIDTH 23 0
BBX 26 21 2 -3
BITMAP
0060E000
00C1E000
01C2E000
01CCC000
0391C000
03A18000
07438000
07830000
07070000
0F060000
0E0E0000
1C0C0000
381C0000
381C0000
70180000
60380040
E0380080
C0380100
003C0600
003C1800
001FE000
ENDCHAR
STARTCHAR 006F
ENCODING 111
SWIDTH 238 0
DWIDTH 20 0
BBX 26 19 3 0
BITMAP
000C0000
003E0000
004F0000
018FFFC0
020E0000
040E0000
0C0C0000
180C0000
300C0000
70180000
70180000
E0300000
E0200000
E0600000
E0400000
E0800000
E1000000
FE000000
20000000
ENDCHAR
STARTCHAR 0070
ENCODING 112
SWIDTH 261 0
DWIDTH 22 0
BBX 49 63 -20 -42
BITMAP
00000000380000
00000000380000
00000000700000
00000000E00000
00000000E20000
00000001C38000
00000001C3C000
0000000383C000
0000000303C000
00000007038000
00000006078000
0000000E070080
0000000C0E0100
000000180C0200
00000018180C00
00000030303000
0000002060C000
00000060870000
00000041380000
000000C7C00000
0000019E000000
000001F0000000
00001F80000000
0000FE00000000
0000E600000000
00000400000000
00000C00000000
00000800000000
00001000000000
00003000000000
00002000000000
00006000000000
00004000000000
00008000000000
00018000000000
00010000000000
00030000000000
00020000000000
00040000000000
000C0000000000
00080000000000
00180000000000
00300000000000
00300000000000
00600000000000
00400000000000
00C00000000000
01800000000000
01800000000000
03000000000000
07000000000000
06000000000000
0E000000000000
0C000000000000
1C000000000000
38000000000000
38000000000000
70000000000000
70000000000000
F0000000000000
F0000000000000
FFFE0000000000
FF000000000000
ENDCHAR
STARTCHAR 0071
ENCODING 113
SWIDTH 273 0
DWIDTH 23 0
BBX 39 59 -14 -39
BITMAP
000000000E
000000000E
000000001C
00000000FC
0000000778
0000000870
00000020F0
000000C1E0
00000181C0
00000303C0
0000060780
00000C0F80
00001C0700
0000383E00
0000302E00
0000705C00
00006099F0
0000E13818
0000E23004
0000EC6004
0000706002
000000C002
000001C002
0000018002
0000030002
0000030002
0000060002
0000060002
00000C0002
00000C0004
0000180004
0000180004
0000300008
0000600008
0000600010
0000C00010
0000C00020
0001800040
0001800040
0003000080
0007000100
0006000200
000E000400
000C000800
0018001000
0018002000
0030004000
0070008000
0060030000
00E0040000
00C0080000
0180300000
0380C00000
0303000000
041E000000
08F8000000
1FE0000000
FF00000000
7800000000
ENDCHAR
STARTCHAR 0072
ENCODING 114
SWIDTH 214 0
DWIDTH 18 0
BBX 25 22 3 0
BITMAP
00000E00
00003F80
0000FF80
00018380
00C40100
00C80100
01D00000
01A00000
03C00000
03800000
07000000
0F000000
0E000000
1C000000
1C000000
38000000
70000000
70000000
E0000000
E0000000
C0000000
C0000000
ENDCHAR
STARTCHAR 0073
ENCODING 115
SWIDTH 190 0
DWIDTH 16 0
BBX 32 33 -13 -12
BITMAP
0000001F
0000003F
000000C0
00000180
00000180
00000300
00000700
00000700
00000700
00000700
00000700
00000F00
00000F00
00000E00
00000E00
00000E00
00000E00
00000E00
00000E00
00001C00
00001C00
00001C00
00003800
00003800
00003000
00006000
0000C000
80008000
80010000
40060000
70180000
3FE00000
1F000000
ENDCHAR
STARTCHAR 0074
ENCODING 116
SWIDTH 214 0
DWIDTH 18 0
BBX 24 29 4 1
BITMAP
000080
000100
000200
000400
000C00
000800
001000
003000
006000
004000
00C000
018000
3FFFFF
030000
060000
060000
0C0000
0C0000
1C0000
380000
380000
700000
700000
F00000
E00000
E00600
E01800
F0E000
FF0000
ENDCHAR
STARTCHAR 0075
ENCODING 117
SWIDTH 250 0
DWIDTH 21 0
BBX 19 22 3 -3
BITMAP
00E000
01C000
018100
038180
070300
070700
0E0600
0C0C00
1C1C00
183800
385800
307000
70B000
617000
E26000
E4E000
F8E000
E0C000
01C020
01E0C0
01FF00
006000
ENDCHAR
STARTCHAR 0076
ENCODING 118
SWIDTH 273 0
DWIDTH 23 0
BBX 21 23 4 1
BITMAP
000038
000038
000038
000038
07FC30
0FF830
1FE070
206060
408060
8100C0
820080
040180
040100
080200
100600
300400
600800
601000
E02000
E04000
E18000
FE0000
780000
ENDCHAR
STARTCHAR 0077
ENCODING 119
SWIDTH 345 0
DWIDTH 29 0
BBX 35 19 3 1
BITMAP
0000020000
0020070000
00C0070000
01C0070000
0383030000
0303838020
0707038040
060706C080
0C0E047700
1C0C040800
181C040000
1818080000
3038080000
3078100000
70B0200000
6130200000
6230400000
F430800000
781F000000
ENDCHAR
STARTCHAR 0078
ENCODING 120
SWIDTH 273 0
DWIDTH 23 0
BBX 23 18 2 0
BITMAP
00F80E
00F830
00F040
00F180
00F200
00F400
006800
007000
006000
006000
00E000
00E000
016000
02E000
04F000
18F800
F07FE0
C03E00
ENDCHAR
STARTCHAR 0079
ENCODING 121
SWIDTH 250 0
DWIDTH 21 0
BBX 40 66 -16 -46
BITMAP
0000000006
0000000007
000000000F
000000400E
000000E01C
000000E018
000001C030
000001C060
0000018040
0000018080
0000038180
0000030300
0000070200
0000070400
0000060800
00000E1000
00000E2000
00000C4000
00001C4000
00001C8000
0000030000
0000020000
0000020000
0000040000
0000080000
0000100000
0000200000
0000200000
0000400000
0000800000
0000800000
0001000000
0002000000
0004000000
0004000000
0008000000
0010000000
0010000000
0020000000
0040000000
0040000000
0080000000
0180000000
0100000000
0300000000
0600000000
0400000000
0C00000000
1C00000000
1800000000
3800000000
3000000000
7000000000
7000000000
7000000000
E000000000
E000000000
E000000000
E000000000
E000000000
E000000000
6000000000
7000000000
1000000000
0800000000
0400000000
ENDCHAR
STARTCHAR 007A
ENCODING 122
SWIDTH 261 0
DWIDTH 22 0
BBX 47 29 -2 -11
BITMAP
0007FFF00000
000FFFE00000
003FFFC00000
000003800000
000007000000
00000C000000
000018000000
000030000000
000060000000
0000C0000000
000300000000
000600000000
3FFC00000000
43FC00000000
C1FE00000000
C07F80000000
603FC0000000
3FFFF0000000
001FF8000000
0007FC000000
0001FF000000
0000FF800000
00003FE00000
00000FF00000
000003FC0000
000000FF0002
0000003FC004
00000007F038
000000007FC0
ENDCHAR
STARTCHAR 007B
ENCODING 123
SWIDTH 440 0
DWIDTH 37 0
BBX 39 56 13 -5
BITMAP
000000003E
00000003E0
0000000780
0000000F00
0000001E00
0000003C00
0000007800
0000007800
000000F000
000000E000
000001C000
000001C000
0000038000
0000038000
0000070000
0000060000
00000C0000
00000C0000
0000180000
0000300000
0000400000
0000800000
0003000000
07FC000000
000C000000
0004000000
0004000000
0004000000
0004000000
0008000000
0008000000
0018000000
0030000000
0030000000
0060000000
00C0000000
01C0000000
0180000000
0380000000
0700000000
0600000000
0E00000000
1C00000000
1C00000000
3800000000
3800000000
7000000000
7000000000
E000000000
E000000000
E000000000
E000000000
6000000000
7000000000
3800000000
0F00000000
ENDCHAR
STARTCHAR 007C
ENCODING 124
SWIDTH 226 0
DWIDTH 19 0
BBX 2 84 12 -21
BITMAP
C0
C0
C0
C0
C0
C0
C0
C0
C0
C0
C0
C0
C0
C0
C0
C0
C0
C0
C0
C0
C0
C0
C0
C0
C0
C0
C0
C0
C0
C0
C0
C0
C0
C0
C0
C0
C0
C0
C0
C0
C0
C0
C0
C0
C0
C0
C0
C0
C0
C0
C0
C0
C0
C0
C0
C0
C0
C0
C0
C0
C0
C0
C0
C0
C0
C0
C0
C0
C0
C0
C0
C0
C0
C0
C0
C0
C0
C0
C0
C0
C0
C0
C0
C0
ENDCHAR
STARTCHAR 007D
ENCODING 125
SWIDTH 440 0
DWIDTH 37 0
BBX 37 55 1 -4
BITMAP
0000000180
0000000060
0000000020
0000000030
0000000038
0000000038
0000000078
0000000078
00000000F0
00000000F0
00000001E0
00000001E0
00000003C0
00000007C0
0000000780
0000000F00
0000001F00
0000001E00
0000003C00
0000003800
0000007800
0000007000
000000E000
000000E000
000000C000
0000004000
0000002000
0000001FF8
0000006000
0000018000
0000030000
00000E0000
00001C0000
0000380000
0000380000
0000700000
0000F00000
0000E00000
0001E00000
0001C00000
0003C00000
0003800000
0007800000
000F000000
000F000000
001E000000
003C000000
003C000000
0078000000
00F0000000
01E0000000
0380000000
0F00000000
3800000000
C000000000
ENDCHAR
STARTCHAR 007E
ENCODING 126
SWIDTH 404 0
DWIDTH 34 0
BBX 21 5 11 9
BITMAP
1F8010
3FE038
60F870
C03FE0
400780
ENDCHAR
STARTCHAR 00A0
ENCODING 160
SWIDTH 202 0
DWIDTH 17 0
BBX 0 0 0 0
BITMAP
ENDCHAR
STARTCHAR 00A1
ENCODING 161
SWIDTH 214 0
DWIDTH 18 0
BBX 20 34 0 -14
BITMAP
000070
0000F0
0000F0
0000F0
000060
000000
000000
000000
000080
000080
000100
000100
000100
000200
000200
000400
000400
000C00
000800
001800
001800
003000
003000
006000
006000
00C000
01C000
018000
038000
078000
070000
0E0000
3E0000
FC0000
ENDCHAR
STARTCHAR 00A2
ENCODING 162
SWIDTH 369 0
DWIDTH 31 0
BBX 28 54 7 -14
BITMAP
00000010
00000010
00000020
00000020
00000040
00000040
00000080
00000080
00000100
00000FC0
00007FE0
000184F0
000604F0
000C0860
00180840
00701000
00E02000
01E02000
03C04000
03C04000
07808000
0F810000
0F010000
1F020000
3E020000
3E040060
7E040040
7C080100
7C080200
FC100400
FC101800
FC202000
FC40C000
FE470000
7FF80000
1FC00000
01000000
01000000
02000000
02000000
04000000
04000000
08000000
08000000
10000000
10000000
20000000
20000000
20000000
40000000
40000000
C0000000
80000000
80000000
ENDCHAR
STARTCHAR 00A3
ENCODING 163
SWIDTH 476 0
DWIDTH 40 0
BBX 39 38 -1 0
BITMAP
00000000FC
00000007FE
000000181E
0000002004
0000004004
0000008000
0000010000
0000020000
0000020000
0000040000
00000C0000
0000180000
0000100000
0000300000
0000200000
0000600000
0000C00000
007FFFFC00
0001800000
0001000000
0002000000
0004000000
0004000000
0008000000
0010000000
0020000000
0040000000
00FF000000
0107E00000
0200F80000
04007C0002
18003E0004
30001F8008
700007C018
E00003F070
E00001FFC0
C00000FF80
8000003E00
ENDCHAR
STARTCHAR 00A4
ENCODING 164
SWIDTH 500 0
DWIDTH 42 0
BBX 35 28 8 5
BITMAP
0000FF8000
080701F060
0408007880
0330003D00
00C0001E00
0080000E00
0100000600
0300000600
0200000200
0600000200
0400000200
0400000200
0800000200
0800000200
0800000200
0800000200
0800000600
0800000600
0800000400
0800000C00
0C00001C00
0C00001C00
1E00003C00
1200007200
210000C300
6080038180
40701E0080
800FF00040
ENDCHAR
STARTCHAR 00A5
ENCODING 165
SWIDTH 440 0
DWIDTH 37 0
BBX 47 40 4 1
BITMAP
00000000000E
00000000003C
000000000070
003F000000E0
01FFC0000380
0603E0000700
0800F0000C00
2000F0001800
400078002000
80007800C000
000038018000
000038020000
000038040000
000038080000
000038300000
000030400000
000030800000
000071000000
000072000000
0000EC000000
00FFFFF00000
0001E0000000
0001E0000000
0001C0000000
0003C0000000
000380000000
0FFFFF800000
000700000000
000E00000000
000E00000000
001C00000000
001C00000000
003800000000
003800000000
007000000000
00F000000000
00E000000000
01C000000000
03E000000000
FFFF00000000
ENDCHAR
STARTCHAR 00A6
ENCODING 166
SWIDTH 226 0
DWIDTH 19 0
BBX 2 71 17 -15
BITMAP
C0
C0
C0
C0
C0
C0
C0
C0
C0
C0
C0
C0
C0
C0
C0
C0
C0
C0
C0
C0
C0
C0
C0
C0
C0
C0
C0
C0
C0
00
00
00
00
00
00
00
00
00
00
00
00
00
C0
C0
C0
C0
C0
C0
C0
C0
C0
C0
C0
C0
C0
C0
C0
C0
C0
C0
C0
C0
C0
C0
C0
C0
C0
C0
C0
C0
C0
ENDCHAR
STARTCHAR 00A7
ENCODING 167
SWIDTH 297 0
DWIDTH 25 0
BBX 31 42 -1 -5
BITMAP
00000078
000003FE
0000061E
00000806
00001004
00003004
00002000
00002000
00006000
00006000
0000E000
00016000
00027000
00043000
000C3800
000C1C00
001C1C00
001C0E00
001E0600
001F0700
000F0300
000F8300
0007C100
0007C100
0003E100
0003F100
0001F100
0000F200
0000FC00
0000FC00
80007800
80007800
80007800
80007000
80007000
C0006000
C000E000
E001C000
70038000
7C070000
3FFC0000
0FE00000
ENDCHAR
STARTCHAR 00A8
ENCODING 168
SWIDTH 226 0
DWIDTH 19 0
BBX 10 4 5 26
BITMAP
71C0
71C0
F3C0
C300
ENDCHAR
STARTCHAR 00A9
ENCODING 169
SWIDTH 404 0
DWIDTH 34 0
BBX 27 25 12 14
BITMAP
000FF800
00700600
01800100
06000080
080FF840
10181C40
10700C60
20600820
20C00020
41C00020
41C00020
41800020
83800020
83800040
83800040
83800040
83800080
83800080
C1800100
41C04200
60608600
201F0800
10001000
0C006000
03EF8000
ENDCHAR
STARTCHAR 00AA
ENCODING 170
SWIDTH 273 0
DWIDTH 23 0
BBX 22 26 6 10
BITMAP
000020
000060
0000E0
0000E0
0001C0
000FC0
001380
006380
008700
010700
030E00
061E00
0C1C00
1C2C00
184C00
38DC00
719800
731800
761804
FC3808
F83810
F03820
003840
003880
003F00
001C00
ENDCHAR
STARTCHAR 00AB
ENCODING 171
SWIDTH 333 0
DWIDTH 28 0
BBX 19 21 10 -2
BITMAP
000420
000840
003080
004100
008600
030C00
041000
082000
304000
40C000
E1C000
E1E000
60E000
60E000
707000
707000
307000
383800
383800
1C3800
180000
ENDCHAR
STARTCHAR 00AC
ENCODING 172
SWIDTH 404 0
DWIDTH 34 0
BBX 18 8 11 7
BITMAP
7FFFC0
FFFF80
000180
000300
000300
000700
000600
000E00
ENDCHAR
STARTCHAR 00AD
ENCODING 173
SWIDTH 321 0
DWIDTH 27 0
BBX 14 1 12 10
BITMAP
FFFC
ENDCHAR
STARTCHAR 00AE
ENCODING 174
SWIDTH 404 0
DWIDTH 34 0
BBX 27 27 12 13
BITMAP
0007E000
00381C00
00C00300
03000080
040FF0C0
080C3840
101C1C60
20181C20
20181C20
40303820
40303820
4061E020
407F8020
80DC0020
80CE0040
81860040
81870040
83038080
8301C080
C700C100
4600E100
40000200
20000400
10001800
0C002000
0301C000
00FE0000
ENDCHAR
STARTCHAR 00AF
ENCODING 175
SWIDTH 226 0
DWIDTH 19 0
BBX 7 1 6 27
BITMAP
FE
ENDCHAR
STARTCHAR 00B0
ENCODING 176
SWIDTH 226 0
DWIDTH 19 0
BBX 8 8 17 31
BITMAP
1E
61
81
81
81
82
C2
7C
ENDCHAR
STARTCHAR 00B1
ENCODING 177
SWIDTH 404 0
DWIDTH 34 0
BBX 24 20 6 0
BITMAP
000038
000070
000060
0000C0
0000C0
000180
000180
01FFFF
03FFFE
000600
000600
000C00
000C00
001800
001800
003000
001000
000000
7FFFE0
FFFFC0
ENDCHAR
STARTCHAR 00B2
ENCODING 178
SWIDTH 250 0
DWIDTH 21 0
BBX 20 17 10 19
BITMAP
000800
007F00
018700
000700
000700
000600
000600
000C00
001000
002000
00C000
010000
020000
0F0000
3FC010
47FC20
80FFC0
ENDCHAR
STARTCHAR 00B3
ENCODING 179
SWIDTH 250 0
DWIDTH 21 0
BBX 16 19 12 19
BITMAP
001C
007F
0187
0003
0002
0004
0018
0060
0060
0070
0078
0038
0038
0018
0030
8020
C040
7F80
3800
ENDCHAR
STARTCHAR 00B4
ENCODING 180
SWIDTH 226 0
DWIDTH 19 0
BBX 14 11 2 23
BITMAP
0004
0018
0030
0060
0080
0300
0600
0800
1000
6000
8000
ENDCHAR
STARTCHAR 00B5
ENCODING 181
SWIDTH 404 0
DWIDTH 34 0
BBX 31 39 0 -21
BITMAP
00000002
0000700C
0000601C
0000C018
0000C030
00018030
00038060
000300C0
000700C0
00060180
000E0180
001C0380
001C0702
00381F04
00582E04
00784E08
00B88E30
00BD0E40
011E0780
01000000
02000000
02000000
04000000
04000000
08000000
08000000
10000000
10000000
20000000
20000000
60000000
60000000
40000000
C0000000
C0000000
C0000000
C0000000
C0000000
40000000
ENDCHAR
STARTCHAR 00B6
ENCODING 182
SWIDTH 500 0
DWIDTH 42 0
BBX 34 41 8 -17
BITMAP
00000001C0
000000FE00
00000FF800
00007FF000
0001FFE000
0003FFE000
000FFFC000
001FFFC000
001FFF8000
003FFF8000
007FFF0000
007FFF0000
00FFFE0000
00FFFE0000
01FFFC0000
01FFFC0000
01FFF80000
01FFF80000
01FFF00000
01FFF00000
01FFE00000
00FFE00000
007FC00000
001FC00000
0000800000
0001800000
0001000000
0001000000
0002000000
0002000000
0004000000
0004000000
0008000000
0008000000
0010000000
6010000000
E020000000
E040000000
E080000000
7100000000
3E00000000
ENDCHAR
STARTCHAR 00B7
ENCODING 183
SWIDTH 214 0
DWIDTH 18 0
BBX 5 6 11 13
BITMAP
38
78
F8
F0
F0
E0
ENDCHAR
STARTCHAR 00B8
ENCODING 184
SWIDTH 226 0
DWIDTH 19 0
BBX 8 12 5 -12
BITMAP
01
06
0C
1C
1F
0F
07
06
08
10
60
80
ENDCHAR
STARTCHAR 00B9
ENCODING 185
SWIDTH 250 0
DWIDTH 21 0
BBX 16 16 12 21
BITMAP
01FF
0007
000E
000E
001C
001C
0038
0030
0070
0060
00E0
00C0
01C0
0380
0780
F87C
ENDCHAR
STARTCHAR 00BA
ENCODING 186
SWIDTH 238 0
DWIDTH 20 0
BBX 15 21 9 12
BITMAP
000C
003E
004E
008E
010E
020E
060E
0C0C
080C
181C
3018
3018
7010
6030
6020
E040
E040
E080
E100
E200
7C00
ENDCHAR
STARTCHAR 00BB
ENCODING 187
SWIDTH 357 0
DWIDTH 30 0
BBX 21 20 7 0
BITMAP
038600
03CF00
01E780
00E780
00F3C0
0079C0
0038E0
003CF0
001E78
000E38
000830
003060
0040C0
008100
010200
060400
080800
101000
606000
C04000
ENDCHAR
STARTCHAR 00BC
ENCODING 188
SWIDTH 595 0
DWIDTH 50 0
BBX 40 42 9 -3
BITMAP
0000000003
0000000006
000000000C
003FF00018
0000E00030
0000C00060
0001C000C0
0001800180
0003800100
0007000200
0006000400
000E000800
000C001000
001C002000
0038004000
0038008000
0070018000
1FFFC30000
0000060000
0000040000
0000080000
0000100180
0000200380
0000400380
0000800310
0001000330
0002000660
0004000460
000C0018C0
00180021C0
003000C1C0
0060010380
00C0060380
00801FFFF8
0100000E00
0200000C00
0400001800
0C00001800
1800000800
3000000000
6000000000
C000000000
ENDCHAR
STARTCHAR 00BD
ENCODING 189
SWIDTH 595 0
DWIDTH 50 0
BBX 42 44 8 -4
BITMAP
0000000000C0
000000000180
000000000300
003FF0000600
000070000400
0000E0000800
0000E0001000
0001C0002000
000180004000
00038000C000
000700018000
000700030000
000E00060000
000C000C0000
001C00180000
003800300000
003800200000
0FFFE0400000
000000800000
000001000000
000002000000
000004000000
000008000000
0000107F8000
00002003C000
00004001C000
0000C001C000
000180018000
000300018000
000600020000
000C00040000
000800080000
001000300000
002000400000
004001800000
008003C00000
018007F80000
03001FFF8000
0600203FF800
0C0000000000
180000000000
300000000000
600000000000
C00000000000
ENDCHAR
STARTCHAR 00BE
ENCODING 190
SWIDTH 595 0
DWIDTH 50 0
BBX 41 41 8 -3
BITMAP
0001F0000180
000238000200
000038000400
000030000800
000060001000
0000C0002000
000300004000
000700008000
000700010000
000700020000
000700040000
000700080000
000700100000
000600200000
080600400000
080800800000
0E3001000000
07C002000000
000004000000
000008000000
00001000C000
00002001C000
00004001C400
0000C0018800
000180011000
000300023000
000600047000
000C00186000
00180020E000
003000C1C000
00600301C000
00C03FFFFC00
018000070000
030000060000
0600000C0000
0C00000C0000
180000040000
300000000000
700000000000
E00000000000
800000000000
ENDCHAR
STARTCHAR 00BF
ENCODING 191
SWIDTH 321 0
DWIDTH 27 0
BBX 25 39 -1 -19
BITMAP
00000180
00000780
00000F80
00000F00
00000000
00000000
00000000
00000F80
00000F80
00000F80
00001F80
00001F80
00003F80
00003F00
0000FF00
0001FE00
0007FC00
000FF800
003FE000
007F8000
01FE0000
03F80000
07E00000
0F800000
1F000000
3C000000
78000000
60000000
E0000000
C0000000
80000000
80000000
80000000
80002000
80004000
40008000
20010000
180C0000
07F00000
ENDCHAR
STARTCHAR 00C0
ENCODING 192
SWIDTH 726 0
DWIDTH 61 0
BBX 69 61 -4 0
BITMAP
000000000000000800
000000000000000800
000000000000000C00
000000000000000C00
000000000000000600
000000000000000200
000000000000000200
000000000000000100
000000000000000100
000000000000000100
000000000000000000
000000000000000000
000000000000000000
000000000000000000
0000000007F8000038
000000001FFF800078
000000007FFFF000F8
00000000FFFFFF01F8
00000001FFFFFFFF80
00000003FFFFFFF300
00000007C000000600
000000070000000600
0000000E0000000C00
0000000C0000001C00
000000080000003C00
00000018000000F800
00000010000000F800
000000100000017800
000000100000027000
00000000000004F000
00000000000008F000
00000000000009F000
00000000000011E000
00000000000021E000
00000000000043E000
00000000000083C000
00000000000103C000
00000000000207C000
00000000000407C000
000000000004078000
060000000008078000
0400000000100F8000
0800000000200F8000
1000000000400F8000
3000000007FFFF0000
3000000001001F0000
6000000002001F0000
600000000C001F0000
6000000010001F0000
E000000020001E0000
E000000040001E0000
E000000180001E0000
F000000200001E0000
F000000C00001E0000
7000001000001E0000
7800006000001E0000
7C00018000001E0000
3F00060000001E0000
1FF9F80000001FFC00
0FFFC00000001FE000
01FE000000000F0000
ENDCHAR
STARTCHAR 00C1
ENCODING 193
SWIDTH 726 0
DWIDTH 61 0
BBX 75 60 -4 0
BITMAP
00000000000000000020
00000000000000000060
000000000000000000C0
00000000000000000300
00000000000000000600
00000000000000000C00
00000000000000001000
00000000000000002000
0000000000000000C000
00000000000000010000
00000000000000020000
00000000000000000000
00000000000000000000
0000000007F800003800
000000001FFF80007800
000000007FFFF000F800
00000000FFFFFF01F800
00000001FFFFFFFF8000
00000003FFFFFFF30000
00000007C00000060000
00000007000000060000
0000000E0000000C0000
0000000C0000001C0000
000000080000003C0000
00000018000000F80000
00000010000000F80000
00000010000001780000
00000010000002700000
00000000000004F00000
00000000000008F00000
00000000000009F00000
00000000000011E00000
00000000000021E00000
00000000000043E00000
00000000000083C00000
00000000000103C00000
00000000000207C00000
00000000000407C00000
00000000000407800000
06000000000807800000
0400000000100F800000
0800000000200F800000
1000000000400F800000
3000000007FFFF000000
3000000001001F000000
6000000002001F000000
600000000C001F000000
6000000010001F000000
E000000020001E000000
E000000040001E000000
E000000180001E000000
F000000200001E000000
F000000C00001E000000
7000001000001E000000
7800006000001E000000
7C00018000001E000000
3F00060000001E000000
1FF9F80000001FFC0000
0FFFC00000001FE00000
01FE000000000F000000
ENDCHAR
STARTCHAR 00C2
ENCODING 194
SWIDTH 726 0
DWIDTH 61 0
BBX 73 60 -4 1
BITMAP
00000000000000000080
00000000000000000380
00000000000000000580
00000000000000000980
00000000000000001180
00000000000000002180
00000000000000004180
00000000000000008180
00000000000000010180
00000000000000000180
00000000000000000100
00000000000000000000
00000000000000000000
0000000007F800001800
000000001FFF80007800
000000007FFFF800C000
00000000FFFFFF010000
00000001FFFFFFFE0000
00000003FFFFFFF20000
00000007C00000020000
00000007000000040000
0000000E0000000C0000
0000000C0000001C0000
00000008000000380000
00000018000000780000
00000010000000F80000
00000010000001700000
00000010000002700000
00000000000004F00000
00000000000008E00000
00000000000009E00000
00000000000011E00000
00000000000021E00000
00000000000043C00000
00000000000083C00000
00000000000103C00000
00000000000207C00000
00000000000407800000
00000000000407800000
04000000000807800000
0400000000100F800000
0800000000200F000000
1000000000400F000000
3000000007FFFF000000
2000000001001F000000
6000000002001F000000
600000000C001F000000
6000000010001E000000
E000000020001E000000
E0000000C0001E000000
E000000100001E000000
F000000200001E000000
F000000C00001E000000
7800003000001E000000
7C0000C000001E000000
7F00078000001F000000
3FFFFE0000001FFE0000
1FFFF80000001FF80000
0FFFE00000001FE00000
01FE000000000F000000
ENDCHAR
STARTCHAR 00C3
ENCODING 195
SWIDTH 726 0
DWIDTH 61 0
BBX 75 56 -4 0
BITMAP
00000000000000038000
0000000000000007C020
0000000000000018F020
00000000000000207840
00000000000000403F80
00000000000000000F00
00000000000000000000
00000000000000000000
00000000000000000000
0000000007F800001800
000000001FFF80007800
000000007FFFF800F800
00000000FFFFFF01F800
00000001FFFFFFFF8000
00000003FFFFFFF30000
00000007C00000020000
00000007000000060000
0000000E0000000E0000
0000000C0000001C0000
000000080000003C0000
00000018000000780000
00000010000000F80000
00000010000001780000
00000010000002700000
00000000000004F00000
00000000000008F00000
00000000000009E00000
00000000000011E00000
00000000000021E00000
00000000000043E00000
00000000000083C00000
00000000000103C00000
00000000000207C00000
00000000000407C00000
00000000000407800000
04000000000807800000
0400000000100F800000
0800000000200F800000
1000000000400F000000
3000000007FFFF000000
2000000001001F000000
6000000002001F000000
600000000C001F000000
6000000010001E000000
E000000020001E000000
E0000000C0001E000000
E000000100001E000000
F000000200001E000000
F000000C00001E000000
7800003000001E000000
7C0000C000001E000000
7F00078000001E000000
3FFFFE0000001FFE0000
1FFFF80000001FF80000
0FFFE00000001FE00000
01FE000000000F000000
ENDCHAR
STARTCHAR 00C4
ENCODING 196
SWIDTH 726 0
DWIDTH 61 0
BBX 72 55 -4 0
BITMAP
0000000000000000E7
0000000000000000E7
0000000000000001EF
00000000000000018C
000000000000000000
000000000000000000
000000000000000000
000000000000000000
0000000007F8000030
000000003FFF800078
000000007FFFF000F8
00000000FFFFFF01F8
00000001FFFFFFFF80
00000003FFFFFFF100
00000007C000000200
000000070000000600
0000000E0000000C00
0000000C0000001C00
000000080000001800
000000180000007800
00000010000000F800
000000100000017000
000000100000027000
00000000000002F000
00000000000004F000
00000000000009E000
00000000000011E000
00000000000021E000
00000000000043C000
00000000000083C000
00000000000103C000
00000000000207C000
000000000004078000
000000000004078000
040000000008078000
0400000000100F8000
0800000000200F8000
1000000000400F0000
3000000007FFFF0000
2000000001001F0000
6000000002001F0000
600000000C001F0000
6000000010001E0000
E000000020001E0000
E0000000C0001E0000
E000000100001E0000
F000000200001E0000
F000000C00001E0000
7800003000001E0000
7C0000C000001E0000
7F00078000001F0000
3FFFFE0000001FFE00
1FFFF80000001FF800
0FFFE00000001FE000
01FE000000000F0000
ENDCHAR
STARTCHAR 00C5
ENCODING 197
SWIDTH 726 0
DWIDTH 61 0
BBX 72 60 -4 0
BITMAP
00000000000000007C
000000000000000083
000000000000000101
000000000000000201
000000000000000201
000000000000000203
000000000000000202
000000000000000304
0000000000000000F8
000000000000000000
000000000000000000
000000000000000000
000000000000000000
0000000003FC000007
000000001FFFE0000F
000000007FFFFC0030
00000000FFFFFFC040
00000001FFFFFFFF80
00000003FFFFFFF300
00000003C000000300
000000070000000700
0000000E0000000E00
0000000C0000001E00
000000080000003C00
000000180000007C00
00000010000000FC00
000000100000017800
000000100000027800
00000000000004F800
00000000000008F000
00000000000009F000
00000000000011F000
00000000000021E000
00000000000043E000
00000000000083E000
00000000000103C000
00000000000207C000
00000000000407C000
000000000004078000
040000000008078000
0400000000100F8000
0800000000200F8000
1000000000400F8000
3000000007FFFF0000
2000000001001F0000
6000000006001F0000
6000000008001F0000
6000000010001F0000
E000000020001E0000
E0000000C0001E0000
E000000100001E0000
F000000200001E0000
F000000800001E0000
7800003000001E0000
7C0000C000001E0000
7F00078000001F0000
3FFFFE0000001FFE00
1FFFF80000001FF800
0FFFC00000001FE000
01FE000000000F0000
ENDCHAR
STARTCHAR 00C6
ENCODING 198
SWIDTH 952 0
DWIDTH 80 0
BBX 88 48 -4 -1
BITMAP
0000001FE000010003E000
000000FFFE0002001FF000
000001FFFFC002003FF800
000007FFFFFC0400FFF800
00000FFFFFFFFC01F07800
00000FFFFFFFC801C03000
00001F0000001803802000
00003C0000001007002000
0000300000003006000000
0000200000007006000000
000060000000A00E000000
000040000000E00E000000
000040000001600E000000
000080000002400E000000
000080000004C00F000000
000080000008C00F800000
000080000009C03FC00000
00000000001181C0000001
0000000000218600000001
0000000000439800000001
0000000000833000000001
0000000000836000000001
000000000107C000000001
0000000002078000000001
0000000004070000000001
0000000008070000000003
00000000100E0000000002
00000000200E0000000002
00000000400C0000000002
00000000400C0000000004
00000000FFFC0000000004
00000003003C0000000008
00000004001C0000000008
00000008001C0000000010
00000010001C0000000030
00000020003C0000000020
00000040003C0000000040
40000080003C0000000080
40000100007E0000000100
40000200007E0000000200
C0000400007F0000000C00
C000180000FF8000001000
C000200000EF8000006000
E000C00001EFE000018000
E001000001C7F000060000
780E000003C3FE00780000
7FF000000300FFFFC00000
3F80000004000FFC000000
ENDCHAR
STARTCHAR 00C7
ENCODING 199
SWIDTH 666 0
DWIDTH 56 0
BBX 48 64 7 -18
BITMAP
000000001FC0
00000003FFF8
0000000FFFFC
0000007803FE
000001C0007F
00000600001F
00000800000F
000030000007
000040000007
000180000007
000200000007
000400000006
000800000000
001000000000
002000000000
004000000000
008000000000
008000000000
010000000000
030000000000
060000000000
060000000000
0C0000000000
0C0000000000
180000000000
180000000000
380000000000
380000000000
700000000000
700000000000
700000000006
700000000006
F00000000007
F00000000007
F00000000007
F0000000000F
F0000000000E
F0000000001E
F8000000001C
F80000000038
780000000070
780000000070
7C00000000E0
3C00000001C0
3E0000000380
1F0000000E00
1F8000001C00
0FC000003800
07E00000E000
03F800038000
00FF001E0000
003FFFF00000
0007FF000000
0000C0000000
000180000000
0003C0000000
0003F0000000
0000F0000000
000060000000
000040000000
000080000000
000300000000
000C00000000
001000000000
ENDCHAR
STARTCHAR 00C8
ENCODING 200
SWIDTH 642 0
DWIDTH 54 0
BBX 53 71 2 -11
BITMAP
00000000020000
00000000020000
00000000030000
00000000010000
00000000018000
00000000008000
0000000000C000
00000000004000
00000000004000
00000000002000
00000000000000
00000000000000
00000000000000
00000000000000
0000000003FC00
000000003FFF00
00000000C03F80
00000003000F80
0000000C000380
00000018000380
00000070000300
00000060000200
000000E0000000
000001E0000000
000001E0000000
000001E0000000
000001F0000000
000000F0000000
000000F8000000
00000078000000
0000007C000000
0000003C000000
0000003C000000
0000003C000000
00000038000000
00000070000000
000001C0000000
00000E00000000
000070000003F0
0001C000000FF8
00060000003078
0018000000C038
00600000030038
01C00000040038
03800000080038
07000000200030
1E000000400030
1C000000800060
38000001000060
780000020000C0
78000004000080
F0000008000180
F0000010000300
F0000020000600
F0000040000C00
F0000080001000
F0000100002000
F000020000C000
78000200010000
78000400060000
3C000800180000
1E000800600000
0F001001800000
0780200E000000
01F020F0000000
001FFF00000000
00008000000000
00008000000000
00010000000000
00010000000000
00010000000000
ENDCHAR
STARTCHAR 00C9
ENCODING 201
SWIDTH 642 0
DWIDTH 54 0
BBX 53 72 2 -11
BITMAP
00000000000080
00000000000180
00000000000300
00000000000600
00000000000800
00000000003000
00000000006000
00000000008000
00000000010000
00000000060000
00000000080000
00000000000000
00000000000000
00000000000000
00000000000000
0000000003FC00
000000003FFF00
00000000C03F80
00000003000F80
0000000C000380
00000018000380
00000070000300
00000060000200
000000E0000000
000001E0000000
000001E0000000
000001E0000000
000001F0000000
000000F0000000
000000F8000000
00000078000000
0000007C000000
0000003C000000
0000003C000000
0000003C000000
00000038000000
00000070000000
000001C0000000
00000E00000000
000070000003F0
0001C000000FF8
00060000003078
0018000000C038
00600000030038
01C00000040038
03800000080038
07000000200030
1E000000400030
1C000000800060
38000001000060
780000020000C0
78000004000080
F0000008000180
F0000010000300
F0000020000600
F0000040000C00
F0000080001000
F0000100002000
F000020000C000
78000200010000
78000400060000
3C000800180000
1E000800600000
0F001001800000
0780200E000000
01F020F0000000
001FFF00000000
00008000000000
00008000000000
00010000000000
00010000000000
00010000000000
ENDCHAR
STARTCHAR 00CA
ENCODING 202
SWIDTH 642 0
DWIDTH 54 0
BBX 53 71 2 -10
BITMAP
00000000000400
00000000001C00
00000000002C00
00000000004C00
00000000008C00
00000000010C00
00000000020C00
00000000040C00
00000000080C00
00000000100C00
00000000000800
00000000000000
00000000000000
00000000000000
0000000003FC00
000000003FFF00
00000000C07F80
00000003003F80
0000000C000F80
00000018000F00
00000070000E00
00000060000C00
000000E0000000
000001E0000000
000001E0000000
000001E0000000
000001F0000000
000000F0000000
000000F8000000
00000078000000
0000007C000000
0000003C000000
0000003C000000
0000003C000000
00000038000000
00000070000000
000001C0000000
00000E00000000
000070000003F0
0001C000000FF8
00060000003078
0018000000C038
00600000030038
01C00000040038
03800000080038
07000000200030
1E000000400030
1C000000800060
38000001000060
780000020000C0
78000004000080
F0000008000180
F0000010000300
F0000020000600
F0000040000C00
F0000080001000
F0000100002000
F000020000C000
78000200010000
78000400060000
3C000800180000
1E000800600000
0F001001800000
0780200E000000
01F020F0000000
001FFF00000000
00008000000000
00008000000000
00010000000000
00010000000000
00010000000000
ENDCHAR
STARTCHAR 00CB
ENCODING 203
SWIDTH 642 0
DWIDTH 54 0
BBX 53 66 2 -11
BITMAP
00000000038E00
00000000038E00
00000000079E00
00000000061800
00000000000000
00000000000000
00000000000000
00000000000000
00000000000000
0000000007F000
000000003FFC00
00000001C03E00
00000006000E00
0000000C000200
00000038000400
00000070000400
000000E0000000
000000E0000800
000001E0000000
000001E0000000
000001E0000000
000001F0000000
000000F0000000
000000F8000000
00000078000000
0000007C000000
0000003C000000
0000003C000000
0000003C000000
00000038000000
00000070000000
000001C0000000
00000E00000000
000070000003F0
0001C000000FF8
00060000003078
0018000000C038
00600000030038
01C00000040038
03800000080038
07000000200030
1E000000400030
1C000000800060
38000001000060
780000020000C0
78000004000080
F0000008000180
F0000010000300
F0000020000600
F0000040000C00
F0000080001000
F0000100002000
F000020000C000
78000200010000
78000400060000
3C000800180000
1E000800600000
0F001001800000
0780200E000000
01F020F0000000
001FFF00000000
00008000000000
00008000000000
00010000000000
00010000000000
00010000000000
ENDCHAR
STARTCHAR 00CC
ENCODING 204
SWIDTH 357 0
DWIDTH 30 0
BBX 47 61 1 -1
BITMAP
000000001000
000000001000
000000001800
000000001800
000000000800
000000000C00
000000000400
000000000600
000000000200
000000000200
000000000000
000000000000
000000000000
00000000FFFE
0000001F000C
000000600010
000001800020
000006000040
000008000080
000018000180
000030000300
000030000600
000060000E00
000060000C00
0000E0001800
0000E0003800
0000E0007000
0000E0007000
0000E000E000
0000F001E000
00007001C000
00007803C000
00003E078000
00000C070000
0000000F0000
0000000E0000
0000001E0000
0000003C0000
0000003C0000
000000780000
000000780000
000000F00000
000001F00000
000001E00000
000003E00000
000003C00000
000007800000
00000F800000
00000F000000
00001E000000
00003E000000
00003C000000
000078000000
0000F0000000
0001F0000000
0003E0000000
000780000000
800F00000000
801E00000000
607800000000
1FC000000000
ENDCHAR
STARTCHAR 00CD
ENCODING 205
SWIDTH 357 0
DWIDTH 30 0
BBX 49 61 1 0
BITMAP
00000000000180
00000000000300
00000000000600
00000000000C00
00000000003000
00000000006000
00000000008000
00000000010000
00000000060000
00000000080000
00000000100000
00000000000000
00000000000000
00000000FFFE00
0000001F000C00
00000060001000
00000180002000
00000600004000
00000800008000
00001800018000
00003000030000
00003000060000
000060000E0000
000060000C0000
0000E000180000
0000E000380000
0000E000700000
0000E000700000
0000E000E00000
0000F001E00000
00007001C00000
00007803C00000
00003E07800000
00000C07000000
0000000F000000
0000000E000000
0000001E000000
0000003C000000
0000003C000000
00000078000000
00000078000000
000000F0000000
000001F0000000
000001E0000000
000003E0000000
000003C0000000
00000780000000
00000F80000000
00000F00000000
00001E00000000
00003E00000000
00003C00000000
00007800000000
0000F000000000
0001F000000000
0003E000000000
00078000000000
800F0000000000
801E0000000000
60780000000000
1FC00000000000
ENDCHAR
STARTCHAR 00CE
ENCODING 206
SWIDTH 357 0
DWIDTH 30 0
BBX 47 62 1 0
BITMAP
000000000030
000000000070
0000000000B0
000000000130
000000000230
000000000430
000000000830
000000001030
000000002030
000000004030
000000000000
000000000000
000000000000
000000000000
000000007FFE
0000000F800C
000000700018
000001800030
000006000060
0000080000C0
000018000180
000030000300
000030000700
000060000600
000060000C00
0000E0001C00
0000E0003800
0000E0003800
0000E0007000
0000E000F000
0000F000E000
00007001C000
00007803C000
00003E038000
00000C078000
000000070000
0000000F0000
0000001E0000
0000001E0000
0000003C0000
0000007C0000
000000780000
000000F80000
000000F00000
000001E00000
000003E00000
000003C00000
000007C00000
000007800000
00000F000000
00001F000000
00003E000000
00003C000000
000078000000
0000F8000000
0001F0000000
0003E0000000
0007C0000000
800F00000000
801E00000000
607800000000
1FC000000000
ENDCHAR
STARTCHAR 00CF
ENCODING 207
SWIDTH 357 0
DWIDTH 30 0
BBX 46 56 1 -1
BITMAP
0000000038E0
0000000038E0
0000000079E0
000000006180
000000000000
000000000000
000000000000
000000000000
00000000FFFC
0000001F000C
000000600010
000001800020
000006000040
000008000080
000018000180
000030000300
000030000600
000060000E00
000060001C00
0000E0001800
0000E0003800
0000E0007000
0000E0007000
0000E000E000
0000F001E000
00007001C000
000078038000
00003E078000
00000C070000
0000000F0000
0000000E0000
0000001E0000
0000003C0000
0000003C0000
000000780000
000000780000
000000F00000
000001F00000
000001E00000
000003C00000
000003C00000
000007800000
00000F800000
00000F000000
00001E000000
00003E000000
00003C000000
000078000000
0000F0000000
0001F0000000
0003E0000000
000780000000
800F00000000
801E00000000
607800000000
1FC000000000
ENDCHAR
STARTCHAR 00D0
ENCODING 208
SWIDTH 726 0
DWIDTH 61 0
BBX 74 56 -6 1
BITMAP
00000000000000001FC0
0000000000000000FFC0
00000000000000038000
00000000000000040000
00000000000000180000
00000000000000200000
00000000000000400000
00000000000000800000
00000000FFFFFF800000
0000007F0000FFF00000
00000780000003FC0000
000038000000047F0000
0001C0000000041F8000
000600000000080FE000
0018000000001807F000
0060000000001003F000
0080000000002001F800
0100000000006000F800
0200000000004000FC00
040000000000C0007C00
08000000000080007E00
18000000000180007E00
30000000000100003E00
30000000000300003E00
70000000000200003E00
60000000000600003E00
60000000000C00003E00
E0000000000C00003E00
E0000000001C00003E00
E0000000001800003E00
E0000000003800003C00
E0000000003000003C00
E0000000007000007C00
600000003FFFFC007800
0000000000E000007800
0000000000C000007000
0000000001C00000F000
0000000001800000E000
0000000003800001E000
0000000003000001C000
00000000070000038000
00000000060000030000
000000000E0000060000
000000001C00000C0000
00000000180000180000
00000000380000100000
00000000700000200000
00000000600000C00000
00000000C00001000000
00000001800002000000
0000000300000C000000
00000006000030000000
000000080000C0000000
00000010000300000000
00000060001C00000000
0000018001E000000000
ENDCHAR
STARTCHAR 00D1
ENCODING 209
SWIDTH 666 0
DWIDTH 56 0
BBX 77 71 -4 -14
BITMAP
000000000000E0000000
000000000001F0080000
00000000000238080000
0000000000041C100000
0000000000080E300000
00000000001007E00000
00000000000003800000
00000000000000000000
00000000000000000000
00000000000000000000
00000000000000000000
000000000000FF0003F0
00000000000300C03FF8
0000000000010023FFF8
000000000000801FFFF8
000000000000FFE80018
0000000000003E040008
00000000E00000020008
00000003F00000030008
00000007F00000030010
0000000FF00000038000
00000018F00000038000
00000030F00000038000
00000020700000038000
00000040700000038000
00000080700000038000
00000100700000038000
00000200700000078000
00000200700000070000
00000400700000070000
00000800700000070000
000010007000000E0000
000010007000000E0000
000020007000000E0000
000040007000001C0000
000040007000001C0000
00008000700000180000
00010000700000380000
00010000700000300000
00020000700000700000
00060000700000600000
00040000700000E00000
00080000700000C00000
00180000700001800000
00100000700001800000
00300000700003000000
00600000700006000000
00400000700006000000
00C0000070000C000000
00800000780018000000
01800000780010000000
03000000780030000000
03000000780060000000
060000007800C0000000
06000000780180000000
0C0000007C0300000000
0C0000003C0600000000
180000003E1800000000
180000003FF000000000
300000001FC000000000
300000000F0000000000
70000000000000000000
60000000000000000000
E0000000000000000000
E0000000000000000000
E0000000000000000000
C0000000000000000000
C0000000000000000000
40000000000000000000
40000000000000000000
40000000000000000000
ENDCHAR
STARTCHAR 00D2
ENCODING 210
SWIDTH 619 0
DWIDTH 52 0
BBX 54 63 8 1
BITMAP
00000000060000
00000000020000
00000000030000
00000000010000
00000000010000
00000000008000
00000000008000
00000000004000
00000000004000
00000000000000
00000000000000
00000000000000
00000000000000
00000000000000
00000000FFFC00
00000003000F80
000000000003E0
000000000001F0
000000000000F8
00000000000078
00000007C00078
0000003800007C
000001C000003C
0000060000003C
0000080000003C
0000300000003C
0000400000003C
0001800000003C
0003000000003C
00060000000038
000C0000000078
00180000000078
00380000000070
00700000000070
00E000000000E0
01C000000000E0
03C000000000C0
078000000001C0
07800000000180
0F000000000380
0F000000000300
1E000000000600
1E000000000C00
3E000000000C00
3C000000001800
7C000000003000
7C000000002000
78000000004000
F8000000008000
F8000000010000
F8000000020000
F8000000040000
F8000000080000
F8000000100000
F8000000400000
FC000000800000
7C000003000000
7E000004000000
3F000018000000
3F8000E0000000
0FE00700000000
07FFF800000000
00FF8000000000
ENDCHAR
STARTCHAR 00D3
ENCODING 211
SWIDTH 619 0
DWIDTH 52 0
BBX 54 64 8 1
BITMAP
00000000000020
00000000000060
00000000000180
00000000000300
00000000000600
00000000000800
00000000001000
00000000006000
00000000008000
00000000010000
00000000020000
00000000000000
00000000000000
00000000000000
00000000000000
00000000FFFC00
00000003000F80
000000000003E0
000000000001F0
000000000000F8
00000000000078
00000007C00078
0000003800007C
000001C000003C
0000060000003C
0000080000003C
0000300000003C
0000400000003C
0001800000003C
0003000000003C
00060000000038
000C0000000078
00180000000078
00380000000070
00700000000070
00E000000000E0
01C000000000E0
03C000000000C0
078000000001C0
07800000000180
0F000000000380
0F000000000300
1E000000000600
1E000000000C00
3E000000000C00
3C000000001800
7C000000003000
7C000000002000
78000000004000
F8000000008000
F8000000010000
F8000000020000
F8000000040000
F8000000080000
F8000000100000
F8000000400000
FC000000800000
7C000003000000
7E000004000000
3F000018000000
3F8000E0000000
0FE00700000000
07FFF800000000
00FF8000000000
ENDCHAR
STARTCHAR 00D4
ENCODING 212
SWIDTH 619 0
DWIDTH 52 0
BBX 54 64 8 0
BITMAP
00000000000100
00000000000300
00000000000700
00000000001B00
00000000002300
00000000004300
00000000004300
00000000008300
00000000010300
00000000020300
00000000000200
00000000000000
00000000000000
00000000000000
00000000000000
00000000FFFC00
00000003001F80
000000000003E0
000000000001F0
000000000000F0
00000000000078
00000007C00078
0000003800007C
000001C000003C
0000060000003C
0000080000003C
0000300000003C
0000400000003C
0001800000003C
0003000000003C
00060000000038
000C0000000078
00180000000078
00380000000070
00700000000070
00E000000000E0
01C000000000E0
03C000000000C0
078000000001C0
07800000000180
0F000000000380
0F000000000300
1E000000000600
1E000000000C00
3E000000000C00
3C000000001800
7C000000003000
7C000000002000
78000000004000
F8000000008000
F8000000010000
F8000000020000
F8000000040000
F8000000080000
F8000000100000
F8000000400000
FC000000800000
7C000003000000
7E000004000000
3F000018000000
3F8000E0000000
0FE00700000000
07FFF800000000
00FF8000000000
ENDCHAR
STARTCHAR 00D5
ENCODING 213
SWIDTH 619 0
DWIDTH 52 0
BBX 54 60 8 0
BITMAP
00000000070000
000000000F8040
0000000031E040
0000000040F080
00000000807F00
00000000001E00
00000000000000
00000000000000
00000000000000
00000000000000
00000000000000
00000000FFFC00
00000003001F80
000000000007E0
000000000003F0
000000000001F0
000000000000F8
000000078000F8
000000380000FC
000001C000007C
0000060000007C
0000180000007C
0000200000007C
0000C00000007C
0001800000007C
0003000000007C
00060000000078
000C0000000078
003800000000F8
003000000000F0
007000000000F0
00E000000001E0
01C000000001E0
03C000000001C0
078000000003C0
07800000000380
0F000000000780
0F000000000700
1E000000000E00
3E000000000C00
3C000000001C00
3C000000003800
7C000000007000
7C000000006000
7800000000C000
F8000000018000
F8000000030000
F8000000060000
F80000000C0000
F8000000180000
F8000000300000
F8000000400000
FC000001800000
7C000003000000
7E00000C000000
3F000030000000
3F8000C0000000
0FE00700000000
07FFF800000000
00FF8000000000
ENDCHAR
STARTCHAR 00D6
ENCODING 214
SWIDTH 619 0
DWIDTH 52 0
BBX 54 58 8 0
BITMAP
00000000071C00
00000000071C00
000000000F3C00
000000000C3000
00000000000000
00000000000000
00000000000000
00000000000000
00000000000000
00000001FFFC00
00000002001F80
000000000007E0
000000000001F0
000000000000F0
000000000000F8
0000000F800078
0000007000007C
0000018000003C
0000060000003C
0000180000003C
0000200000003C
0000C00000003C
0001800000003C
0003000000003C
00060000000038
001C0000000078
00380000000078
00700000000070
00700000000070
00E000000000E0
01C000000000E0
03C000000000C0
078000000001C0
07800000000180
0F000000000380
0F000000000300
1E000000000600
3E000000000C00
3C000000000C00
3C000000001800
7C000000003000
7C000000002000
78000000004000
F8000000008000
F8000000010000
F8000000020000
F8000000040000
F8000000080000
F8000000100000
F8000000400000
FC000000800000
7C000003000000
7E000004000000
3F000018000000
3F8000E0000000
0FE00700000000
07FFF800000000
00FF8000000000
ENDCHAR
STARTCHAR 00D7
ENCODING 215
SWIDTH 404 0
DWIDTH 34 0
BBX 19 16 9 3
BITMAP
00E040
00E0E0
00E1C0
00E300
00E600
00EC00
00F800
00F000
01E000
03E000
066000
1C6000
382000
702000
E02000
C00000
ENDCHAR
STARTCHAR 00D8
ENCODING 216
SWIDTH 619 0
DWIDTH 52 0
BBX 57 54 6 -6
BITMAP
000000003FFFE380
00000000C001FC00
0000000000003E00
0000000000001E00
0000000000000F00
0000000000001F00
00000001F0003F00
0000000E00004F00
0000003000008F00
000000C000010F00
0000030000020F00
00000400000C0F00
0000180000180F00
0000300000300E00
0000600000400E00
0001C00000800E00
0003800001000E00
0007000002001C00
000E000004001C00
001C000008001800
001C000030003800
0038000040003000
0070000080003000
00F0000100006000
01E0000200006000
01E000040000C000
03C0000800008000
03C0001000018000
0780002000030000
0780008000020000
0F80010000040000
0F00020000080000
1F00040000180000
1F00080000300000
1E00100000600000
1E00200000C00000
3E00C00001800000
3E01000003000000
3E02000004000000
3E04000008000000
3E08000010000000
3E10000060000000
3E20000080000000
3E40000300000000
1E80000C00000000
1F00007000000000
0F0003C000000000
07FFFE0000000000
07FFE00000000000
0C00000000000000
1800000000000000
3000000000000000
6000000000000000
C000000000000000
ENDCHAR
STARTCHAR 00D9
ENCODING 217
SWIDTH 714 0
DWIDTH 60 0
BBX 73 64 5 -2
BITMAP
00000000000800000000
00000000000C00000000
00000000000C00000000
00000000000400000000
00000000000600000000
00000000000200000000
00000000000100000600
00000000000100003F80
0000000000008000FF00
00000000000000010000
10000000000000060000
30000000000000080000
30000000000000100000
70000000000000200000
70000000800000200000
F0000003800000400000
F0000006000000800000
F8000008000001000000
F8000030000003000000
FE0001E0000002000000
FF801E80000004000000
7FFFF100000008000000
3FFF8200000008000000
0FE00400000010000000
00000800000010000000
00001000000020000000
00006000000040000000
00008000000040000000
00010000000080000000
00010000000080000000
00020000000100000000
00040000000100000000
00080000000200000000
00100000000600000000
00200000000400000000
00400000000C00000000
00C00000000800000000
00800000001800000000
01000000001800000000
03000000003000000000
06000000007000000000
06000000006000000000
0C00000000E000000000
1C00000000E000000000
1800000001C000000000
3800000003C000000000
3800000007C000000000
700000000F8000000000
700000003F8000000000
700000004F8000010000
F00000018F8000020000
F00000020F0000020000
F00000040F0000040000
F00000180F0000080000
F80000200F0000100000
F80000C00F0000600000
FC0003000F0000800000
7E000C000F0001000000
7FC0F0000F0002000000
3FFF80000F000C000000
0FF800000F8030000000
0000000007C0C0000000
0000000007FF00000000
0000000001F800000000
ENDCHAR
STARTCHAR 00DA
ENCODING 218
SWIDTH 714 0
DWIDTH 60 0
BBX 73 65 5 -2
BITMAP
00000000000000C00000
00000000000001800000
00000000000003000000
0000000000000C000000
00000000000018000000
00000000000020000000
000000000000C0000000
00000000000100000600
00000000000200003F80
00000000000C0000FF00
00000000000000010000
10000000000000060000
30000000000000080000
30000000000000100000
70000000000000200000
70000000800000200000
F0000003800000400000
F0000006000000800000
F8000008000001000000
F8000030000003000000
FE0001E0000002000000
FF801E80000004000000
7FFFF100000008000000
3FFF8200000008000000
0FE00400000010000000
00000800000010000000
00001000000020000000
00006000000040000000
00008000000040000000
00010000000080000000
00010000000080000000
00020000000100000000
00040000000100000000
00080000000200000000
00100000000600000000
00200000000400000000
00400000000C00000000
00C00000000800000000
00800000001800000000
01000000001800000000
03000000003000000000
06000000007000000000
06000000006000000000
0C00000000E000000000
1C00000000E000000000
1800000001C000000000
3800000003C000000000
3800000007C000000000
700000000F8000000000
700000003F8000000000
700000004F8000010000
F00000018F8000020000
F00000020F0000020000
F00000040F0000040000
F00000180F0000080000
F80000200F0000100000
F80000C00F0000600000
FC0003000F0000800000
7E000C000F0001000000
7FC0F0000F0002000000
3FFF80000F000C000000
0FF800000F8030000000
0000000007C0C0000000
0000000007FF00000000
0000000001F800000000
ENDCHAR
STARTCHAR 00DB
ENCODING 219
SWIDTH 714 0
DWIDTH 60 0
BBX 73 64 5 -2
BITMAP
00000000000010000000
00000000000070000000
000000000000B0000000
00000000000130000000
00000000000630000000
00000000000830000000
00000000001030000600
00000000002030003F80
0000000000402000FF00
00000000000000010000
10000000000000060000
30000000000000080000
30000000000000100000
70000000800000200000
70000001800000200000
F0000003000000400000
F0000006000000800000
F8000008000001000000
FC000030000003000000
FE0001C0000002000000
FF801E80000004000000
7FFFF100000008000000
3FFF0200000008000000
0FE00C00000010000000
00001000000010000000
00002000000020000000
00004000000040000000
00008000000040000000
00010000000080000000
00020000000080000000
00040000000100000000
00040000000100000000
00080000000200000000
00100000000600000000
00200000000400000000
00400000000C00000000
00C00000000800000000
00800000001800000000
01000000001800000000
03000000003000000000
06000000007000000000
06000000006000000000
0C00000000E000000000
1C00000000E000000000
1800000001C000000000
3800000003C000000000
3800000007C000000000
700000000F8000000000
700000003F8000000000
700000004F8000010000
F00000018F8000020000
F00000020F0000020000
F00000040F0000040000
F00000180F0000080000
F80000200F0000100000
F80000C00F0000600000
FC0003000F0000800000
7E000C000F0001000000
7FC0F0000F0002000000
3FFF80000F000C000000
0FF800000F8030000000
0000000007C0C0000000
0000000007FF00000000
0000000001F800000000
ENDCHAR
STARTCHAR 00DC
ENCODING 220
SWIDTH 714 0
DWIDTH 60 0
BBX 73 60 5 -3
BITMAP
00000000000618000000
00000000000E38000000
00000000001E78000000
00000000001C70003F00
0000000000186000FF80
00000000000000010000
10000000000000060000
30000000000000080000
30000000000000100000
70000000000000200000
70000000800000200000
F0000003800000400000
F0000006000000800000
F8000008000001000000
F8000030000003000000
FE0001E0000002000000
FF801E80000004000000
7FFFF100000008000000
3FFF8200000008000000
0FE00400000010000000
00000800000010000000
00001000000020000000
00006000000040000000
00008000000040000000
00010000000080000000
00010000000080000000
00020000000100000000
00040000000100000000
00080000000200000000
00100000000600000000
00200000000400000000
00400000000C00000000
00C00000000800000000
00800000001800000000
01000000001800000000
03000000003000000000
06000000007000000000
06000000006000000000
0C00000000E000000000
1C00000000E000000000
1800000001C000000000
3800000003C000000000
3800000007C000000000
700000000F8000000000
700000003F8000000000
700000004F8000010000
F00000018F8000020000
F00000020F0000020000
F00000040F0000040000
F00000180F0000080000
F80000200F0000100000
F80000C00F0000600000
FC0003000F0000800000
7E000C000F0001000000
7FC0F0000F0002000000
3FFF80000F000C000000
0FF800000F8030000000
0000000007C0C0000000
0000000007FF00000000
0000000001F800000000
ENDCHAR
STARTCHAR 00DD
ENCODING 221
SWIDTH 357 0
DWIDTH 30 0
BBX 48 73 2 -15
BITMAP
000000000001
000000000003
00000000000E
000000000018
000000000030
000000000060
0000000000C0
000000000180
000000000300
000000000400
000000000800
0007E000100C
001FF800200E
0060FC00000F
01803E00000F
02001E00000F
04000F00000F
08000F00000F
10000700000F
30000780000E
30000780000E
60000780000E
60000380000C
E00003800018
E00003800018
600003800030
000003800020
000003800060
0000038000C0
000003800180
000003800300
000003800600
000003800C00
000003801800
000003803000
000003006000
00000300C000
000007038000
000007060000
0000070C0000
000007380000
000007600000
00000FC00000
00000F800000
00000F800000
00001F000000
000020000000
0000C0000000
000100000000
000200000000
000400000000
000800000000
003000000000
006000000000
00C000000000
018000000000
030000000000
060000000000
060000000000
0C0000000000
180000000000
180000000000
300000000000
700000000000
700000000000
600000000000
E00000000000
E00000000000
E00000000000
E00000000000
200000000000
200000000000
200000000000
ENDCHAR
STARTCHAR 00DE
ENCODING 222
SWIDTH 535 0
DWIDTH 45 0
BBX 53 62 3 1
BITMAP
00000000000C00
00000000001000
00000000006000
0000000000C000
00000000018000
00000000030000
00000000070000
000000000E0000
000000000C0000
000000001C0000
00000000380000
00000000380000
00000000700000
00000000700000
00000000E00000
00000000E00000
000000FFFF8000
00001F01C1F800
0001E003803F00
000F0003800F80
003C00070003E0
00F000060001F0
03C0000E0000F0
0780000C0000F8
0F00001C0000F8
1E000018000078
3C000038000078
78000030000078
78000070000078
F0000060000070
F00000E0000070
F00000C0000070
F00001C00000E0
F00001800000E0
700003800000C0
00000300000180
00000200000180
00000600000300
00000400000600
00000C20000C00
00000870001000
000018F8006000
0000107E018000
0000303FFE0000
0000200FF00000
00006000000000
00004000000000
00008000000000
00008000000000
00010000000000
00020000000000
00020000000000
00040000000000
00080000000000
00180000000000
00100000000000
00600000000000
00800000000000
FFFFFFFE000000
FFFFFFF8000000
FFFFFFE0000000
FFFFFF00000000
ENDCHAR
STARTCHAR 00DF
ENCODING 223
SWIDTH 250 0
DWIDTH 21 0
BBX 86 85 -43 -38
BITMAP
00000000000000000007F0
0000000000000000001838
000000000000000000601C
000000000000000000801C
000000000000000001001C
000000000000000006001C
00000000000000000C0018
0000000000000000180018
0000000000000000180030
0000000000000000300030
0000000000000000600060
0000000000000000E00040
0000000000000001C00080
0000000000000001800100
0000000000000003800200
0000000000000007000400
0000000000000006000800
000000000000000E001000
000000000000001C002000
000000000000001C004000
0000000000000038018000
0000000000000038020000
0000000000000070040000
0000000000000060080000
00000000000000E0300000
00000000000001C0400000
00000000000001C1800000
0000000000000382000000
000000000000038C000000
0000000000000718000000
0000000000000730000000
0000000000000E70000000
0000000000000E70000000
0000000000001C70000000
0000000000001870000000
0000000000003870000000
0000000000003070000000
0000000000007070000000
0000000000006070000000
000000000000E070000000
000000000000C060000000
000000000003C060000000
0000000000078040000000
00000000000780C0000000
000000000003C100000000
000000000007F600000000
000000000007F800000000
00000000000E0000000000
00000000000C0000000000
00000000000C0000000000
0000000000180000000000
0000000000180000000000
0000000000300000000000
0000000000300000000000
0000000000600000000000
0000000000C00000000000
0000000000C00000000000
0000000001800000000000
0000000001800000000000
0000000003000000000000
0000000002000000000000
0000000006000000000000
000000000C000000000000
0000000008000000000000
0000000018000000000000
0000000010000000000000
0000000020000000000000
0000000060000000000000
00000000C0000000000000
0000000080000000000000
0000000100000000000000
0000000200000000000000
0000000600000000000000
0000000C00000000000000
0000000800000000000000
8000001000000000000000
8000002000000000000000
800000C000000000000000
C000018000000000000000
6000030000000000000000
70000C0000000000000000
3800180000000000000000
1F00E00000000000000000
0FFF800000000000000000
01FC000000000000000000
ENDCHAR
STARTCHAR 00E0
ENCODING 224
SWIDTH 261 0
DWIDTH 22 0
BBX 26 33 2 0
BITMAP
00100000
00180000
00180000
00080000
000C0000
00040000
00060000
00020000
00020000
00010000
00000000
00000000
00000000
00000000
00002000
000FC000
0037C000
00418000
00818000
01030000
03020000
06060000
040C0000
0C0C0040
181C0080
18380100
30580300
30B80200
71380400
71381800
E2382000
FC38C000
F01F0000
ENDCHAR
STARTCHAR 00E1
ENCODING 225
SWIDTH 261 0
DWIDTH 22 0
BBX 27 34 2 -1
BITMAP
00000020
00000060
000000C0
00000100
00000600
00000C00
00001000
00002000
0000C000
00010000
00020000
00000000
00000000
00000000
00000000
00002000
000FC000
0037C000
00418000
00818000
01030000
03020000
06060000
040C0000
0C0C0040
181C0080
18380100
30580300
30B80200
71380400
71381800
E2382000
FC38C000
F01F0000
ENDCHAR
STARTCHAR 00E2
ENCODING 226
SWIDTH 261 0
DWIDTH 22 0
BBX 26 33 2 0
BITMAP
00000800
00001800
00002800
0000CC00
00010C00
00020C00
00020C00
00040C00
00180C00
00100800
00000000
00000000
00000000
00000000
00002000
000FC000
0037C000
00418000
00818000
01030000
03020000
06060000
040C0000
0C0C0040
181C0080
18380100
30580300
30B80200
71380400
71381800
E2382000
FC38C000
F01F0000
ENDCHAR
STARTCHAR 00E3
ENCODING 227
SWIDTH 261 0
DWIDTH 22 0
BBX 26 31 2 -1
BITMAP
000E0000
001F0080
00238080
0041C100
0080F200
01003C00
00000000
00000000
00000000
00000000
00000000
00000000
00002000
000FC000
0037C000
00418000
00818000
01030000
03020000
06060000
040C0000
0C0C0040
181C0080
18380100
30580300
30B80200
71380400
71381800
E2382000
FC38C000
F01F0000
ENDCHAR
STARTCHAR 00E4
ENCODING 228
SWIDTH 261 0
DWIDTH 22 0
BBX 26 31 2 -1
BITMAP
00020000
00071C00
000F3C00
000E3800
00003000
00000000
00000000
00000000
00000000
00000000
00000000
00000000
00002000
000FC000
0037C000
00418000
00818000
01030000
03020000
06060000
040C0000
0C0C0040
181C0080
18380100
30580300
30B80200
71380400
71381800
E2382000
FC38C000
F01F0000
ENDCHAR
STARTCHAR 00E5
ENCODING 229
SWIDTH 261 0
DWIDTH 22 0
BBX 26 34 2 -1
BITMAP
0000F000
00030800
00040400
00040400
00080400
00080400
00080800
000C1000
00062000
0001C000
00000000
00000000
00000000
00000000
00000000
00002000
000FC000
0037C000
00418000
00818000
01030000
03020000
06060000
040C0000
0C0C0040
181C0080
18380100
30580300
30B80200
71380400
71381800
E2382000
FC38C000
F01F0000
ENDCHAR
STARTCHAR 00E6
ENCODING 230
SWIDTH 309 0
DWIDTH 26 0
BBX 32 19 2 0
BITMAP
000FC780
003F9FC0
004761C0
0087C180
01070180
020E0200
040E0400
041C1800
08182000
1839C000
10360003
30780004
30B00008
70B00030
617000C0
E2700100
E4780600
F83FF800
E01F0000
ENDCHAR
STARTCHAR 00E7
ENCODING 231
SWIDTH 226 0
DWIDTH 19 0
BBX 23 30 1 -11
BITMAP
0003E0
000CE0
003060
006000
00C000
018000
038000
030000
070002
060004
0E0008
0E0010
1C0060
1C0080
1C0100
1C0600
0E1800
0FE000
010000
060000
0C0000
1C0000
1F0000
0F0000
030000
020000
040000
180000
600000
800000
ENDCHAR
STARTCHAR 00E8
ENCODING 232
SWIDTH 214 0
DWIDTH 18 0
BBX 22 33 3 0
BITMAP
004000
006000
006000
002000
003000
001000
001800
000800
000800
000800
000000
000000
000000
000000
000000
003F00
00C700
010600
030600
060C00
0C1800
182000
18C000
310000
7E000C
700010
E00020
E00040
E00080
E00300
E00C00
F83000
7FC000
ENDCHAR
STARTCHAR 00E9
ENCODING 233
SWIDTH 214 0
DWIDTH 18 0
BBX 22 34 3 -1
BITMAP
000004
00000C
000018
000020
0000C0
000180
000200
000400
001800
002000
004000
000000
000000
000000
000000
000000
003F00
00C700
010600
030600
060C00
0C1800
182000
18C000
310000
7E000C
700010
E00020
E00040
E00080
E00300
E00C00
F83000
7FC000
ENDCHAR
STARTCHAR 00EA
ENCODING 234
SWIDTH 214 0
DWIDTH 18 0
BBX 22 33 3 0
BITMAP
000060
0000E0
000160
000260
000460
000860
001060
002060
004060
000060
000040
000000
000000
000000
000000
003F00
00C700
010600
030600
060C00
0C1800
182000
18C000
310000
7E000C
700010
E00020
E00040
E00080
E00300
E00C00
F83000
7FC000
ENDCHAR
STARTCHAR 00EB
ENCODING 235
SWIDTH 214 0
DWIDTH 18 0
BBX 22 31 3 -1
BITMAP
001800
003860
0038E0
0071E0
0001C0
000000
000000
000000
000000
000000
000000
000000
000000
003F00
00C700
010600
030600
060C00
0C1800
182000
18C000
310000
7E000C
700010
E00020
E00040
E00080
E00300
E00C00
F83000
7FC000
ENDCHAR
STARTCHAR 00EC
ENCODING 236
SWIDTH 178 0
DWIDTH 15 0
BBX 20 34 3 0
BITMAP
004000
006000
006000
002000
003000
001000
001800
000800
000800
000400
000000
000000
000000
000000
000000
004000
00C000
01C000
018000
030000
070000
060010
0E0020
0C0040
180080
180100
300200
700400
701800
602000
E0C000
F30000
FC0000
200000
ENDCHAR
STARTCHAR 00ED
ENCODING 237
SWIDTH 190 0
DWIDTH 16 0
BBX 22 35 3 -1
BITMAP
000004
00000C
000018
000020
0000C0
000180
000200
000400
001800
002000
004000
000000
000000
000000
000000
000000
004000
00C000
01C000
018000
030000
070000
060010
0E0020
0C0040
180080
180100
300200
700400
701800
602000
E0C000
F30000
FC0000
200000
ENDCHAR
STARTCHAR 00EE
ENCODING 238
SWIDTH 190 0
DWIDTH 16 0
BBX 20 34 3 0
BITMAP
000080
000180
000780
000980
001080
0020C0
0040C0
0080C0
0180C0
010080
000000
000000
000000
000000
000000
004000
00C000
01C000
018000
030000
070000
060010
0E0020
0C0040
180080
180100
300200
700400
701800
602000
E0C000
F30000
FC0000
200000
ENDCHAR
STARTCHAR 00EF
ENCODING 239
SWIDTH 190 0
DWIDTH 16 0
BBX 20 32 3 -1
BITMAP
006000
00E180
00E380
01C780
000300
000000
000000
000000
000000
000000
000000
000000
000000
004000
00C000
01C000
018000
030000
070000
060010
0E0020
0C0040
180080
180100
300200
700400
701800
602000
E0C000
F30000
FC0000
200000
ENDCHAR
STARTCHAR 00F0
ENCODING 240
SWIDTH 238 0
DWIDTH 20 0
BBX 20 60 1 -4
BITMAP
800000
C00000
C00000
E00000
700000
700000
380000
380000
1C0000
0E0000
0E0000
070000
070000
038000
038000
01C000
01C000
00E000
00E000
006000
0070F0
003780
003C00
03D800
1F1C00
080C00
000C00
000600
000600
000600
000300
000300
000100
000100
000180
000080
000080
000080
000080
0001C0
000240
000C40
001840
003040
006040
00E040
00C0C0
01C0C0
038080
038080
070180
070180
070100
0E0300
0E0200
0E0600
0E0C00
0E1800
0E3000
07C000
ENDCHAR
STARTCHAR 00F1
ENCODING 241
SWIDTH 273 0
DWIDTH 23 0
BBX 26 34 2 -4
BITMAP
00070000
000F8040
0011C040
0020E080
00407900
00801E00
00000000
00000000
00000000
00000000
00000000
00000000
00000000
0060E000
00C1E000
01C2E000
01CCC000
0391C000
03A18000
07438000
07830000
07070000
0F060000
0E0E0000
1C0C0000
381C0000
381C0000
70180000
60380040
E0380080
C0380100
003C0600
003C1800
001FE000
ENDCHAR
STARTCHAR 00F2
ENCODING 242
SWIDTH 238 0
DWIDTH 20 0
BBX 26 34 3 0
BITMAP
00800000
00800000
00C00000
00C00000
00400000
00600000
00200000
00100000
00100000
00100000
00000000
00000000
00000000
00000000
00000000
000C0000
003E0000
004F0000
018FFFC0
020E0000
040E0000
0C0C0000
180C0000
300C0000
70180000
70180000
E0300000
E0200000
E0600000
E0400000
E0800000
E1000000
FE000000
20000000
ENDCHAR
STARTCHAR 00F3
ENCODING 243
SWIDTH 238 0
DWIDTH 20 0
BBX 26 35 3 -1
BITMAP
00000100
00000300
00000600
00000C00
00003000
00006000
00008000
00010000
00060000
00080000
00100000
00000000
00000000
00000000
00000000
00000000
000C0000
003E0000
004F0000
018FFFC0
020E0000
040E0000
0C0C0000
180C0000
300C0000
70180000
70180000
E0300000
E0200000
E0600000
E0400000
E0800000
E1000000
FE000000
20000000
ENDCHAR
STARTCHAR 00F4
ENCODING 244
SWIDTH 238 0
DWIDTH 20 0
BBX 26 34 3 0
BITMAP
00006000
0000E000
00016000
00026000
00046000
00086000
00106000
00206000
00406000
00006000
00004000
00000000
00000000
00000000
00000000
000C0000
003E0000
004F0000
018FFFC0
020E0000
040E0000
0C0C0000
180C0000
300C0000
70180000
70180000
E0300000
E0200000
E0600000
E0400000
E0800000
E1000000
FE000000
20000000
ENDCHAR
STARTCHAR 00F5
ENCODING 245
SWIDTH 238 0
DWIDTH 20 0
BBX 26 32 3 -1
BITMAP
001C0000
007E0100
00870200
01038200
0201E400
0200F800
00000000
00000000
00000000
00000000
00000000
00000000
00000000
000C0000
003E0000
004F0000
018FFFC0
020E0000
040E0000
0C0C0000
180C0000
300C0000
70180000
70180000
E0300000
E0200000
E0600000
E0400000
E0800000
E1000000
FE000000
20000000
ENDCHAR
STARTCHAR 00F6
ENCODING 246
SWIDTH 238 0
DWIDTH 20 0
BBX 26 32 3 -1
BITMAP
000C0000
001C7000
001C7000
0038F000
0000E000
00000000
00000000
00000000
00000000
00000000
00000000
00000000
00000000
000C0000
003E0000
004F0000
018FFFC0
020E0000
040E0000
0C0C0000
180C0000
300C0000
70180000
70180000
E0300000
E0200000
E0600000
E0400000
E0800000
E1000000
FE000000
20000000
ENDCHAR
STARTCHAR 00F7
ENCODING 247
SWIDTH 404 0
DWIDTH 34 0
BBX 20 15 11 3
BITMAP
000C00
001C00
001800
000000
000000
000000
FFFFF0
7FFFE0
000000
000000
000000
000000
060000
0E0000
0C0000
ENDCHAR
STARTCHAR 00F8
ENCODING 248
SWIDTH 238 0
DWIDTH 20 0
BBX 29 22 2 -2
BITMAP
00002000
00002000
00004000
0001BFF8
0007FFC0
001B8000
00658000
00898000
01918000
03130000
06230000
0C420000
1C860000
1D040000
190C0000
3A080000
3C100000
38200000
3CC00000
3F000000
60000000
80000000
ENDCHAR
STARTCHAR 00F9
ENCODING 249
SWIDTH 250 0
DWIDTH 21 0
BBX 19 37 3 -3
BITMAP
006000
006000
002000
003000
001000
001800
000800
000800
000400
000400
000000
000000
000000
000000
000000
00E000
01C000
018100
038180
070300
070700
0E0600
0C0C00
1C1C00
183800
385800
307000
70B000
617000
E26000
E4E000
F8E000
E0C000
01C020
01E0C0
01FF00
006000
ENDCHAR
STARTCHAR 00FA
ENCODING 250
SWIDTH 250 0
DWIDTH 21 0
BBX 25 38 3 -4
BITMAP
00000080
00000180
00000300
00000600
00000800
00003000
00006000
00008000
00010000
00060000
00080000
00000000
00000000
00000000
00000000
00000000
00E00000
01C00000
01810000
03818000
07030000
07070000
0E060000
0C0C0000
1C1C0000
18380000
38580000
30700000
70B00000
61700000
E2600000
E4E00000
F8E00000
E0C00000
01C02000
01E0C000
01FF0000
00600000
ENDCHAR
STARTCHAR 00FB
ENCODING 251
SWIDTH 250 0
DWIDTH 21 0
BBX 21 37 3 -3
BITMAP
000018
000038
000058
000098
000118
000218
000418
000818
001018
002018
000000
000000
000000
000000
000000
00E000
01C000
018100
038180
070300
070700
0E0600
0C0C00
1C1C00
183800
385800
307000
70B000
617000
E26000
E4E000
F8E000
E0C000
01C020
01E0C0
01FF00
006000
ENDCHAR
STARTCHAR 00FC
ENCODING 252
SWIDTH 250 0
DWIDTH 21 0
BBX 21 35 3 -4
BITMAP
000200
000718
000E38
000E38
000030
000000
000000
000000
000000
000000
000000
000000
000000
00E000
01C000
018100
038180
070300
070700
0E0600
0C0C00
1C1C00
183800
385800
307000
70B000
617000
E26000
E4E000
F8E000
E0C000
01C020
01E0C0
01FF00
006000
ENDCHAR
STARTCHAR 00FD
ENCODING 253
SWIDTH 250 0
DWIDTH 21 0
BBX 42 78 -16 -47
BITMAP
000000000040
0000000000C0
000000000180
000000000200
000000000400
000000000800
000000003000
000000006000
000000008000
000000010000
000000020000
000000000000
000000000C00
000000000C00
000000001C00
000001001800
000003803000
000003803000
000003806000
00000300C000
000007018000
000007010000
000007020000
000007040000
0000060C0000
00000E180000
00000E300000
00000E200000
00000E400000
00000EC00000
00001F800000
00001F000000
000002000000
000002000000
000004000000
000008000000
000010000000
000010000000
000020000000
000040000000
000040000000
000080000000
000100000000
000200000000
000200000000
000400000000
000800000000
000800000000
001000000000
001000000000
002000000000
004000000000
004000000000
008000000000
018000000000
010000000000
030000000000
060000000000
060000000000
0C0000000000
1C0000000000
180000000000
380000000000
380000000000
700000000000
700000000000
700000000000
F00000000000
E00000000000
E00000000000
E00000000000
E00000000000
600000000000
700000000000
300000000000
100000000000
080000000000
040000000000
ENDCHAR
STARTCHAR 00FE
ENCODING 254
SWIDTH 261 0
DWIDTH 22 0
BBX 40 70 -12 -25
BITMAP
0000000007
000000000E
000000000E
000000001C
000000001C
0000000038
0000000038
0000000070
00000000E0
00000000E0
00000001C0
00000001C0
0000000380
0000000380
0000000700
0000000600
0000000E00
0000000C00
0000001C00
0000001800
0000003800
0000003000
0000006000
000000E000
000000C000
000001CE00
0000018700
0000038780
0000030380
0000060380
0000060780
00000C0780
00000C0700
0000180F00
0000180E01
0000301C02
000060380C
0000607030
0000C0C1C0
0000C18600
0001833800
000185C000
00031A0000
0002E00000
00FD000000
01EC000000
0008000000
0018000000
0030000000
0030000000
0060000000
0060000000
00C0000000
01C0000000
0180000000
0380000000
0300000000
0700000000
0600000000
0E00000000
1C00000000
1C00000000
3800000000
3800000000
7800000000
7800000000
F806000000
FEF8000000
FF80000000
7800000000
ENDCHAR
STARTCHAR 00FF
ENCODING 255
SWIDTH 250 0
DWIDTH 21 0
BBX 41 76 -16 -47
BITMAP
00000000E180
00000000E380
00000001E780
000000018700
000000000000
000000000000
000000000000
000000000000
000000000200
000000000380
000000000380
000000000700
000003800600
000003800E00
000003801C00
000003801800
000003003000
000007006000
00000700C000
000007018000
000007030000
000007060000
00000E060000
00000E0C0000
00000E180000
00000E300000
00000E600000
00001EC00000
00001FC00000
00001F800000
000001000000
000002000000
000002000000
000004000000
000008000000
000010000000
000020000000
000020000000
000040000000
000080000000
000080000000
000100000000
000200000000
000400000000
000400000000
000800000000
001000000000
001000000000
002000000000
006000000000
004000000000
008000000000
018000000000
010000000000
030000000000
060000000000
060000000000
0C0000000000
1C0000000000
180000000000
380000000000
380000000000
700000000000
700000000000
700000000000
F00000000000
E00000000000
E00000000000
E00000000000
E00000000000
600000000000
700000000000
300000000000
100000000000
080000000000
040000000000
ENDCHAR
STARTCHAR 0100
ENCODING 256
SWIDTH 726 0
DWIDTH 61 0
BBX 69 52 -4 0
BITMAP
000000000000001FC0
000000000000000000
000000000000000000
000000000000000000
000000000000000000
0000000007F8000038
000000003FFF800078
000000007FFFF000F8
00000001FFFFFF01F8
00000003C00000FF80
000000030000000300
000000060000000600
000000040000000E00
000000080000000C00
000000080000001C00
000000100000003C00
00000010000000F800
000000100000017800
000000100000017800
000000000000027000
00000000000004F000
00000000000008F000
00000000000011F000
00000000000011E000
00000000000021E000
00000000000043E000
00000000000083C000
00000000000103C000
00000000000207C000
00000000000407C000
020000000004078000
040000000008078000
0800000000100F8000
1800000000200F8000
1000000000400F8000
3000000007FFFF0000
2000000001001F0000
6000000002001F0000
600000000C001F0000
6000000010001F0000
E000000020001E0000
E000000040001E0000
E000000180001E0000
F000000200001E0000
F000000C00001E0000
7000001000001E0000
7800006000001E0000
7C00018000001E0000
3F00060000001E0000
1FF9F80000001FFC00
0FFFC00000001FE000
01FE000000000F0000
ENDCHAR
STARTCHAR 0101
ENCODING 257
SWIDTH 261 0
DWIDTH 22 0
BBX 26 28 2 0
BITMAP
0007F000
00000000
00000000
00000000
00000000
00000000
00000000
00000000
00000000
00002000
000FC000
0037C000
00418000
00818000
01030000
03020000
06060000
040C0000
0C0C0040
181C0080
18380100
30580300
30B80200
71380400
71381800
E2382000
FC38C000
F01F0000
ENDCHAR
STARTCHAR 0102
ENCODING 258
SWIDTH 726 0
DWIDTH 61 0
BBX 68 54 -4 1
BITMAP
000000000000001800
000000000000001810
000000000000001820
000000000000000C40
000000000000000780
000000000000000000
000000000000000000
0000000007F0000060
000000003FFF0001E0
000000007FFFE001E0
00000000FFFFFE07E0
00000001FFFFFFFF00
00000003FFFFFFCE00
00000007C000000C00
000000070000001C00
0000000C0000003800
0000000C0000003800
000000080000007800
00000010000000B000
000000100000017000
000000100000027000
000000100000047000
00000000000004E000
00000000000008E000
00000000000011E000
00000000000021E000
00000000000041C000
00000000000043C000
00000000000083C000
00000000000103C000
000000000002078000
000000000004078000
000000000004078000
040000000008078000
0400000000100F8000
0800000000200F0000
1000000000400F0000
3000000007FFFF0000
2000000001001F0000
6000000002001F0000
600000000C001F0000
6000000010001E0000
E000000020001E0000
E0000000C0001E0000
E000000100001E0000
F000000200001E0000
F000000C00001E0000
7800003000001E0000
7C0000C000001E0000
7F00078000001E0000
3FFFFE0000001FF800
1FFFF80000001FE000
0FFFE00000001FC000
01FE000000000E0000
ENDCHAR
STARTCHAR 0103
ENCODING 259
SWIDTH 261 0
DWIDTH 22 0
BBX 26 30 2 -1
BITMAP
00040000
000C0200
000C0400
000E0800
0007B000
0001C000
00000000
00000000
00000000
00000000
00000000
00002000
000FC000
0037C000
00418000
00818000
01030000
03020000
06060000
040C0000
0C0C0040
181C0080
18380100
30580300
30B80200
71380400
71381800
E2382000
FC38C000
F01F0000
ENDCHAR
STARTCHAR 0104
ENCODING 260
SWIDTH 726 0
DWIDTH 61 0
BBX 66 55 -4 -8
BITMAP
0000000007F00000C0
000000003FFF0003C0
000000007FFFE003C0
00000000FFFFFC0FC0
00000001FFFFFFFE00
00000003FFFFFF9C00
00000003C000001800
000000070000003800
000000060000007000
0000000C0000007000
00000008000000F000
000000080000016000
00000008000002E000
00000010000004E000
00000010000004E000
00000010000009C000
00000000000011C000
00000000000023C000
00000000000023C000
000000000000438000
000000000000878000
000000000000878000
000000000001078000
0000000000020F0000
0000000000020F0000
0000000000040F0000
0200000000080F0000
0400000000101F0000
0800000000101E0000
1000000000201E0000
3000000007FFFE0000
3000000000803E0000
6000000001003E0000
6000000006003E0000
6000000008003E0000
E000000010003C0000
E000000060003C0000
E000000080003C0000
F000000100003C0000
F000000600003C0000
7000000800003C0000
7800003000003C0000
7C0000C000003C0000
3F00070000003C0000
1FF9F80000003EE000
0FFFE00000003F8000
01FE000000001C0000
000000000000100000
000000000000100000
000000000000200000
000000000000200000
000000000000200000
000000000000200000
000000000000300000
0000000000001E0000
ENDCHAR
STARTCHAR 0105
ENCODING 261
SWIDTH 261 0
DWIDTH 22 0
BBX 26 33 2 -14
BITMAP
00002000
000FC000
0037C000
00418000
00818000
01030000
03020000
06060000
040C0000
0C0C0040
181C0080
18380100
30580300
30B80200
71380400
71381800
E2382000
FC38C000
F01F0000
00000000
00000000
00000000
00000000
00400000
01800000
02000000
0C000000
18000000
30000000
30000000
38000000
3C000000
02000000
ENDCHAR
STARTCHAR 0106
ENCODING 262
SWIDTH 666 0
DWIDTH 56 0
BBX 50 66 7 -6
BITMAP
000000000000C0
00000000000180
00000000000300
00000000000600
00000000001800
00000000003000
00000000004000
00000000008000
00000000010000
00000000060000
00000000000000
00000000000000
00000000000000
000000001FC000
00000003FFF800
0000000FFFFC00
0000007803FE00
000001C0007F00
00000600001F00
00000800000F00
00003000000700
00004000000700
00018000000700
00020000000700
00040000000600
00080000000000
00100000000000
00200000000000
00400000000000
00800000000000
00800000000000
01000000000000
03000000000000
06000000000000
06000000000000
0C000000000000
0C000000000000
18000000000000
18000000000000
38000000000000
38000000000000
70000000000000
70000000000000
70000000000600
70000000000600
F0000000000700
F0000000000700
F0000000000700
F0000000000F00
F0000000000E00
F0000000001E00
F8000000001C00
F8000000003800
78000000007000
78000000007000
7C00000000E000
3C00000001C000
3E000000038000
1F0000000E0000
1F8000001C0000
0FC00000380000
07E00000E00000
03F80003800000
00FF001E000000
003FFFF0000000
0007FF00000000
ENDCHAR
STARTCHAR 0107
ENCODING 263
SWIDTH 226 0
DWIDTH 19 0
BBX 24 33 4 0
BITMAP
000003
000006
00000C
000018
000060
0000C0
000100
000200
000C00
001000
000000
000000
000000
000000
000000
001F00
006700
018300
030000
060000
0C0000
1C0000
180000
380010
300020
700040
700080
E00300
E00400
E00800
E03000
70C000
7F0000
ENDCHAR
STARTCHAR 0108
ENCODING 264
SWIDTH 666 0
DWIDTH 56 0
BBX 48 67 7 -7
BITMAP
000000000004
00000000000C
00000000001C
00000000006C
00000000008C
00000000010C
00000000020C
00000000040C
00000000080C
00000000180C
000000000008
000000000000
000000000000
000000000000
000000001FC0
00000003FFF8
0000000FFFFC
0000007807FE
0000018000FF
00000600003F
00000800001E
00003000001E
00004000000C
00018000000C
00020000000C
000400000008
000800000000
001000000000
002000000000
004000000000
008000000000
008000000000
010000000000
020000000000
060000000000
060000000000
0C0000000000
0C0000000000
180000000000
180000000000
380000000000
380000000000
700000000000
700000000000
700000000008
70000000000C
F0000000000C
F0000000000C
F0000000001C
F00000000018
F00000000018
F00000000030
F80000000030
F80000000060
F800000000C0
7800000000C0
7C0000000180
7C0000000300
3E0000000600
3F0000000C00
1F0000003000
0F8000006000
07E000018000
03F800070000
01FE00380000
007FFFE00000
0007FE000000
ENDCHAR
STARTCHAR 0109
ENCODING 265
SWIDTH 214 0
DWIDTH 18 0
BBX 22 33 3 0
BITMAP
000060
0000E0
000160
000260
000460
000860
001060
002060
004060
000060
000040
000000
000000
000000
000000
003F00
00C700
010600
030600
060C00
0C1800
182000
18C000
310000
7E000C
700010
E00020
E00040
E00080
E00300
E00C00
F83000
7FC000
ENDCHAR
STARTCHAR 010A
ENCODING 266
SWIDTH 666 0
DWIDTH 56 0
BBX 48 61 7 -7
BITMAP
0000000001C0
0000000003C0
0000000003C0
000000000380
000000000000
000000000000
000000000000
000000000000
000000001FC0
00000003FFF8
0000000FFFFC
0000007803FE
000001C0007F
00000600001F
00000800000F
000030000007
000040000007
000180000007
000200000007
000400000006
000800000000
001000000000
002000000000
004000000000
008000000000
008000000000
010000000000
030000000000
060000000000
060000000000
0C0000000000
0C0000000000
180000000000
180000000000
380000000000
380000000000
700000000000
700000000000
700000000006
700000000006
F00000000007
F00000000007
F00000000007
F0000000000F
F0000000000E
F0000000001E
F8000000001C
F80000000038
780000000070
780000000070
7C00000000E0
3C00000001C0
3E0000000380
1F0000000E00
1F8000001C00
0FC000003800
07E00000E000
03F800038000
00FF001E0000
003FFFF00000
0007FF000000
ENDCHAR
STARTCHAR 010B
ENCODING 267
SWIDTH 226 0
DWIDTH 19 0
BBX 20 29 4 0
BITMAP
000F00
000F00
000E00
000000
000000
000000
000000
000000
000000
000000
000000
001F00
006700
018300
030000
060000
0C0000
1C0000
180000
380010
300020
700040
700080
E00300
E00400
E00800
E03000
70C000
7F0000
ENDCHAR
STARTCHAR 010C
ENCODING 268
SWIDTH 666 0
DWIDTH 56 0
BBX 48 68 7 -6
BITMAP
000000000300
000000000701
000000000702
000000000704
000000000708
000000000710
000000000720
000000000740
000000000780
000000000600
000000000000
000000000000
000000000000
000000000000
000000000000
000000001FC0
00000003FFF8
0000000FFFFC
0000007803FE
000001C0007F
00000600001F
00000800000F
000030000007
000040000007
000180000007
000200000007
000400000006
000800000000
001000000000
002000000000
004000000000
008000000000
008000000000
010000000000
030000000000
060000000000
060000000000
0C0000000000
0C0000000000
180000000000
180000000000
380000000000
380000000000
700000000000
700000000000
700000000006
700000000006
F00000000007
F00000000007
F00000000007
F0000000000F
F0000000000E
F0000000001E
F8000000001C
F80000000038
780000000070
780000000070
7C00000000E0
3C00000001C0
3E0000000380
1F0000000E00
1F8000001C00
0FC000003800
07E00000E000
03F800038000
00FF001E0000
003FFFF00000
0007FF000000
ENDCHAR
STARTCHAR 010D
ENCODING 269
SWIDTH 226 0
DWIDTH 19 0
BBX 23 34 4 -1
BITMAP
000400
000C02
000C04
000C08
000C10
000C20
000C40
000C80
000D00
000E00
000C00
000000
000000
000000
000000
000000
001F00
006700
018300
030000
060000
0C0000
1C0000
180000
380010
300020
700040
700080
E00300
E00400
E00800
E03000
70C000
7F0000
ENDCHAR
STARTCHAR 010E
ENCODING 270
SWIDTH 726 0
DWIDTH 61 0
BBX 74 69 -6 0
BITMAP
00000000000000018000
00000000000000038080
00000000000000038100
00000000000000038200
00000000000000038400
00000000000000038800
00000000000000039000
0000000000000003A000
0000000000000003C000
00000000000000030000
00000000000000020000
00000000000000000000
00000000000000001FC0
0000000000000000FFC0
00000000000000038000
00000000000000040000
00000000000000180000
00000000000000200000
00000000000000400000
00000000000000800000
00000000FFFFFF800000
0000007F0000FFF00000
00000780000003FC0000
000038000000047F0000
0001C0000000041F8000
000600000000080FE000
0018000000001007E000
0060000000001003F000
0080000000002001F800
0100000000002000F800
0200000000004000FC00
040000000000C0007C00
08000000000080007C00
18000000000180007E00
30000000000100003E00
30000000000300003E00
70000000000200003E00
60000000000600003E00
60000000000C00003E00
E0000000000C00003E00
E0000000001800003E00
E0000000001800003E00
E0000000003000003C00
E0000000003000003C00
E0000000006000007C00
60000000006000007C00
0000000000E000007800
0000000000C000007800
0000000001C00000F000
0000000001800000F000
0000000003800001E000
0000000003000001C000
0000000007000003C000
00000000060000038000
000000000E0000070000
000000001C00000E0000
000000001800000C0000
00000000380000180000
00000000300000300000
00000000600000600000
00000000C00000800000
00000001800003000000
00000001000004000000
00000002000018000000
0000000C000060000000
00000010000180000000
00000060000600000000
00000080007800000000
00FFFFFFFF8000000000
ENDCHAR
STARTCHAR 010F
ENCODING 271
SWIDTH 226 0
DWIDTH 19 0
BBX 18 56 3 0
BITMAP
200000
600000
700000
380000
380000
1C0000
1C0180
0E03C0
0E01C0
0600C0
0700C0
030080
038180
018100
01C200
00C400
00C800
007000
006000
007000
003000
003000
001800
001800
001800
000800
000C00
000C00
000C00
000400
000600
000600
000200
000200
000200
000200
000200
000200
000E00
003200
006200
00C200
038200
070200
0E0200
0C0600
1C0400
380400
380C00
700800
701000
703000
E02000
E04000
E18000
7E0000
ENDCHAR
STARTCHAR 0110
ENCODING 272
SWIDTH 726 0
DWIDTH 61 0
BBX 74 56 -6 1
BITMAP
00000000000000001FC0
0000000000000000FFC0
00000000000000038000
00000000000000040000
00000000000000180000
00000000000000200000
00000000000000400000
00000000000000800000
00000000FFFFFF800000
0000003F0000FFF00000
000007C0000003FC0000
000038000000047F0000
0000C0000000041F8000
000700000000080FE000
0018000000001807F000
0020000000001003F000
00C0000000002001F800
0100000000002000F800
0200000000004000FC00
040000000000C0007C00
0C000000000080007E00
18000000000180007E00
10000000000100003E00
30000000000300003E00
30000000000300003E00
60000000000600003E00
60000000000600003E00
E0000000000C00003E00
E0000000001C00003E00
E0000000001800003E00
E0000000003800003C00
E0000000003000003C00
E0000000007000007C00
E0000000006000007800
60000000FFFFF0007800
0000000000C000007000
0000000001C00000F000
0000000001800000E000
0000000003800001E000
0000000003000001C000
00000000070000038000
000000000E0000030000
000000000E0000060000
000000001C00000C0000
00000000180000180000
00000000380000100000
00000000700000200000
00000000600000C00000
00000000C00001000000
00000001800002000000
0000000300000C000000
00000006000030000000
000000080000C0000000
00000010000300000000
00000060001C00000000
0000018001E000000000
ENDCHAR
STARTCHAR 0111
ENCODING 273
SWIDTH 226 0
DWIDTH 19 0
BBX 21 56 3 1
BITMAP
400000
E00000
E00000
F00000
780000
380000
3C0000
1C0000
0E0000
0F0000
070000
038000
038000
01C000
01C000
00C000
006000
006000
003000
003000
001800
001800
000800
000C00
000400
000400
000600
000200
0FFFF8
080200
000200
000200
000200
000200
000200
000200
000200
000200
000E00
003200
006200
01C200
038200
070600
0E0400
1C0400
1C0C00
380800
780800
701800
703000
E02000
E04000
E08000
E30000
7C0000
ENDCHAR
STARTCHAR 0112
ENCODING 274
SWIDTH 642 0
DWIDTH 54 0
BBX 53 62 2 -11
BITMAP
0000000001FC00
00000000000000
00000000000000
00000000000000
00000000000000
0000000003FC00
000000003FFF00
00000000C03F80
00000003000F80
0000000C000380
00000018000380
00000070000300
00000060000200
000000E0000000
000001E0000000
000001E0000000
000001E0000000
000001F0000000
000000F0000000
000000F8000000
00000078000000
0000007C000000
0000003C000000
0000003C000000
0000003C000000
00000038000000
00000070000000
000001C0000000
00000E00000000
000070000003F0
0001C000000FF8
00060000003078
0018000000C038
00600000030038
01C00000040038
03800000080038
07000000200030
1E000000400030
1C000000800060
38000001000060
780000020000C0
78000004000080
F0000008000180
F0000010000300
F0000020000600
F0000040000C00
F0000080001000
F0000100002000
F000020000C000
78000200010000
78000400060000
3C000800180000
1E000800600000
0F001001800000
0780200E000000
01F020F0000000
001FFF00000000
00008000000000
00008000000000
00010000000000
00010000000000
00010000000000
ENDCHAR
STARTCHAR 0113
ENCODING 275
SWIDTH 214 0
DWIDTH 18 0
BBX 22 28 3 0
BITMAP
001FC0
000000
000000
000000
000000
000000
000000
000000
000000
000000
003F00
00C700
010600
030600
060C00
0C1800
182000
18C000
310000
7E000C
700010
E00020
E00040
E00080
E00300
E00C00
F83000
7FC000
ENDCHAR
STARTCHAR 0114
ENCODING 276
SWIDTH 642 0
DWIDTH 54 0
BBX 53 66 2 -10
BITMAP
00000000060080
00000000060100
00000000060200
00000000030400
0000000001F800
00000000000000
00000000000000
00000000000000
00000000000000
0000000003FC00
000000003FFF00
00000000C03F80
00000003000F80
0000000C000380
00000018000380
00000070000300
00000060000200
000000E0000000
000001E0000000
000001E0000000
000001E0000000
000001F0000000
000000F0000000
000000F8000000
00000078000000
0000007C000000
0000003C000000
0000003C000000
0000003C000000
00000038000000
00000070000000
000001C0000000
00000E00000000
000070000003F0
0001C000000FF8
00060000003078
0018000000C038
00600000030038
01C00000040038
03800000080038
07000000200030
1E000000400030
1C000000800060
38000001000060
780000020000C0
78000004000080
F0000008000180
F0000010000300
F0000020000600
F0000040000C00
F0000080001000
F0000100002000
F000020000C000
78000200010000
78000400060000
3C000800180000
1E000800600000
0F001001800000
0780200E000000
01F020F0000000
001FFF00000000
00008000000000
00008000000000
00010000000000
00010000000000
00010000000000
ENDCHAR
STARTCHAR 0115
ENCODING 277
SWIDTH 214 0
DWIDTH 18 0
BBX 22 30 3 -1
BITMAP
004000
00C020
00C040
006080
007B00
001C00
000000
000000
000000
000000
000000
000000
003F00
00C700
010600
030600
060C00
0C1800
182000
18C000
310000
7E000C
700010
E00020
E00040
E00080
E00300
E00C00
F83000
7FC000
ENDCHAR
STARTCHAR 0116
ENCODING 278
SWIDTH 642 0
DWIDTH 54 0
BBX 53 65 2 -11
BITMAP
00000000007000
0000000000F000
0000000000F000
0000000000E000
00000000000000
00000000000000
00000000000000
00000000000000
0000000003FC00
000000003FFF00
00000000C03F80
00000003000F80
0000000C000380
00000018000380
00000070000300
00000060000200
000000E0000000
000001E0000000
000001E0000000
000001E0000000
000001F0000000
000000F0000000
000000F8000000
00000078000000
0000007C000000
0000003C000000
0000003C000000
0000003C000000
00000038000000
00000070000000
000001C0000000
00000E00000000
000070000003F0
0001C000000FF8
00060000003078
0018000000C038
00600000030038
01C00000040038
03800000080038
07000000200030
1E000000400030
1C000000800060
38000001000060
780000020000C0
78000004000080
F0000008000180
F0000010000300
F0000020000600
F0000040000C00
F0000080001000
F0000100002000
F000020000C000
78000200010000
78000400060000
3C000800180000
1E000800600000
0F001001800000
0780200E000000
01F020F0000000
001FFF00000000
00008000000000
00008000000000
00010000000000
00010000000000
00010000000000
ENDCHAR
STARTCHAR 0117
ENCODING 279
SWIDTH 214 0
DWIDTH 18 0
BBX 22 29 3 0
BITMAP
000380
000780
000700
000200
000000
000000
000000
000000
000000
000000
000000
003F00
00C700
010600
030600
060C00
0C1800
182000
18C000
310000
7E000C
700010
E00020
E00040
E00080
E00300
E00C00
F83000
7FC000
ENDCHAR
STARTCHAR 0118
ENCODING 280
SWIDTH 642 0
DWIDTH 54 0
BBX 53 59 2 -12
BITMAP
0000000007F800
000000007FFF00
00000001C03F80
0000000E000F80
0000001C000380
00000078000380
000000F0000300
000001E0000200
000003E0000000
000007E0000000
000007E0000000
000007E0000000
000007F0000000
000003F0000000
000001F8000000
000000F8000000
0000007C000000
0000007C000000
0000003C000000
0000003C000000
00000038000000
00000070000000
000001C0000000
00000E00000000
000070000003F0
0001C000000FF8
00060000003078
0018000000C038
00600000030038
01C00000040038
03800000080038
07000000200030
1E000000400030
1C000000800060
38000001000060
780000020000C0
78000004000080
F0000008000180
F0000010000300
F0000020000600
F0000040000C00
F0000080001000
F0000100002000
F000020000C000
78000200010000
78000400060000
3C000800180000
1E000800600000
0F001001800000
0780200E000000
01F020F0000000
001FFF0C000000
00008030000000
000080C0000000
00008100000000
00010300000000
00010700000000
00030780000000
000003E0000000
ENDCHAR
STARTCHAR 0119
ENCODING 281
SWIDTH 214 0
DWIDTH 18 0
BBX 22 27 3 -8
BITMAP
003F00
00C700
010600
030600
060C00
0C1800
182000
18C000
310000
7E000C
700010
E00020
E00040
E00080
E00300
E00C00
F83000
7FC000
020000
040000
180000
300000
600000
600000
700000
780000
1C0000
ENDCHAR
STARTCHAR 011A
ENCODING 282
SWIDTH 642 0
DWIDTH 54 0
BBX 53 72 2 -11
BITMAP
00000000008000
00000000038080
00000000038100
00000000038200
00000000038400
00000000038800
00000000039000
0000000003A000
0000000003C000
00000000038000
00000000020000
00000000000000
00000000000000
00000000000000
00000000000000
0000000003FC00
000000003FFF00
00000000C03F80
00000003000F80
0000000C000380
00000018000380
00000070000300
00000060000200
000000E0000000
000001E0000000
000001E0000000
000001E0000000
000001F0000000
000000F0000000
000000F8000000
00000078000000
0000007C000000
0000003C000000
0000003C000000
0000003C000000
00000038000000
00000070000000
000001C0000000
00000E00000000
000070000003F0
0001C000000FF8
00060000003078
0018000000C038
00600000030038
01C00000040038
03800000080038
07000000200030
1E000000400030
1C000000800060
38000001000060
780000020000C0
78000004000080
F0000008000180
F0000010000300
F0000020000600
F0000040000C00
F0000080001000
F0000100002000
F000020000C000
78000200010000
78000400060000
3C000800180000
1E000800600000
0F001001800000
0780200E000000
01F020F0000000
001FFF00000000
00008000000000
00008000000000
00010000000000
00010000000000
00010000000000
ENDCHAR
STARTCHAR 011B
ENCODING 283
SWIDTH 214 0
DWIDTH 18 0
BBX 22 34 3 -1
BITMAP
000400
000C04
000C04
000C08
000C10
000C20
000C40
000C80
000D00
000E00
000800
000000
000000
000000
000000
000000
003F00
00C700
010600
030600
060C00
0C1800
182000
18C000
310000
7E000C
700010
E00020
E00040
E00080
E00300
E00C00
F83000
7FC000
ENDCHAR
STARTCHAR 011C
ENCODING 284
SWIDTH 642 0
DWIDTH 54 0
BBX 70 79 -4 -25
BITMAP
000000000000004000
00000000000001C000
00000000000002C000
00000000000004C000
00000000000008C000
00000000000010C000
0000000000003FF800
000000000003E0CF00
00000000001E80C100
0000000000F800809C
0000000003E0000024
000000000F80000044
000000003E0000008C
000000007800000108
00000001F000000210
00000003E000000430
000000078000000C60
0000001F0000001840
0000003E0000003080
0000007C0000006100
000000F80000006300
000001F0000000C600
000003E00000018800
000003C00000039000
000007800000032000
00000F800000064000
00001F0000000E8000
00001E0000000D0000
00003E0000001E0000
00007C000000380000
000078000000380000
0000F8000000700000
0000F0000000F00000
0000F0000001E00000
0001F0000007E00000
0001E000000BC00000
0001E0000033C00000
0001E0000047800000
0001E0000107800008
0001E000060F0001F0
0000E000380E001E00
00007000C01E01E000
00003C07001C0E0000
00000FF8003CF00000
00000000007F000000
000000000078000000
0000000001F0000000
000000000EF0000000
0000000071E0000000
0000000381E0000000
0000001C03C0000000
000000E00380000000
000003000780000000
00000C000700000000
000030000E00000000
0000C0001E00000000
000300001C00000000
000C00003800000000
003800003800000000
006000007000000000
00C00000E000000000
03800000E000000000
07000001C000000000
0E0000018000000000
1C0000030000000000
3C0000070000000000
3800000E0000000000
7800000C0000000000
700000180000000000
F00000300000000000
F00000600000000000
F00000C00000000000
F00001800000000000
F00003000000000000
F80004000000000000
780018000000000000
3C0060000000000000
1F0380000000000000
03FC00000000000000
ENDCHAR
STARTCHAR 011D
ENCODING 285
SWIDTH 273 0
DWIDTH 23 0
BBX 62 67 -33 -32
BITMAP
00000000000000C0
00000000000001C0
00000000000002C0
00000000000004C0
00000000000008C0
00000000000010C0
00000000000020C0
00000000000040C0
00000000000080C0
0000000000000080
0000000000000000
0000000000000000
0000000000000000
00000000000001C0
00000000000001C0
0000000000000380
0000000000007F80
0000000000018700
0000000000060600
0000000000080E00
0000000000101C00
0000000000301C00
0000000000603800
0000000000C07000
0000000001807000
000000000380E004
000000000701C008
000000000602C010
000000000E058020
000000000C0980C0
000000001C130100
000000001C620600
000000001F861800
000000001E04E000
00000000000F0000
0000000000380000
0000000001D00000
000000001E300000
00000000E0200000
0000000F00600000
000000F000C00000
0000070000C00000
0000780001800000
0001800003000000
000E000003000000
0030000006000000
00C000000C000000
038000001C000000
0600000018000000
1C00000030000000
3800000070000000
30000000E0000000
70000000C0000000
6000000180000000
E000000380000000
C000000700000000
C000000E00000000
C000001C00000000
C000003800000000
C000007000000000
400000E000000000
600003C000000000
2000078000000000
10001E0000000000
0800780000000000
0603E00000000000
01FF000000000000
ENDCHAR
STARTCHAR 011E
ENCODING 286
SWIDTH 642 0
DWIDTH 54 0
BBX 70 82 -4 -25
BITMAP
0000000000000C0200
0000000000000C0200
0000000000000C0400
000000000000061800
00000000000003E000
000000000000000000
000000000000000000
000000000000000000
000000000000000000
0000000000001FFC00
000000000003E00700
00000000001F000180
0000000000F800009C
0000000003E0000024
000000000F80000044
000000003E0000008C
000000007C00000108
00000001F000000218
00000003E000000430
000000078000000C20
0000001F0000001840
0000003E00000030C0
0000007C0000003180
000000F80000006300
000001F0000000C600
000003E0000001CC00
000003C00000019800
000007800000031000
00000F800000076000
00001F0000000E8000
00001E0000000D0000
00003E0000001E0000
00007C0000003C0000
000078000000380000
0000F8000000700000
0000F0000000F00000
0000F0000001E00000
0001F0000003E00000
0001E000000DC00000
0001E0000033C00000
0001E0000043800000
0001E0000187800008
0001E000060F0000F0
0000E000180F000F00
00007000E01E00F000
00003C07001E0F0000
000007F8003CF00000
00000000003F000000
000000000078000000
0000000001F0000000
000000000EF0000000
0000000071E0000000
0000000381E0000000
0000001C03C0000000
000000E00380000000
000003000780000000
00000C000700000000
000030000F00000000
0000C0001E00000000
000300001C00000000
000C00003C00000000
003800003800000000
006000007000000000
00C000006000000000
03800000E000000000
07000001C000000000
0E0000018000000000
1C0000030000000000
3C0000070000000000
3800000E0000000000
7800000C0000000000
700000180000000000
F00000300000000000
F00000600000000000
F00000C00000000000
F00001800000000000
F00003000000000000
F80004000000000000
780018000000000000
3C0060000000000000
1F0380000000000000
03FC00000000000000
ENDCHAR
STARTCHAR 011F
ENCODING 287
SWIDTH 273 0
DWIDTH 23 0
BBX 62 62 -33 -32
BITMAP
0000000000006010
0000000000006020
0000000000006040
0000000000003080
0000000000001F00
0000000000000000
0000000000000000
0000000000000000
00000000000001C0
00000000000001C0
0000000000000380
0000000000007F00
0000000000018700
0000000000060600
00000000000C0E00
0000000000180C00
0000000000301C00
0000000000603800
0000000000C07000
0000000001807000
000000000380E000
000000000701E004
000000000602C018
000000000E058020
000000000C098040
000000001C130180
000000001C620600
000000001F861800
000000001E04E000
00000000000F0000
0000000000380000
0000000001D80000
000000000E300000
00000000F0200000
0000000F00600000
0000007000C00000
0000078000C00000
0000380001800000
0001C00003800000
000E000003000000
0038000006000000
00E000000E000000
038000000C000000
0600000018000000
1C00000038000000
3800000070000000
30000000E0000000
70000000C0000000
60000001C0000000
E000000380000000
C000000700000000
C000000E00000000
C000001C00000000
C000003800000000
C000007000000000
400000E000000000
600003C000000000
2000078000000000
10001E0000000000
08007C0000000000
0603E00000000000
01FF000000000000
ENDCHAR
STARTCHAR 0120
ENCODING 288
SWIDTH 642 0
DWIDTH 54 0
BBX 70 81 -4 -26
BITMAP
000000000000003800
000000000000007800
000000000000007800
000000000000007000
000000000000000000
000000000000000000
000000000000000000
000000000000000000
0000000000001FFC00
000000000003E00700
00000000001F000180
0000000000F800009C
0000000003E0000024
000000000F80000044
000000001E0000008C
000000007C00000108
00000001F000000218
00000003E000000630
00000007C000000C20
0000000F0000001840
0000003E00000010C0
0000007C0000003180
000000F80000006300
000001F0000000C600
000003E0000000C400
000003C00000018800
000007800000039000
00000F800000072000
00001F000000064000
00001E0000000F8000
00003E0000001E0000
00007C0000001C0000
000078000000380000
0000F8000000780000
0000F0000000700000
0000F0000001F00000
0001F0000002E00000
0001E000000DE00000
0001E0000013C00000
0001E0000063800000
0001E0000187800008
0001E00006070000F0
0000E000180F000F00
00007000E01E00F000
00003C07001E0F0000
000007F8003C700000
00000000003F800000
000000000078000000
0000000001F8000000
000000000EF0000000
0000000070E0000000
0000000381E0000000
0000001C03C0000000
0000006003C0000000
000003800780000000
00000C000700000000
000030000F00000000
0000C0000E00000000
000300001C00000000
000C00001C00000000
001800003800000000
006000007000000000
00C000007000000000
03800000E000000000
07000001C000000000
0E0000018000000000
1C0000038000000000
3C0000070000000000
380000060000000000
7800000C0000000000
700000180000000000
F00000300000000000
F00000600000000000
F00000C00000000000
F00001800000000000
F00003000000000000
F80004000000000000
780018000000000000
3C0060000000000000
1F0180000000000000
03FE00000000000000
ENDCHAR
STARTCHAR 0121
ENCODING 289
SWIDTH 273 0
DWIDTH 23 0
BBX 60 62 -33 -33
BITMAP
0000000000000700
0000000000000F00
0000000000000F00
0000000000000E00
0000000000000000
0000000000000000
0000000000000000
0000000000000000
0000000000000300
0000000000000300
0000000000000600
000000000000FE00
0000000000030C00
0000000000041C00
0000000000081800
0000000000303800
0000000000603000
0000000000C07000
0000000000C0E000
000000000180E000
000000000301C000
000000000703C010
0000000006068020
000000000E058040
000000000C090180
000000001C130200
000000001C620C00
000000001F843000
000000001E0CC000
00000000000F0000
0000000000380000
0000000001D00000
000000001E300000
00000000E0600000
0000000F00600000
000000F000C00000
0000070000800000
0000780001800000
0001800003000000
000E000003000000
0030000006000000
00C000000C000000
038000001C000000
0600000018000000
1C00000030000000
3800000070000000
30000000E0000000
70000000C0000000
6000000180000000
E000000380000000
C000000700000000
C000000E00000000
C000001C00000000
C000003800000000
C000007000000000
400000E000000000
600003C000000000
2000078000000000
10001E0000000000
0800780000000000
0603E00000000000
01FF000000000000
ENDCHAR
STARTCHAR 0122
ENCODING 290
SWIDTH 642 0
DWIDTH 54 0
BBX 70 80 -4 -25
BITMAP
000000000000002000
000000000000004000
000000000000008000
000000000000010000
000000000000030000
000000000000060000
000000000000060000
0000000000001FF800
000000000003EE0F00
00000000001E0E0100
0000000000780C009C
0000000003E0000024
000000000F80000044
000000001E0000008C
000000007800000108
00000001F000000210
00000003E000000430
000000078000000C60
0000000F0000001840
0000003E0000003080
0000007C0000006100
000000F80000006300
000001F0000000C600
000003E00000018800
000003C00000039000
000007800000032000
00000F800000074000
00001F0000000E8000
00001E0000000D0000
00003E0000001E0000
00007C000000380000
000078000000380000
0000F8000000700000
0000F0000000F00000
0000F0000001E00000
0001F0000007E00000
0001E0000009C00000
0001E0000033C00000
0001E0000047800000
0001E0000107800018
0001E000060F0001E0
0000E000380F001E00
00007000C01E01E000
00003C07001E0E0000
000007F8003CF00000
00000000003F000000
000000000078000000
0000000001F0000000
000000000EF0000000
0000000071E0000000
0000000381E0000000
0000001C03C0000000
000000600380000000
000003800780000000
00000C000700000000
000030000F00000000
0000C0000E00000000
000300001C00000000
000C00003C00000000
003800003800000000
006000007000000000
00C000006000000000
03800000E000000000
07000001C000000000
0E0000018000000000
1C0000030000000000
3C0000070000000000
3800000E0000000000
7800000C0000000000
700000180000000000
F00000300000000000
F00000600000000000
F00000C00000000000
F00001800000000000
F00003000000000000
F80004000000000000
780018000000000000
3C0060000000000000
1F0380000000000000
03FC00000000000000
ENDCHAR
STARTCHAR 0123
ENCODING 291
SWIDTH 273 0
DWIDTH 23 0
BBX 62 69 -33 -33
BITMAP
0000000000000040
0000000000000080
0000000000000100
0000000000000200
0000000000000400
0000000000000C00
0000000000001800
0000000000001800
0000000000001800
0000000000003800
0000000000003C00
0000000000001C00
0000000000001800
0000000000000000
0000000000000000
0000000000000180
0000000000000380
0000000000000380
000000000000FF00
0000000000010600
0000000000040E00
0000000000080C00
0000000000101C00
0000000000203800
0000000000603800
0000000000C07000
000000000180E000
000000000300E004
000000000701C008
000000000602C010
000000000E058020
000000000C0900C0
000000001C130100
000000001C660600
000000001F863800
000000001E0CC000
00000000000F0000
0000000000380000
0000000001D00000
000000001E300000
00000000E0600000
0000000F00600000
000000F000C00000
0000070000800000
0000780001800000
0001800003000000
000E000003000000
0030000006000000
00C000000C000000
038000001C000000
0600000018000000
1C00000030000000
3800000070000000
30000000E0000000
70000000C0000000
6000000180000000
E000000380000000
C000000700000000
C000000E00000000
C000001C00000000
C000003800000000
C000007000000000
400000E000000000
600003C000000000
2000078000000000
10001E0000000000
0800780000000000
0603E00000000000
01FF000000000000
ENDCHAR
STARTCHAR 0124
ENCODING 292
SWIDTH 738 0
DWIDTH 62 0
BBX 90 76 -7 -16
BITMAP
000000000000000004000000
00000000000000000C000000
00000000000000001C000000
00000000000000002C000000
00000000000000004C000000
00000000000000008C000000
00000000000000010C000000
00000000000000030C000000
00000000000000060C000000
000000000000000C0C000000
000000000000004C0C001F80
00000000000000C000006FC0
0000000000000180000183C0
000000000003FF80000603C0
00000000007FFF00000803C0
0000000003FFFF00001003C0
0000000007FFFE0000200380
000000001FF8060000400780
000000003F80040000800700
000000007C000C0001000E00
00000000F000080003001C00
00000001E000180006003800
00000001C00010000C007000
00000003000030001C00E000
000000060000200018018000
000000060000600030060000
0000000C00004000700C0000
000000080000C000E0300000
0000001000008000C1800000
0000001000018001C6000000
0000002000010003B8000000
0000002000020003C0000000
000000400002000F00000000
000000400004003700000000
00000040000401CE00000000
0000008000080E0E00000000
000000800018701C00000000
000000800011801C00000000
000000800026003800000000
000000800038003800000000
0000000000E0007800000000
000000000140007000000000
00000000068000F000000000
00000000190000F000000000
00000000210000E000000000
00000000420001E000000000
00000001840001E000000000
00000002040001E000000000
00000004080003C000000000
80000008100003C000000000
80000010200003C000000000
80000020400007C000000000
80000040C00007C000000000
C0000081800007C000000000
C0000083000007C000000000
E0000104000007C000000000
70000218000007E000000000
78000230000007E000000000
3E0004E0000007F000000000
3FC00780000003FC18000000
1FFFFF00000003FFE0000000
07FFFC00000001FF80000000
01FF08000000007C00000000
000008000000000000000000
000008000000000000000000
000008000000000000000000
000008000000000000000000
00000C000000000000000000
00000C000000000000000000
000004000000000000000000
000006000000000000000000
000007000000000000000000
000003800000000000000000
000001C00000000000000000
000000F00000000000000000
0000001F8000000000000000
ENDCHAR
STARTCHAR 0125
ENCODING 293
SWIDTH 273 0
DWIDTH 23 0
BBX 93 100 -38 -41
BITMAP
000000000000000000020000
0000000000000000000E0000
000000000000000000160000
000000000000000000260FC0
000000000000000000467FF0
00000000000000000086C070
000000000000000001070018
000000000000000002060008
0000000000000000041E0008
000000000000000008260000
000000000000000000400000
000000000000000000800000
000000000000000001000000
000000000000000002000000
000000000000000004000000
000000000000000008000000
000000000000000010000000
000000000000000030000000
000000000000000060000000
000000000000000040000000
000000000000000080000000
000000000000000180000000
000000000000000300000000
000000000000000600000000
000000000000000400000000
000000000000000C00000000
000000000000001800000000
000000000000003000000000
000000000000003000000000
000000000000006000000000
00000000000000C000000000
00000000000000C000000000
000000000000018000000000
000000000000038000000000
000000000000030000000000
000000000000060000000000
0000000000000E0000000000
0000000000000C0000000000
0000000000001C0000000000
000000000000380000000000
000000000000300000000000
00000000000071C000000000
000000000000E3C000000000
000000000000EDC000000000
000000000001D18000000000
000000000001A18000000000
000000000003C38000000000
000000000007830010000000
000000000007030020000000
00000000000E070040000000
00000000000C060080000000
00000000001C0E0300000000
0000000000180C0400000000
0000000000381C1800000000
000000000030186000000000
000000000070198000000000
0000000000E0360000000000
0000000000C0380000000000
000000000180F00000000000
000000000003600000000000
00000000001CC00000000000
000000000060C00000000000
000000000381800000000000
000000000C01800000000000
000000007003000000000000
000000038003000000000000
0000000C0006000000000000
000000700004000000000000
00000180000C000000000000
000006000008000000000000
000018000018000000000000
000060000010000000000000
000180000020000000000000
000300000060000000000000
000C00000040000000000000
001000000080000000000000
006000000100000000000000
00C000000100000000000000
018000000200000000000000
030000000400000000000000
060000000400000000000000
0C0000000800000000000000
180000001000000000000000
380000002000000000000000
300000004000000000000000
700000008000000000000000
600000010000000000000000
600000020000000000000000
E00000020000000000000000
E00000040000000000000000
E00000180000000000000000
E00000200000000000000000
E00000400000000000000000
F00000800000000000000000
700001000000000000000000
780006000000000000000000
3C0018000000000000000000
1F00E0000000000000000000
0FFF80000000000000000000
03F800000000000000000000
ENDCHAR
STARTCHAR 0126
ENCODING 294
SWIDTH 750 0
DWIDTH 63 0
BBX 90 66 -7 -16
BITMAP
000000000000000000001F80
000000000000020000007FC0
0000000000000400000183C0
000000000001FC00000203C0
00000000003FFC00000403C0
0000000001FFF800000803C0
0000000007FFF80000100380
000000000FF8080000200780
000000001F80080000400700
000000003C00100000C00F00
000000007800100001800E00
00000000E000100003001C00
00000001C000200006001800
00000001800020000E003800
00000003000040001C006000
00000006000040001800C000
000000040000800078038000
0000000C00008001F0070000
0000000800008006700C0000
0000001000010038E0380000
00000010000101C1C0600000
0000002000010601C1800000
000000200002380386000000
000000200002C003B8000000
0000004000070007C0000000
00000040003C000700000000
0000004000E8003E00000000
00000080030803CE00000000
000000800C101C1C00000000
000000801820E01C00000000
000000802027003800000000
000000804058003800000000
0000000080E0007000000000
000000010380007000000000
000000000D00007000000000
00000000120000E000000000
00000000620000E000000000
00000001840000E000000000
00000002080001C000000000
80000004100001C000000000
80000008300001C000000000
80000010600003C000000000
80000020C00003C000000000
80000041800003C000000000
C0000083000003C000000000
E0000106000003C000000000
60000118000003E000000000
78000230000003E000000000
7E0002E0000003F000000000
3FC00780000001FC0E000000
1FFFFF00000001FFF8000000
07FFFC00000000FFE0000000
01FF08000000003F00000000
000008000000000000000000
000008000000000000000000
000008000000000000000000
000008000000000000000000
00000C000000000000000000
00000C000000000000000000
000004000000000000000000
000006000000000000000000
000007000000000000000000
000003800000000000000000
000001C00000000000000000
000000F00000000000000000
0000001F8000000000000000
ENDCHAR
STARTCHAR 0127
ENCODING 295
SWIDTH 273 0
DWIDTH 23 0
BBX 93 98 -38 -41
BITMAP
000000000000000000000F80
000000000000000000003FE0
00000000000000000000FFF0
00000000000000000001C070
000000000000000000060010
000000000000000000080008
000000000000000000100008
000000000000000000200000
000000000000000000400000
000000000000000000800000
000000000000000001000000
000000000000000002000000
000000000000000004000000
000000000000000008000000
000000000000000010000000
000000000000000020000000
000000000000000040000000
0000000000000000C0000000
000000000000000180000000
000000000000000100000000
000000000000000200000000
000000000000000600000000
000000000000000C00000000
000000000000000800000000
000000000000001800000000
000000000000003000000000
000000000000007000000000
000000000000006000000000
00000000000000C000000000
0000000000003FFFE0000000
000000000000018000000000
000000000000030000000000
000000000000070000000000
000000000000060000000000
0000000000000E0000000000
0000000000000C0000000000
000000000000180000000000
000000000000380000000000
00000000000030C000000000
00000000000071C000000000
000000000000E7C000000000
000000000000C9C000000000
000000000001D18000000000
000000000001A18000000000
000000000003838000000000
000000000007830010000000
000000000007070020000000
00000000000E070040000000
00000000000C060080000000
00000000001C0E0300000000
0000000000180C0400000000
0000000000381C1800000000
000000000030186000000000
000000000070198000000000
0000000000E0360000000000
0000000000C0380000000000
000000000180E00000000000
000000000003600000000000
00000000001CC00000000000
000000000060C00000000000
000000000381800000000000
000000000C01800000000000
000000007003000000000000
000000038003000000000000
0000000C0006000000000000
000000700004000000000000
00000180000C000000000000
000006000008000000000000
000018000018000000000000
000060000010000000000000
000180000020000000000000
000300000060000000000000
000C00000040000000000000
001000000080000000000000
006000000100000000000000
00C000000100000000000000
018000000200000000000000
030000000400000000000000
060000000400000000000000
0C0000000800000000000000
180000001000000000000000
380000002000000000000000
300000004000000000000000
700000008000000000000000
600000010000000000000000
600000020000000000000000
E00000020000000000000000
E00000040000000000000000
E00000180000000000000000
E00000200000000000000000
E00000400000000000000000
F00000800000000000000000
700001000000000000000000
780006000000000000000000
3C0018000000000000000000
1F00E0000000000000000000
0FFF80000000000000000000
03F800000000000000000000
ENDCHAR
STARTCHAR 0128
ENCODING 296
SWIDTH 357 0
DWIDTH 30 0
BBX 47 59 1 -1
BITMAP
000000003800
000000007C02
000000008E02
000000010704
00000002038C
0000000401F8
0000000000E0
000000000000
000000000000
000000000000
000000000000
000000007FFE
0000000F8004
000000700008
000001800010
000006000020
000008000040
000018000080
000030000100
000030000300
000060000200
000060000400
0000E0000C00
0000E0001800
0000E0001800
0000E0003000
0000F0007000
0000F000E000
00007800C000
00007801C000
00003E038000
00000C038000
000000070000
000000070000
0000000E0000
0000001E0000
0000001C0000
0000003C0000
000000780000
000000780000
000000F00000
000000E00000
000001E00000
000003C00000
000003C00000
000007800000
00000F000000
00000F000000
00001E000000
00003C000000
00007C000000
000078000000
0000F0000000
0001E0000000
0003C0000000
800F00000000
801E00000000
607800000000
1FC000000000
ENDCHAR
STARTCHAR 0129
ENCODING 297
SWIDTH 190 0
DWIDTH 16 0
BBX 21 32 3 -1
BITMAP
00E000
01F008
063810
081C10
100F20
1007C0
000000
000000
000000
000000
000000
000000
000000
004000
00C000
01C000
018000
030000
070000
060010
0E0020
0C0040
180080
180100
300200
700400
701800
602000
E0C000
F30000
FC0000
200000
ENDCHAR
STARTCHAR 012A
ENCODING 298
SWIDTH 357 0
DWIDTH 30 0
BBX 47 54 1 -1
BITMAP
000000003F80
000000000000
000000000000
000000000000
000000000000
000000000000
00000000FFFE
0000001F000C
000000600010
000001800020
000006000040
000008000080
000018000180
000030000300
000030000600
000060000E00
000060000C00
0000E0001800
0000E0003800
0000E0007000
0000E0007000
0000E000E000
0000F001E000
00007001C000
00007803C000
00003E078000
00000C070000
0000000F0000
0000000E0000
0000001E0000
0000003C0000
0000003C0000
000000780000
000000780000
000000F00000
000001F00000
000001E00000
000003E00000
000003C00000
000007800000
00000F800000
00000F000000
00001E000000
00003E000000
00003C000000
000078000000
0000F0000000
0001F0000000
0003E0000000
000780000000
800F00000000
801E00000000
607800000000
1FC000000000
ENDCHAR
STARTCHAR 012B
ENCODING 299
SWIDTH 190 0
DWIDTH 16 0
BBX 20 29 3 0
BITMAP
007F00
000000
000000
000000
000000
000000
000000
000000
000000
000000
004000
00C000
01C000
018000
030000
070000
060010
0E0020
0C0040
180080
180100
300200
700400
701800
602000
E0C000
F30000
FC0000
200000
ENDCHAR
STARTCHAR 012E
ENCODING 302
SWIDTH 357 0
DWIDTH 30 0
BBX 47 55 1 -8
BITMAP
00000000FFFE
0000000F000C
000000700010
000001800020
000006000040
000008000080
000018000180
000030000300
000030000600
000060000E00
000060001C00
000060001800
0000E0003800
0000E0007000
0000E0007000
0000E000E000
0000F001E000
00007001C000
000078038000
00003C078000
00001F070000
0000000F0000
0000000E0000
0000001E0000
0000003C0000
0000003C0000
000000780000
000000780000
000000F00000
000001F00000
000001E00000
000003C00000
000003C00000
000007800000
00000F800000
00000F000000
00001E000000
00003E000000
00007C000000
000078000000
0000F0000000
0001E0000000
0003E0000000
000780000000
000F00000000
801E00000000
407800000000
3FD000000000
006000000000
018000000000
030000000000
060000000000
0E0000000000
0F0000000000
07E000000000
ENDCHAR
STARTCHAR 012F
ENCODING 303
SWIDTH 190 0
DWIDTH 16 0
BBX 23 39 0 -9
BITMAP
000010
000030
000070
000060
000000
000000
000000
000000
000000
000000
000000
000000
000800
001800
003800
003000
006000
00E000
00C002
01C004
018008
030010
030020
060040
0E0080
0E0300
0C0400
1C1800
1E6000
1F8000
060000
080000
100000
200000
600000
E00000
E00000
F00000
3C0000
ENDCHAR
STARTCHAR 0130
ENCODING 304
SWIDTH 357 0
DWIDTH 30 0
BBX 46 57 1 -1
BITMAP
000000000700
000000000F00
000000000F00
000000000E00
000000000000
000000000000
000000000000
000000000000
000000000000
00000000FFFC
0000001F0008
000000E00030
000003000060
0000040000C0
000008000180
000018000100
000030000300
000030000600
000060000C00
000060001C00
0000E0001800
0000E0003800
0000E0007000
0000E000F000
0000E000E000
0000F001C000
00007001C000
000078038000
00003E078000
00000C070000
0000000F0000
0000001E0000
0000001E0000
0000003C0000
0000003C0000
000000780000
000000F80000
000000F00000
000001E00000
000001E00000
000003C00000
000007C00000
000007800000
00000F800000
00000F000000
00001E000000
00003E000000
00007C000000
000078000000
0000F0000000
0001E0000000
0003C0000000
000780000000
800F00000000
801E00000000
607800000000
1FC000000000
ENDCHAR
STARTCHAR 0131
ENCODING 305
SWIDTH 178 0
DWIDTH 15 0
BBX 19 19 3 0
BITMAP
00C000
00C000
01C000
038000
030000
060000
060020
0C0040
1C0080
180080
380100
300600
700800
601000
E02000
E0C000
F30000
FC0000
200000
ENDCHAR
STARTCHAR 0132
ENCODING 306
SWIDTH 630 0
DWIDTH 53 0
BBX 66 66 3 -19
BITMAP
00000001FFF80FFFC0
0000003E0011F00F80
000001C0006E000F00
0000060000F0001E00
0000180001C0003C00
000020000380007800
000060000300007800
0000C000070000F000
0000C0000E0000E000
000180001E0001E000
00018000360001C000
000380003E0003C000
000380006E00038000
00038000EE00078000
00038000CE000F0000
00038001CE000F0000
0003C0038F001E0000
0001C00387001E0000
0001E00707803C0000
0000F80703C03C0000
0000300E01A0780000
0000001E0000780000
0000001C0000F00000
0000003C0000F00000
000000380001E00000
000000780001E00000
000000F00003C00000
000000F00003C00000
000001E00007800000
000001E00007800000
000003C0000F000000
000007C0000F000000
00000780001E000000
00000F00001C000000
00000F00003C000000
00001E000038000000
00003E000078000000
00003C000070000000
0000780000F0000000
0000F80000E0000000
0001F00001C0000000
0001E00001C0000000
0003C0000380000000
000780000780000000
000F00000700000000
803C00000E00000000
60F800000C00000000
1FC000001C00000000
000000003800000000
000000003000000000
200000006000000000
60000000E000000000
60000000C000000000
E00000018000000000
E00000030000000000
E00000060000000000
E000000C0000000000
E00000180000000000
F00000300000000000
F00000600000000000
780000800000000000
780001000000000000
7C0006000000000000
3E0018000000000000
3F8060000000000000
1FFF80000000000000
ENDCHAR
STARTCHAR 0133
ENCODING 307
SWIDTH 261 0
DWIDTH 22 0
BBX 49 63 -20 -32
BITMAP
000000000C0380
000000001C0380
000000001C0780
00000000180600
00000000000000
00000000000000
00000000000000
00000000000000
00000000000000
00000000000000
00000000000000
00000000000000
0000007F83E000
0000008F0DC000
0000000F03C000
0000000E03C000
0000000E038000
0000001C078000
0000001C070000
00000038070000
000000380E0000
000000700E0000
000000701E0000
000000601C0000
000000E03C0000
000000C0580000
000000C0980000
000001C1300000
000001C6300000
000001F8600000
000001C0600000
00000000400000
00000000C00000
00000000800000
00000001800000
00000001000000
00000003000000
00000002000000
00000002000000
00000004000000
00000004000000
00000008000000
00000010000000
00000010000000
00000020000000
00000020000000
00000040000000
00000080000000
00000080000000
00000100000000
00000200000000
00000400000000
00000400000000
80000800000000
80001000000000
80002000000000
C0004000000000
C0008000000000
E0030000000000
F01E0000000000
FFF80000000000
7FF00000000000
1F800000000000
ENDCHAR
STARTCHAR 0134
ENCODING 308
SWIDTH 392 0
DWIDTH 33 0
BBX 68 82 -17 -17
BITMAP
000000000000000180
000000000000000380
000000000000000580
000000000000000980
000000000000001180
000000000000002180
000000000000004180
000000000000008180
000000000000010180
000000000000000180
000000000000000000
000000000000000000
000000000000000000
0000000000000000F0
0000000000000001E0
0000000000000003C0
0000000000000007C0
000000000000000780
000000000000001F00
000000000000007F00
000000000000018E00
0000000000000E1E00
000000000000301C00
000000000001C03800
000000000006003800
000000000018007000
000000000020007000
0000000000C000E000
00000000010000E000
00000000020001C000
00000000040001C000
000000000800038000
000000001000038000
000000003000070000
000000003000070000
0000000060000E0000
0000000060000E0000
0000000060001C0000
00000000E0003C0000
00000000E000380000
00000000E000780000
00000000E000780000
00000000E000F00000
00000000F000F00000
00000000F001E00000
000000007801E00000
000000007803C00000
000000007C03C00000
000000003E07800000
000000001E0F800000
000000001F0F000000
000000000F9F000000
0000000007FE000000
0000000003FC000000
0000000001FC000000
00000000007E000000
0000000000FFC00000
0000000000FF000000
0000000001F0000000
0000000001E0000000
0000000003C0000000
000000000780000000
000000000780000000
000000000F00000000
000000001E00000000
000000001C00000000
000000003800000000
200000007800000000
60000000F000000000
60000000E000000000
E0000001C000000000
E00000038000000000
E00000070000000000
F000000E0000000000
F00000180000000000
700000300000000000
780000600000000000
7C0001800000000000
7C0002000000000000
3F000C000000000000
3FC070000000000000
1FFF80000000000000
ENDCHAR
STARTCHAR 0135
ENCODING 309
SWIDTH 202 0
DWIDTH 17 0
BBX 56 65 -29 -31
BITMAP
00000000000C00
00000000001C00
00000000002C00
00000000004C00
00000000008C00
00000000010C00
00000000020C00
00000000040C00
00000000080C00
00000000100C00
00000000000800
00000000000000
00000000000000
00000000000000
00000000000000
00000000078000
000000003F8000
00000000478000
00000001838001
00000002030002
0000000003000C
00000000030010
00000000020060
00000000060180
00000000060200
00000000040C00
00000000041000
000000000C6000
00000000098000
000000001F0000
000000001C0000
00000000380000
00000000F00000
00000001E00000
00000000C00000
00000000800000
00000000800000
00000001000000
00000001000000
00000002000000
00000002000000
00000004000000
00000008000000
00000008000000
00000010000000
00000010000000
00000020000000
00000040000000
00000040000000
00000080000000
00000100000000
00000100000000
00000200000000
00000400000000
80000800000000
80001000000000
80001000000000
80006000000000
C000C000000000
C0018000000000
E0060000000000
F01C0000000000
7FF80000000000
3FE00000000000
0F000000000000
ENDCHAR
STARTCHAR 0136
ENCODING 310
SWIDTH 750 0
DWIDTH 63 0
BBX 86 61 1 -15
BITMAP
000003FE0002000003FC00
00000FFFE00600003FFE00
00003FFFFE040000FFFF80
00007FFFFFF80007FFFF80
0000F8000018001FF00000
0000E0000030003F000000
0001C000003000F8000000
00018000006003C0000000
0001800000400700000000
0003000000C01C00000000
0003000000803000000000
000300000180E000000000
0002000001018000000000
0002000002060000000000
00020000020C0000000000
0002000004300000000000
0002000004600000000000
0001000008800000000000
0001000013000000000000
0001000014000000000000
0001000038000000000000
0000000020000000000000
0000000070000000000000
00000000F8000000000000
00000001B8000000000000
00000002BC000000000000
000000011E000000000000
000000010F000000000000
000000020F800000000000
0000000207800000000000
0000000403C00000000000
0000000801E00000000000
0000000801F00000000000
0000001000F80000000000
00000030007C0000000000
00000020003E0000000000
00000040001F0000000000
000000C0001F8000000000
00000180000FC000000000
000003000007E000000000
800006000003F000000000
80001C000001FC00000000
400038000000FE00000000
3001E00000007F00000000
0F1F800000003F80000000
03FE000000000FE0000004
00000000000007F8000008
00000000000003FC000010
00000000800000FF000020
00000001C000007FE00040
00000001C000000FFC0380
00000001C0000003FFFE00
00000000C00000003FE000
00000000C0000000000000
00000000C0000000000000
0000000180000000000000
0000000100000000000000
0000000300000000000000
0000000600000000000000
0000000800000000000000
0000001000000000000000
ENDCHAR
STARTCHAR 0137
ENCODING 311
SWIDTH 214 0
DWIDTH 18 0
BBX 55 81 1 -24
BITMAP
000000000007E0
00000000003FF0
0000000000E038
0000000001000C
00000000060004
00000000080000
00000000100000
00000000600000
00000000800000
00000001000000
00000002000000
00000002000000
00000004000000
00000008000000
00000010000000
00000020000000
00000020000000
00000040000000
00000080000000
00000180000000
00000100000000
00000200000000
00000600000000
00000C00000000
00000800000000
00001800000000
00003000000000
00003000000000
00006000000000
0000C000000000
0000C000000000
00018000000000
00038000000000
00030000000000
00070000000000
000E0000000000
000C0000000000
001C0000000000
00180000000000
00387000000000
0071F000000000
00767000000000
00E86000000000
00F06000000000
01E0C000000000
03C18000000000
03820000000000
070C0000000000
0F300000000000
0FC00000000000
1FE00000000000
1CE00000000000
38F00000000000
70700000000000
70780000000000
E03C0000000000
801C0000000000
001E0000000000
000F0000000000
00070000000000
03078000000000
0703C000000000
0701C000000000
0300E000000000
0300F000000000
03007800000000
06003800000000
06001C00000000
0C000E00000000
08000700000000
10000780000000
200003C0000000
000001E0000000
00000070000000
00000038000000
0000001E000000
0000000F000002
00000003C00004
00000000F00018
000000003E00E0
0000000007FF00
ENDCHAR
STARTCHAR 0139
ENCODING 313
SWIDTH 928 0
DWIDTH 78 0
BBX 77 55 0 -2
BITMAP
00000000000001800000
00000000000006000000
0000000000000C000000
00000000000018000000
00000000000020000000
000000000000C03F8000
00000000000180FFC000
000000000002030FE000
0000000000040C03C000
0000000000181001C000
00000000000020018000
00000000000040000000
00000000000180000000
00000000000300000000
00000000000200000000
00000000000400000000
00000000000C00000000
00000000001800000000
00000000003000000000
00000000006000000000
00000000006000000000
0000000000C000000000
00000000018000000000
00000000018000000000
00000000030000000000
00000000060000000020
00000000060000000020
000000000C0000000010
00000000180000000010
00000000180000000010
00000000300000000008
00000000200000000008
00000000600000000008
00000000400000000008
00000000C00000000008
70000001800000000008
7C000001000000000008
7F000003000000000008
F1C00006000000000018
E0300004000000000018
E00C0008000000000030
E0030018000000000030
E000E010000000000070
E0001820000000000070
E00007400000000000E0
E00000C00000000001E0
F00001380000000003C0
7000030F000000000FC0
78000E01E00000003F80
7C001C007E000000FF00
3F80F8000FF8000FFE00
1FFFF00001FFFFFFFC00
1FFFE000003FFFFFF000
07FF80000003FFFFC000
01FE000000003FFC0000
ENDCHAR
STARTCHAR 013A
ENCODING 314
SWIDTH 214 0
DWIDTH 18 0
BBX 40 64 3 -3
BITMAP
0000000001
0000000003
0000000004
0000000008
0000000010
0000000060
00000000C0
0000000100
0000000200
0000000C0C
000000103E
00000000DE
000000030F
000000040F
000000080F
0000001007
0000002007
0000002007
0000004007
0000008007
0000010007
0000020006
0000020006
000004000E
000008000C
0000180018
0000300018
0000200030
0000600060
0000C000C0
0001800180
0001800300
0003000600
0007000800
0006001000
000C006000
001C008000
0018030000
0038040000
0070100000
0070600000
00E3800000
00CC000000
01F0000000
0380000000
1F80000000
0F00000000
0F00000000
0E00000000
0C00000000
1C00000000
1800000000
3800040000
3000080000
7000100000
7000200000
6000800000
E001000000
E002000000
E00C000000
E010000000
F0E0000000
7F80000000
3C00000000
ENDCHAR
STARTCHAR 013B
ENCODING 315
SWIDTH 928 0
DWIDTH 78 0
BBX 77 63 0 -16
BITMAP
000000000000003F8000
00000000000000FFC000
000000000000030FE000
0000000000000C03C000
00000000000010018000
00000000000020018000
00000000000040000000
00000000000180000000
00000000000300000000
00000000000200000000
00000000000400000000
00000000000C00000000
00000000001800000000
00000000003000000000
00000000006000000000
00000000006000000000
0000000000C000000000
00000000018000000000
00000000018000000000
00000000030000000040
00000000060000000020
00000000060000000020
000000000C0000000010
00000000180000000010
00000000180000000010
00000000300000000008
00000000200000000008
00000000600000000008
00000000400000000008
00000000C00000000008
70000001800000000008
7C000001000000000008
7F000002000000000018
F1C00006000000000018
E0300004000000000018
E00C0008000000000030
E0030018000000000030
E000E010000000000070
E0001820000000000070
E00007400000000000E0
E00000C00000000001E0
F00001380000000003C0
7000030F000000000FC0
78000E01E00000003F80
7C001C007E000000FF00
3F80F8000FF8000FFE00
3FFFF00001FFFFFFFC00
1FFFE000003FFFFFF000
07FF80000003FFFFC000
01FE000000003FFC0000
00000000600000000000
00000000E00000000000
00000000F00000000000
00000000700000000000
00000000600000000000
00000000600000000000
00000000600000000000
00000000C00000000000
00000000800000000000
00000001000000000000
00000002000000000000
00000004000000000000
00000008000000000000
ENDCHAR
STARTCHAR 013C
ENCODING 316
SWIDTH 214 0
DWIDTH 18 0
BBX 44 67 -1 -17
BITMAP
0000000000C0
0000000003E0
000000000DE0
0000000030F0
0000000040F0
0000000080F0
000000010070
000000020070
000000020070
000000040070
000000080070
000000100070
000000200060
000000200060
0000004000E0
0000008000C0
000001800180
000003000180
000002000300
000006000600
00000C000C00
000018001800
000018003000
000030006000
000070008000
000060010000
0000C0060000
0001C0080000
000180300000
000380400000
000701000000
000706000000
000E38000000
000CC0000000
001F00000000
003800000000
01F800000000
00F000000000
00F000000000
00E000000000
00C000000000
01C000000000
018000000000
038000400000
030000800000
070001000000
070002000000
060008000000
0E0010000000
0E0020000000
0E00C0000000
0E0100000000
0F0E00000000
07F800000000
03C000000000
040000000000
0E0000000000
0E0000000000
060000000000
060000000000
060000000000
0C0000000000
0C0000000000
180000000000
100000000000
200000000000
C00000000000
ENDCHAR
STARTCHAR 013D
ENCODING 317
SWIDTH 928 0
DWIDTH 78 0
BBX 77 50 0 -3
BITMAP
000000000000003F0000
00000000000000FF8000
000000000000030F8C00
0000000000000C031E00
00000000000010030E00
00000000000020000E00
000000000000C0000C00
00000000000180000C00
00000000000300001800
00000000000200001000
00000000000400002000
00000000000C00004000
00000000001800008000
00000000003000000000
00000000006000000000
00000000006000000000
0000000000C000000000
00000000018000000000
00000000018000000000
00000000030000000040
00000000060000000020
00000000060000000020
000000000C0000000010
00000000180000000010
00000000180000000010
00000000300000000008
00000000200000000008
00000000600000000008
00000000400000000008
00000000C00000000008
70000001800000000008
7C000001000000000008
7F000002000000000018
F1C00006000000000018
E0300004000000000018
E00C0008000000000030
E0030018000000000030
E000E010000000000070
E0001820000000000070
E00007400000000000E0
E00000C00000000001E0
F00001380000000003C0
7000030F000000000FC0
78000E01E00000003F80
7C001C007E000000FF00
3F80F8000FF8000FFE00
3FFFF00001FFFFFFFC00
1FFFE000003FFFFFF000
07FF80000003FFFFC000
01FE000000003FFC0000
ENDCHAR
STARTCHAR 013E
ENCODING 318
SWIDTH 238 0
DWIDTH 20 0
BBX 39 55 3 -3
BITMAP
000000000E
000000003E
00000000F0
0000000170
0000000230
0000000430
0000000830
0000001030
0000002030
0000006020
000000C040
0000008040
0000010080
0000020100
0000060600
00000C0000
0000180000
0000180000
0000300000
0000600000
0000C00000
0000C00000
0001800000
0003000000
0003000000
0006000000
000E000000
000C000000
0018000000
0038000000
0030000000
0070000000
0060000000
00C0000000
01C0000000
0180000000
0380000000
0300000000
0700000000
0600000000
0C00000000
1C00000000
1800040000
3800080000
3800100000
3000200000
7000400000
6000800000
E001000000
E002000000
E00C000000
E010000000
F0E0000000
7F80000000
3C00000000
ENDCHAR
STARTCHAR 013F
ENCODING 319
SWIDTH 928 0
DWIDTH 78 0
BBX 77 50 0 -4
BITMAP
000000000000000E0000
000000000000007FC000
000000000000039FC000
0000000000000407E000
0000000000001801C000
00000000000020018000
00000000000040000000
00000000000080000000
00000000000100000000
00000000000300000000
00000000000600000000
00000000000C00000000
00000000001800000000
00000000001000000000
00000000003000000000
00000000006000000000
0000000000C000000000
0000000000C000000000
00000000018000000000
00000000030000000000
00000000030000000000
00000000060000000020
000000000C0000000020
000000000C0000000010
00000000180000000010
0000000018000E000010
0000000030001E000008
0000000020001E000008
0000000060000C000008
00000000C00000000008
20000000800000000008
78000001800000000008
7E000001000000000008
FB800002000000000018
F0600006000000000018
F0180004000000000010
F0070008000000000030
E000C010000000000030
F0003010000000000070
F0000E200000000000E0
F00001C00000000001E0
700000F00000000003C0
7000010E0000000007C0
38000603C00000001F80
3C000800780000007F00
0E0030000FC00003FE00
07C3C00001FFFFFFFC00
003C0000003FFFFFF000
000000000007FFFFC000
0000000000003FFE0000
ENDCHAR
STARTCHAR 0140
ENCODING 320
SWIDTH 238 0
DWIDTH 20 0
BBX 39 54 3 -3
BITMAP
000000001E
000000007E
0000000080
0000000100
0000000200
0000000400
0000000800
0000001000
0000002000
0000006000
000000C000
0000018000
0000030000
0000020000
0000060000
00000C0000
0000180000
0000180000
0000300000
0000600000
0000E00000
0000C00000
000180F000
000380F000
000300E000
0006000000
000E000000
000C000000
001C000000
0038000000
0030000000
0070000000
0060000000
00E0000000
01C0000000
01C0000000
0380000000
0380000000
0700000000
0700000000
0E00000000
1C00000000
1C00000000
1800080000
3800080000
3800100000
7000600000
7000800000
7001000000
F002000000
F00C000000
F010000000
F860000000
7F80000000
ENDCHAR
STARTCHAR 0141
ENCODING 321
SWIDTH 928 0
DWIDTH 78 0
BBX 77 50 0 -3
BITMAP
000000000000001F0000
00000000000000FFC000
000000000000030FC000
0000000000000C03C000
0000000000001001C000
00000000000020018000
00000000000040000000
00000000000080000000
00000000000100000000
00000000000200000000
00000000000400000000
00000000000C00000000
00000000000800000000
00000000001000000000
00000000002000000000
00000000006000000000
00000000004000000000
00000000008000000000
00000000018000000000
00000000010000000040
00000000020000000020
00000000020000000020
00000000040000000010
000000000C0000000010
00000000080000000010
000000001F0000000008
000000FFE1FFF0000008
00000000600000000008
00000000400000000008
60000000800000000008
78000001800000000008
7E000001000000000008
77800002000000000018
F0E00006000000000018
E0180004000000000018
E0060008000000000030
E0018010000000000030
E0006010000000000070
E0001C20000000000070
E00003400000000000E0
F00000E00000000001E0
F00001380000000003C0
70000207000000000FC0
78000E01E00000003F80
7C003C003E000000FF00
3F80F8000FF8000FFE00
1FFFF00001FFFFFFFC00
0FFFE000003FFFFFF000
07FF80000003FFFFC000
01FE000000001FFC0000
ENDCHAR
STARTCHAR 0142
ENCODING 322
SWIDTH 214 0
DWIDTH 18 0
BBX 40 55 3 -4
BITMAP
000000000C
000000003E
00000000DE
000000010F
000000020F
000000040F
0000000807
0000001007
0000002007
0000004007
0000004007
0000008007
0000010006
0000020006
000006000E
000004000C
00000C000C
0000180018
0000300030
0000700060
00006000C0
0000C00080
0001C00300
0001800600
0003800C00
0007001800
00061E2000
000FE0C000
001E010000
01FC060000
0F38180000
0070600000
0071800000
00E6000000
01D8000000
03E0000000
1F80000000
0F80000000
0F00000000
0E00000000
0E00000000
1C00000000
1C00000000
3800040000
3800080000
7000100000
7000200000
6000400000
E001800000
E002000000
E004000000
E018000000
F060000000
7F80000000
3C00000000
ENDCHAR
STARTCHAR 0143
ENCODING 323
SWIDTH 666 0
DWIDTH 56 0
BBX 77 74 -4 -13
BITMAP
00000000000000038000
00000000000000070000
000000000000000C0000
00000000000000180000
00000000000000600000
00000000000000C00000
00000000000001800000
00000000000002000000
0000000000000C000000
00000000000010000000
00000000000020000000
00000000000000000000
00000000000000000000
00000000000000000000
000000000000FE0003F0
00000000000301C03FF8
0000000000010023FFF8
000000000000801FFFF8
000000000000FFE80018
0000000000003E040008
00000000E00000020008
00000003F00000030008
00000007F00000030010
0000000FF00000038000
00000018F00000038000
00000030F00000038000
00000020700000038000
00000040700000038000
00000080700000038000
00000100700000038000
00000200700000078000
00000200700000070000
00000400700000070000
00000800700000070000
000010007000000E0000
000010007000000E0000
000020007000000E0000
000040007000001C0000
000040007000001C0000
00008000700000180000
00010000700000380000
00010000700000300000
00020000700000700000
00060000700000600000
00040000700000E00000
00080000700000C00000
00180000700001800000
00100000700001800000
00300000700003000000
00600000700006000000
00400000700006000000
00C0000070000C000000
00800000780018000000
01800000780010000000
03000000780030000000
03000000780060000000
060000007800C0000000
06000000780180000000
0C0000007C0300000000
0C0000003C0600000000
180000003E1800000000
180000003FF000000000
300000001FC000000000
300000000F0000000000
70000000000000000000
60000000000000000000
E0000000000000000000
E0000000000000000000
E0000000000000000000
C0000000000000000000
C0000000000000000000
40000000000000000000
40000000000000000000
40000000000000000000
ENDCHAR
STARTCHAR 0144
ENCODING 324
SWIDTH 273 0
DWIDTH 23 0
BBX 28 37 2 -4
BITMAP
00000010
00000030
00000060
000000C0
00000300
00000600
00000C00
00001000
00006000
00008000
00010000
00000000
00000000
00000000
00000000
00000000
0060E000
00C1E000
01C2E000
01CCC000
0391C000
03A18000
07438000
07830000
07070000
0F060000
0E0E0000
1C0C0000
381C0000
381C0000
70180000
60380040
E0380080
C0380100
003C0600
003C1800
001FE000
ENDCHAR
STARTCHAR 0145
ENCODING 325
SWIDTH 666 0
DWIDTH 56 0
BBX 77 62 -4 -16
BITMAP
000000000000FE0003F0
00000000000301C03FF8
0000000000010023FFF8
000000000000801FFFF8
000000000000FFE80018
0000000000003E040008
00000000E00000020008
00000003F00000030008
00000007F00000030010
0000000FF00000038000
00000018F00000038000
00000030F00000038000
00000020700000038000
00000040700000038000
00000080700000038000
00000100700000038000
00000200700000078000
00000400700000070000
00000400700000070000
00000800700000070000
000010007000000E0000
000010007000000E0000
000020007000000E0000
000040007000001C0000
000040007000001C0000
00008000700000180000
00010000700000380000
00010000700000300000
00020000700000700000
00040000700000600000
000C0000700000E00000
00080000700000C00000
00180000700001800000
00300000700001800000
00200000700003000000
00600000700006000000
00400000700006000000
00C0000070000C000000
01800000780018000000
01800000780010000000
03000000780030000000
03000000780060000000
060000007800C0000000
0E000000780180000000
0C0000007C0300000000
1C0000003C0600000000
180000003E1800000000
380000003FF000000000
300000001FC000000000
700000000F0000000000
70000100000000000000
60000780000000000000
E0000380000000000000
E0000380000000000000
C0000380000000000000
C0000300000000000000
40000300000000000000
40000200000000000000
40000600000000000000
40000C00000000000000
00001800000000000000
00002000000000000000
ENDCHAR
STARTCHAR 0146
ENCODING 326
SWIDTH 273 0
DWIDTH 23 0
BBX 27 34 1 -16
BITMAP
00307000
0060F000
00E17000
00E66000
01C8E000
01D0C000
03A1C000
03C18000
03838000
07830000
07070000
0E060000
1C0E0000
1C0E0000
380C0000
301C0020
701C0040
601C0080
001E0300
001E0C00
000FF000
02000000
06000000
0F000000
07000000
07000000
06000000
06000000
04000000
0C000000
18000000
10000000
60000000
80000000
ENDCHAR
STARTCHAR 0147
ENCODING 327
SWIDTH 666 0
DWIDTH 56 0
BBX 77 74 -4 -13
BITMAP
00000000000030000000
00000000000070300000
00000000000070200000
00000000000070400000
00000000000071800000
00000000000072000000
00000000000074000000
00000000000078000000
00000000000070000000
00000000000060000000
00000000000040000000
00000000000000000000
00000000000000000000
00000000000000000000
000000000000FF0003F0
00000000000300C03FF8
0000000000010023FFF8
000000000000801FFFF8
000000000000FFE80018
0000000000003E040008
00000000E00000020008
00000003F00000030008
00000007F00000030010
0000000FF00000038000
00000018F00000038000
00000030F00000038000
00000020700000038000
00000040700000038000
00000080700000038000
00000100700000038000
00000200700000078000
00000200700000070000
00000400700000070000
00000800700000070000
000010007000000E0000
000010007000000E0000
000020007000000E0000
000040007000001C0000
000040007000001C0000
00008000700000180000
00010000700000380000
00010000700000300000
00020000700000700000
00060000700000600000
00040000700000E00000
00080000700000C00000
00180000700001800000
00100000700001800000
00300000700003000000
00600000700006000000
00400000700006000000
00C0000070000C000000
00800000780018000000
01800000780010000000
03000000780030000000
03000000780060000000
060000007800C0000000
06000000780180000000
0C0000007C0300000000
0C0000003C0600000000
180000003E1800000000
180000003FF000000000
300000001FC000000000
300000000F0000000000
70000000000000000000
60000000000000000000
E0000000000000000000
E0000000000000000000
E0000000000000000000
C0000000000000000000
C0000000000000000000
40000000000000000000
40000000000000000000
40000000000000000000
ENDCHAR
STARTCHAR 0148
ENCODING 328
SWIDTH 273 0
DWIDTH 23 0
BBX 26 37 2 -4
BITMAP
00008000
00018000
00018080
00018100
00018200
00018400
00018800
00019000
0001A000
0001C000
00018000
00000000
00000000
00000000
00000000
00000000
0060E000
00C1E000
01C2E000
01CCC000
0391C000
03A18000
07438000
07830000
07070000
0F060000
0E0E0000
1C0C0000
381C0000
381C0000
70180000
60380040
E0380080
C0380100
003C0600
003C1800
001FE000
ENDCHAR
STARTCHAR 0149
ENCODING 329
SWIDTH 273 0
DWIDTH 23 0
BBX 26 39 2 -4
BITMAP
00300000
00700000
00780000
00380000
00380000
00380000
00300000
00300000
00200000
00200000
00400000
00800000
01000000
02000000
04000000
00000000
00000000
00000000
0060E000
00C1E000
01C2E000
01CCC000
0391C000
03A18000
07438000
07830000
07070000
0F060000
0E0E0000
1C0C0000
381C0000
381C0000
70180000
60380040
E0380080
C0380100
003C0600
003C1800
001FE000
ENDCHAR
STARTCHAR 014C
ENCODING 332
SWIDTH 619 0
DWIDTH 52 0
BBX 54 55 8 0
BITMAP
0000000003F800
00000000000000
00000000000000
00000000000000
00000000000000
00000000000000
00000000FFFC00
00000003000F80
000000000003E0
000000000001F0
000000000000F8
00000000000078
00000007C00078
0000003800007C
000001C000003C
0000060000003C
0000080000003C
0000300000003C
0000400000003C
0001800000003C
0003000000003C
00060000000038
000C0000000078
00180000000078
00380000000070
00700000000070
00E000000000E0
01C000000000E0
03C000000000C0
078000000001C0
07800000000180
0F000000000380
0F000000000300
1E000000000600
1E000000000C00
3E000000000C00
3C000000001800
7C000000003000
7C000000002000
78000000004000
F8000000008000
F8000000010000
F8000000020000
F8000000040000
F8000000080000
F8000000100000
F8000000400000
FC000000800000
7C000003000000
7E000004000000
3F000018000000
3F8000E0000000
0FE00700000000
07FFF800000000
00FF8000000000
ENDCHAR
STARTCHAR 014D
ENCODING 333
SWIDTH 238 0
DWIDTH 20 0
BBX 26 29 3 0
BITMAP
001FC000
00000000
00000000
00000000
00000000
00000000
00000000
00000000
00000000
00000000
000C0000
003E0000
004F0000
018FFFC0
020E0000
040E0000
0C0C0000
180C0000
300C0000
70180000
70180000
E0300000
E0200000
E0600000
E0400000
E0800000
E1000000
FE000000
20000000
ENDCHAR
STARTCHAR 014E
ENCODING 334
SWIDTH 619 0
DWIDTH 52 0
BBX 54 58 8 1
BITMAP
00000000060100
00000000060200
00000000060400
00000000030800
0000000001F000
00000000000000
00000000000000
00000000000000
00000000000000
00000000FFFC00
00000003001F80
000000000003E0
000000000001F0
000000000000F0
00000000000078
00000007800078
0000003840007C
000001C000003C
0000060000003C
0000180000003C
0000200000003C
0000400000003C
0001800000003C
0003000000003C
00060000000038
000C0000000078
00180000000078
00380000000070
00700000000070
00E000000000E0
01C000000000E0
03C000000000C0
078000000001C0
07800000000180
0F000000000380
0F000000000300
1E000000000600
3E000000000C00
3C000000000C00
3C000000001800
7C000000003000
7C000000002000
78000000004000
F8000000008000
F8000000010000
F8000000020000
F8000000040000
F8000000080000
F8000000100000
F8000000400000
FC000000800000
7C000003000000
7E000004000000
3F000018000000
3F8000E0000000
0FE00700000000
07FFF800000000
00FF8000000000
ENDCHAR
STARTCHAR 014F
ENCODING 335
SWIDTH 238 0
DWIDTH 20 0
BBX 26 30 3 0
BITMAP
00301000
00301000
00306000
001D8000
000E0000
00000000
00000000
00000000
00000000
00000000
00000000
000C0000
003E0000
004F0000
018FFFC0
020E0000
040E0000
0C0C0000
180C0000
300C0000
70180000
70180000
E0300000
E0200000
E0600000
E0400000
E0800000
E1000000
FE000000
20000000
ENDCHAR
STARTCHAR 0150
ENCODING 336
SWIDTH 619 0
DWIDTH 52 0
BBX 54 61 8 0
BITMAP
00000000000400
00000000000C60
000000000008E0
000000000018C0
00000000003180
00000000006300
0000000000C200
00000000008400
00000000010800
00000000000000
00000000000000
00000000000000
00000000FFFC00
00000003000F80
000000000003E0
000000000001F0
000000000000F8
00000000000078
00000007C00078
0000003800007C
000001C000003C
0000060000003C
0000080000003C
0000300000003C
0000400000003C
0001800000003C
0003000000003C
00060000000038
000C0000000078
00180000000078
00380000000070
00700000000070
00E000000000E0
01C000000000E0
03C000000000C0
078000000001C0
07800000000180
0F000000000380
0F000000000300
1E000000000600
1E000000000C00
3E000000000C00
3C000000001800
7C000000003000
7C000000002000
78000000004000
F8000000008000
F8000000010000
F8000000020000
F8000000040000
F8000000080000
F8000000100000
F8000000400000
FC000000800000
7C000003000000
7E000004000000
3F000018000000
3F8000E0000000
0FE00700000000
07FFF800000000
00FF8000000000
ENDCHAR
STARTCHAR 0151
ENCODING 337
SWIDTH 238 0
DWIDTH 20 0
BBX 26 33 3 -1
BITMAP
00004200
0000C600
0000C600
00018C00
00031800
00063000
00042000
00084000
00108000
00000000
00000000
00000000
00000000
00000000
000C0000
003E0000
004F0000
018FFFC0
020E0000
040E0000
0C0C0000
180C0000
300C0000
70180000
70180000
E0300000
E0200000
E0600000
E0400000
E0800000
E1000000
FE000000
20000000
ENDCHAR
STARTCHAR 0152
ENCODING 338
SWIDTH 988 0
DWIDTH 83 0
BBX 79 50 8 -2
BITMAP
0000000003C00001FC00
0000000007F8000FFF00
000000000FFC007FFF00
00000001F03E00F01F00
0000000E000F03800F00
00000070000307000600
0000018000030C000400
00000200000198000400
00000C000001B8000000
000010000000F0000000
000060000000F0000000
0000C0000000E0000000
000180000000E0000000
000300000000E0000000
000600000000E0000000
000C00000000E0000000
001800000000E0000000
003000000000E0000000
007000000000E0000000
00E000000000F0000000
01C000000000B8000000
01C0000000008E000000
038000000000BFE00000
078000000001C0000000
07000000000F00000000
0F000000001200000000
0E000000004200000000
1E000000008400000000
1E000000030400000000
3C000000060800000000
3C0000000E1000000000
7C0000000C1000000002
7C0000001C2000000002
780000003C4000000002
78000000388000000004
F8000000390000000008
F80000007A0000000008
F80000007C0000000010
F8000000780000000020
F8000000780000000040
F8000000780000000080
FC000000F80000000100
FC0000017C0000000600
7C0000023C0000000800
7E0000083E0000003000
3F0000301F000000C000
1F8000C00FC000070000
0FE0070007F800780000
07FFF80001FFFFC00000
00FF8000001FFC000000
ENDCHAR
STARTCHAR 0153
ENCODING 339
SWIDTH 345 0
DWIDTH 29 0
BBX 29 19 3 0
BITMAP
00040180
003C07C0
00DC19C0
031C21C0
041C4180
041E8300
081F0600
181F0800
181E3000
303EC008
303F0010
703C0010
607C0020
E07C0040
E0FC0080
E0DC0100
E19C0600
E70E1800
7C07E000
ENDCHAR
ENDFONT
